<?xml version="1.0" standalone="no"?>
<!DOCTYPE svg PUBLIC "-//W3C//DTD SVG 1.1//EN" "http://www.w3.org/Graphics/SVG/1.1/DTD/svg11.dtd" >
<svg xmlns="http://www.w3.org/2000/svg">
<metadata></metadata>
<defs>
<font id="SaintsSquareRegular" horiz-adv-x="1024" >
<font-face units-per-em="2048" ascent="1536" descent="-512" />
<missing-glyph horiz-adv-x="500" />
<glyph horiz-adv-x="0" />
<glyph horiz-adv-x="2048" />
<glyph unicode=" " />
<glyph unicode="!" horiz-adv-x="512" d="M0 410h410v-410h-410v410zM0 1434h410v-922h-410v922z" />
<glyph unicode="&#x22;" d="M0 1638h410v-614h-410v614zM512 1638h410v-614h-410v614z" />
<glyph unicode="#" horiz-adv-x="1538" d="M819 205h-205v-205h-409v205h-205v409h205v205h-205v410h205v205h409v-205h205v205h410v-205h205v-410h-205v-205h205v-409h-205v-205h-410v205zM614 614h205v205h-205v-205z" />
<glyph unicode="$" horiz-adv-x="1533" d="M0 1434h1434v-410h-1434v410zM0 410h1434v-410h-1434v410zM0 614v308h713l721 -103v-307h-721zM512 1536h410v-102h-410v102zM512 0h410v-102h-410v102z" />
<glyph unicode="&#x26;" horiz-adv-x="1538" d="M0 1434h1434v-1434h-1434v1434zM410 410h256v-103h102v103h256v102h-512v156h512v102h-512v152h512v102h-256v102h-102v-102h-256v-614z" />
<glyph unicode="'" horiz-adv-x="512" d="M0 1638h410v-614h-410v614z" />
<glyph unicode="(" horiz-adv-x="1228" d="M379 8q-78 72 -137 176q-53 90 -95.5 223.5t-42.5 317.5q0 182 42 315.5t96 223.5q59 104 137 178h573q-115 -84 -204 -193q-39 -47 -76 -103t-65.5 -122t-46 -141.5t-17.5 -157.5q8 -207 72.5 -345t140.5 -220q88 -98 196 -152h-573z" />
<glyph unicode=")" horiz-adv-x="1329" d="M410 -4q94 84 170 192q63 92 116.5 224.5t53.5 300.5q0 82 -13.5 156.5t-37 140t-54.5 123t-63 104.5q-76 111 -172 193h479q94 -84 170 -195q63 -94 116.5 -226t53.5 -296q0 -82 -14.5 -157t-39 -140.5t-55 -121.5t-61.5 -104q-76 -111 -170 -194h-479z" />
<glyph unicode="*" horiz-adv-x="1124" d="M205 1229h205v-205h-205v205zM614 1229h205v-205h-205v205zM410 1024h204v-205h-204v205zM205 819h205v-205h-205v205zM614 819h205v-205h-205v205z" />
<glyph unicode="+" horiz-adv-x="1124" d="M102 922h205v204h410v-204h205v-410h-205v-205h-410v205h-205v410z" />
<glyph unicode="," horiz-adv-x="512" d="M0 410h410v-615h-410v615z" />
<glyph unicode="-" horiz-adv-x="1124" d="M102 922h820v-410h-820v410z" />
<glyph unicode="." horiz-adv-x="512" d="M0 410h410v-410h-410v410z" />
<glyph unicode="/" horiz-adv-x="1228" d="M651 1434h473l-651 -1434h-473z" />
<glyph unicode="0" horiz-adv-x="1538" d="M0 1434h1434v-1434h-1434v1434zM410 410h614v614h-614v-614z" />
<glyph unicode="1" horiz-adv-x="512" d="M0 1434h410v-1434h-410v1434z" />
<glyph unicode="2" horiz-adv-x="1538" d="M0 1434h1434v-922h-1024v-102h1024v-410h-1434v922h1024v102h-1024v410z" />
<glyph unicode="3" horiz-adv-x="1538" d="M0 1434h1434v-1434h-1434v410h1024v102h-512v410h512v102h-1024v410z" />
<glyph unicode="4" horiz-adv-x="1538" d="M0 1434h410v-512h614v512h410v-1434h-410v512h-1024v922z" />
<glyph unicode="5" horiz-adv-x="1538" d="M0 1434h1434v-410h-1024v-102h1024v-922h-1434v410h1024v102h-1024v922z" />
<glyph unicode="6" horiz-adv-x="1538" d="M0 1434h410v-1024h614v102h-512v410h922v-922h-1434v1434z" />
<glyph unicode="7" horiz-adv-x="1538" d="M0 1434h1434l-299 -1434h-473l212 1024h-741z" />
<glyph unicode="8" horiz-adv-x="1538" d="M0 1434h1434v-1434h-1434v1434zM410 922h614v102h-614v-102zM410 410h614v102h-614v-102z" />
<glyph unicode="9" horiz-adv-x="1538" d="M0 1434h1434v-1434h-410v512h-1024v922zM410 922h614v102h-614v-102z" />
<glyph unicode=":" horiz-adv-x="512" d="M0 410h410v-410h-410v410zM0 922h410v-410h-410v410z" />
<glyph unicode=";" horiz-adv-x="512" d="M0 410h410v-615h-410v615zM0 922h410v-410h-410v410z" />
<glyph unicode="&#x3c;" horiz-adv-x="1228" d="M678 1296l289 -290l-289 -289l289 -289l-289 -291l-580 580z" />
<glyph unicode="=" horiz-adv-x="1538" d="M307 410h819v-410h-819v410zM307 922h819v-410h-819v410z" />
<glyph unicode="&#x3e;" horiz-adv-x="1228" d="M391 137l-289 291l289 289l-289 289l289 290l580 -579z" />
<glyph unicode="?" d="M0 1434h922v-922h-410v512h-512v410zM512 410h410v-410h-410v410z" />
<glyph unicode="@" horiz-adv-x="1533" d="M0 1434h1434v-1434h-1434v1434zM512 922h512v102h-614v-614h102v512zM922 410h102v102h-102v-102z" />
<glyph unicode="A" horiz-adv-x="1536" d="M102 922h308v-922h-410v205zM512 1434h410v-1434h-410v1434zM1024 922h307l103 -717v-205h-410v922z" />
<glyph unicode="B" horiz-adv-x="1533" d="M0 1434h1434v-1434h-1434v1434zM410 512v-102h614v614h-614v-102h512v-410h-512z" />
<glyph unicode="C" horiz-adv-x="1533" d="M1024 1024h-614v-614h614v102h410v-512h-1434v1434h1434v-512h-410v102z" />
<glyph unicode="D" horiz-adv-x="1536" d="M0 1434h1434v-1434h-1434v410h1024v614h-614v-512h-410v922z" />
<glyph unicode="E" horiz-adv-x="1533" d="M0 1434h1434v-410h-1434v410zM0 922h1434v-410h-1434v410zM0 0v410h1434v-410h-1434z" />
<glyph unicode="F" horiz-adv-x="1533" d="M0 1434h1434v-410h-1434v410zM0 922h922v-410h-922v410zM408 410v-410h-408v410h408z" />
<glyph unicode="G" horiz-adv-x="1533" d="M512 922h922v-922h-1434v922h410v-512h614v102h-512v410zM0 1434h1434v-410h-1434v410z" />
<glyph unicode="H" horiz-adv-x="1533" d="M1024 1434h410v-1434h-410v1434zM410 0h-410v1434h410v-1434zM512 1126h410v-819h-410v819z" />
<glyph unicode="I" horiz-adv-x="512" d="M0 1434h410v-1434h-410v1434z" />
<glyph unicode="J" horiz-adv-x="1533" d="M0 510h410v-100h614v1024h410v-1434h-1434v510z" />
<glyph unicode="K" horiz-adv-x="1536" d="M0 1434h410v-1434h-410v1434zM506 717l487 717h445l-482 -717l482 -717h-449z" />
<glyph unicode="L" horiz-adv-x="1533" d="M0 1434h410v-1024h1024v-410h-1434v1434z" />
<glyph unicode="M" horiz-adv-x="1533" d="M512 1434h410v-1432h-410v1432zM1024 1434h410v-1434h-410v1434zM0 1434h410v-1434h-410v1434z" />
<glyph unicode="N" horiz-adv-x="1533" d="M512 713v721h307l103 -721v-713h-308zM0 1434h410v-1434h-410v1434zM1024 1434h410v-1434h-410v1434z" />
<glyph unicode="O" horiz-adv-x="1533" d="M0 1434h1434v-1434h-1434v1434zM410 410h614v614h-614v-614zM512 922h410v-410h-410v410z" />
<glyph unicode="P" horiz-adv-x="1533" d="M0 819l1024 103v102h-1024v410h1434v-820l-1024 -102v-512h-410v819z" />
<glyph unicode="Q" horiz-adv-x="1533" d="M0 1434h1434v-1434h-1434v1434zM922 614h102v410h-614v-614h102v512h410v-308z" />
<glyph unicode="R" horiz-adv-x="1536" d="M1024 0v477l410 35v-512h-410zM0 1434h1434v-820l-1024 -102v-512h-410v819l1024 103v102h-1024v410z" />
<glyph unicode="S" horiz-adv-x="1533" d="M0 614v308h713l721 -103v-307h-721zM0 0v410h1434v-410h-1434zM0 1024v408l1434 2v-410h-1434z" />
<glyph unicode="T" horiz-adv-x="1533" d="M0 1434h1434v-410h-512v-1024h-410v1024h-512v410z" />
<glyph unicode="U" horiz-adv-x="1533" d="M0 1434h410v-1024h614v1024h410v-1434h-1434v1434z" />
<glyph unicode="V" horiz-adv-x="1536" d="M0 1229v205h410l307 -1434h-410zM1126 0h-409l307 1434h410v-205z" />
<glyph unicode="W" horiz-adv-x="1536" d="M922 0h-410v1331h410v-1331zM0 1434h410l-2 -1434h-408v1434zM1434 0h-412l2 1434h410v-1434z" />
<glyph unicode="X" horiz-adv-x="1638" d="M0 1434h307l410 -258l409 258h308v-308l-717 -409l-717 409v308zM0 307l717 410l717 -410v-307h-308l-409 254l-410 -254h-307v307z" />
<glyph unicode="Y" horiz-adv-x="1533" d="M0 1331v103h410v-820h-308zM512 1434h410v-1434h-410v1434zM1331 614h-307v820h410v-103z" />
<glyph unicode="Z" horiz-adv-x="1533" d="M721 512h-721v307l721 103h713v-308zM0 0v410h1434v-410h-1434zM0 1024v410h1434v-410h-1434z" />
<glyph unicode="[" d="M0 1946h922v-410h-512v-1638h512v-410h-922v2458z" />
<glyph unicode="\" horiz-adv-x="1228" d="M0 1434h459l665 -1434h-458z" />
<glyph unicode="]" d="M0 -102h512v1638h-512v410h922v-2458h-922v410z" />
<glyph unicode="^" horiz-adv-x="1433" d="M1296 922l-290 -289l-289 289l-289 -289l-291 289l580 579z" />
<glyph unicode="_" horiz-adv-x="1538" d="M0 410h1434v-410h-1434v410z" />
<glyph unicode="a" d="M410 922h512v-922h-922v510h410v412zM512 512h-102v-102h102v102z" />
<glyph unicode="b" d="M0 410h512v102h-512v922h410v-512h512v-922h-922v410z" />
<glyph unicode="c" d="M0 922h922v-410h-512v-102h512v-410h-922v922z" />
<glyph unicode="d" d="M410 410h102v1024h410v-1434h-922v922h461v-410h-51v-102z" />
<glyph unicode="e" d="M512 512h-102v-102h512v-410h-922v922h922v-459h-410v49z" />
<glyph unicode="f" d="M0 922h922v-410h-512v-512h-410v922zM410 1434h512v-410h-512v410z" />
<glyph unicode="g" d="M512 0h-512v922h922v-1434h-922v410h512v102zM410 410h102v102h-102v-102z" />
<glyph unicode="h" d="M512 512h-102v-512h-410v1434h410v-512h512v-922h-410v512z" />
<glyph unicode="i" horiz-adv-x="512" d="M0 922h410v-922h-410v922zM0 1434h410v-410h-410v410z" />
<glyph unicode="j" horiz-adv-x="921" d="M410 922h409v-922h-409v922zM0 0h410v-410h-410v410zM410 1434h409v-410h-409v410z" />
<glyph unicode="k" d="M922 512h-512v-512h-410v1434h410v-512h512v-410zM512 410h410v-410h-410v410z" />
<glyph unicode="l" horiz-adv-x="509" d="M0 1434h410v-1434h-410v1434z" />
<glyph unicode="m" horiz-adv-x="1536" d="M922 0h-410v922h410v-922zM410 0h-410v922h410v-922zM1024 922h410v-922h-410v922z" />
<glyph unicode="n" d="M0 922h459l-49 -922h-410v922zM459 922h463v-922h-410z" />
<glyph unicode="o" d="M0 0v922h922v-922h-922zM512 512h-102v-102h102v102z" />
<glyph unicode="p" d="M410 -512h-410v1434h922v-922h-512v-512zM512 512h-102v-102h102v102z" />
<glyph unicode="q" d="M410 410h512v-922h-410v512h-512v922h922v-410h-512v-102z" />
<glyph unicode="r" d="M0 922h410v-922h-410v922zM512 922h410v-410h-410v410z" />
<glyph unicode="s" d="M0 410h512v47h410v-457h-922v410zM0 922h922v-412h-512v-49h-410v461z" />
<glyph unicode="t" d="M0 1434h410v-512h512v-410h-512v-512h-410v1434z" />
<glyph unicode="u" d="M457 0l55 922h410v-922h-465zM457 0h-457v922h410z" />
<glyph unicode="v" d="M465 0l47 922h410l-103 -922h-354zM0 922h410l51 -922h-359z" />
<glyph unicode="w" horiz-adv-x="1536" d="M512 510h410v-510h-410v510zM0 922h410v-922h-410v922zM1024 922h410v-922h-410v922z" />
<glyph unicode="x" d="M512 307h-102v-307h-410v410h307v102h-307v410h410v-308h102v308h410v-410h-308v-102h308v-410h-410v307z" />
<glyph unicode="y" d="M0 0v922h410v-512h102v512h410v-1434h-412l2 512h-512z" />
<glyph unicode="z" d="M0 0v410h307l103 102h-410v410h922v-410h-308l-102 -102h410v-410h-922z" />
<glyph unicode="{" horiz-adv-x="1124" d="M0 922h205v819h819v-410h-410v-1229h410v-409h-819v819h-205v410z" />
<glyph unicode="|" horiz-adv-x="512" d="M0 668h410v-668h-410v668zM0 1434h410v-664h-410v664z" />
<glyph unicode="}" horiz-adv-x="1124" d="M102 1741h820v-819h204v-410h-204v-819h-820v409h410v1229h-410v410z" />
<glyph unicode="~" horiz-adv-x="1538" d="M102 717h205v-205h-205v205zM307 922h410v-205h-410v205zM717 717h409v-205h-409v205zM1126 922h205v-205h-205v205z" />
<glyph unicode="&#xa0;" />
<glyph unicode="&#xad;" horiz-adv-x="1124" d="M102 922h820v-410h-820v410z" />
<glyph unicode="&#x2c6;" horiz-adv-x="1433" d="M1296 922l-290 -289l-289 289l-289 -289l-291 289l580 579z" />
<glyph unicode="&#x2000;" horiz-adv-x="973" />
<glyph unicode="&#x2001;" horiz-adv-x="1946" />
<glyph unicode="&#x2002;" horiz-adv-x="973" />
<glyph unicode="&#x2003;" horiz-adv-x="1946" />
<glyph unicode="&#x2004;" horiz-adv-x="648" />
<glyph unicode="&#x2005;" horiz-adv-x="486" />
<glyph unicode="&#x2006;" horiz-adv-x="324" />
<glyph unicode="&#x2007;" horiz-adv-x="324" />
<glyph unicode="&#x2008;" horiz-adv-x="243" />
<glyph unicode="&#x2009;" horiz-adv-x="389" />
<glyph unicode="&#x200a;" horiz-adv-x="108" />
<glyph unicode="&#x2010;" horiz-adv-x="1124" d="M102 922h820v-410h-820v410z" />
<glyph unicode="&#x2011;" horiz-adv-x="1124" d="M102 922h820v-410h-820v410z" />
<glyph unicode="&#x2012;" horiz-adv-x="1124" d="M102 922h820v-410h-820v410z" />
<glyph unicode="&#x2013;" horiz-adv-x="1328" d="M102 922h1024v-410h-1024v410z" />
<glyph unicode="&#x2014;" horiz-adv-x="2352" d="M102 922h2048v-410h-2048v410z" />
<glyph unicode="&#x201a;" horiz-adv-x="1705" />
<glyph unicode="&#x202f;" horiz-adv-x="389" />
<glyph unicode="&#x205f;" horiz-adv-x="486" />
<glyph unicode="&#x20ac;" horiz-adv-x="1538" d="M209 410h1225l-41 -410h-1225zM209 1434h1225l-41 -410h-1225zM1036 686l-14 -139h-1024l14 139h1024zM33 889h1024l-15 -137h-1024z" />
<glyph unicode="&#xe000;" horiz-adv-x="921" d="M0 922h922v-922h-922v922z" />
</font>
</defs>
</svg>
