<?xml version="1.0" standalone="no"?>
<!DOCTYPE svg PUBLIC "-//W3C//DTD SVG 1.1//EN" "http://www.w3.org/Graphics/SVG/1.1/DTD/svg11.dtd" >
<svg xmlns="http://www.w3.org/2000/svg">
<metadata></metadata>
<defs>
<font id="sansserifexbflfcondmedium" horiz-adv-x="439" >
<font-face units-per-em="1000" ascent="800" descent="-200" />
<missing-glyph horiz-adv-x="255" />
<glyph unicode="fi" horiz-adv-x="481" d="M56 348h-37v142h37v73q0 79 54 128.5t144 49.5q93 0 141.5 -47.5t48.5 -115.5v-49h-149v31q0 54 -44 54q-46 0 -46 -59v-65h65v-142h-65v-348h-149v348zM444 490v-490h-149v490h149z" />
<glyph unicode="fl" horiz-adv-x="469" d="M444 0h-149v545q0 58 -47 58q-43 0 -43 -59v-54h65v-142h-65v-348h-149v348h-37v142h37v82q0 68 52.5 118.5t140.5 50.5q53 0 93 -18t61 -47t31 -59.5t10 -60.5v-556z" />
<glyph unicode=" "  horiz-adv-x="255" />
<glyph unicode="&#x09;" horiz-adv-x="255" />
<glyph unicode="&#xa0;" horiz-adv-x="255" />
<glyph unicode="!" horiz-adv-x="239" d="M196 714v-471h-150v471h150zM47 97q0 42 20 73t55 31t55 -31t20 -73t-20 -73t-55 -31t-55 31t-20 73z" />
<glyph unicode="&#x22;" horiz-adv-x="245" d="M211 742l-9 -210h-41l-9 210h59zM97 742l-9 -210h-41l-10 210h60z" />
<glyph unicode="#" horiz-adv-x="498" d="M253 719l-19 -119h85l19 119h72l-19 -119h85l-18 -108h-85l-18 -114h84l-17 -110h-85l-20 -120h-72l20 120h-85l-20 -120h-72l20 120h-84l18 110h84l18 114h-83l18 108h83l19 119h72zM216 492l-18 -114h85l18 114h-85z" />
<glyph unicode="$" horiz-adv-x="403" d="M19 88l32 148q25 -28 62 -49.5t63 -21.5t40.5 12t14.5 32q0 37 -46 49q-82 22 -123 84.5t-41 146.5q0 83 40 149t106 78v38h78v-39q69 -7 129 -62l-31 -154q-58 50 -119 50q-20 0 -31 -13.5t-11 -32.5q0 -34 46 -45q80 -18 122 -82.5t42 -150.5t-39 -148.5t-108 -76.5 v-61h-78v59q-85 8 -148 90z" />
<glyph unicode="%" horiz-adv-x="388" d="M352 714l-252 -714h-60l252 714h60zM375 144q0 -60 -22.5 -104.5t-63.5 -44.5q-40 0 -63 44.5t-23 104.5q0 61 23 105.5t63 44.5q41 0 63.5 -44.5t22.5 -105.5zM263 144q0 -66 26 -66t26 66q0 67 -26 67t-26 -67zM196 572q0 -60 -22.5 -104.5t-63.5 -44.5q-40 0 -63 44.5 t-23 104.5q0 61 23 105.5t63 44.5q41 0 63.5 -44.5t22.5 -105.5zM84 572q0 -66 26 -66t26 66q0 67 -26 67t-26 -67z" />
<glyph unicode="&#x26;" horiz-adv-x="531" d="M348 0l-33 56q-3 -2 -13 -11t-14.5 -12.5t-14.5 -10.5t-17.5 -10.5t-18 -7.5t-22 -6t-23.5 -2q-87 0 -133 56.5t-46 148.5q0 105 105 204l-17 30q-29 51 -29 109q0 74 44.5 126.5t113.5 52.5q64 0 105.5 -47t41.5 -122q0 -98 -81 -173l44 -77q18 18 59 70l89 -137 q-26 -35 -64 -81l88 -156h-164zM259 561q0 36 -28 36q-12 0 -20.5 -9.5t-8.5 -22.5q0 -17 9 -35l18 -31q30 36 30 62zM163 232q0 -15 11 -30t31 -15q16 0 28 14l-44 79q-26 -20 -26 -48z" />
<glyph unicode="'" horiz-adv-x="130" d="M97 742l-9 -210h-41l-10 210h60z" />
<glyph unicode="(" horiz-adv-x="209" d="M20 344q0 122 31.5 232.5t91.5 187.5l58 -58q-74 -163 -74 -371q0 -207 72 -364l-61 -63q-118 182 -118 436z" />
<glyph unicode=")" horiz-adv-x="203" d="M14 -29q72 157 72 364q0 208 -74 371l58 58q60 -77 91.5 -187.5t31.5 -232.5q0 -254 -118 -436z" />
<glyph unicode="*" horiz-adv-x="244" d="M103 711q0 37 20 37t20 -37q0 -18 -3.5 -41.5t-7.5 -42.5t-4 -21l8 12q7 12 14.5 22t17 22t18.5 19t15 7q15 0 15 -17q0 -20 -33 -45t-50 -32q19 -8 52 -30.5t33 -40.5q0 -22 -17 -22q-6 0 -15 7t-19 19t-17 21.5t-14 21.5l-8 12q15 -75 15 -105q0 -36 -20 -36t-20 36 q0 18 3.5 41.5t7.5 42.5t4 21l-8 -12q-7 -12 -14 -21.5t-17 -21.5t-19 -19t-15 -7q-17 0 -17 22q0 18 33 40.5t52 30.5q-17 7 -50 32t-33 45q0 17 15 17q6 0 15 -7t18.5 -19t17 -22t14.5 -22l8 -12q-15 75 -15 105z" />
<glyph unicode="+" horiz-adv-x="383" d="M135 336v153h111v-153h96v-153h-95v-153h-112v153h-91v153h91z" />
<glyph unicode="," horiz-adv-x="232" d="M204 197l-122 -275h-79l68 275h133z" />
<glyph unicode="-" horiz-adv-x="388" d="M344 336v-153h-297v153h297z" />
<glyph unicode="." horiz-adv-x="208" d="M33 97q0 42 20 73t55 31t55 -31t20 -73t-20 -73t-55 -31t-55 31t-20 73z" />
<glyph unicode="/" horiz-adv-x="229" d="M217 745l-149 -791h-60l150 791h59z" />
<glyph unicode="0" horiz-adv-x="457" d="M439 356q0 -95 -22.5 -176.5t-71.5 -135.5t-116 -54t-116.5 54t-72 135.5t-22.5 176.5t22.5 176.5t72 135.5t116.5 54t116 -54t71.5 -135.5t22.5 -176.5zM165 356q0 -76 16.5 -119.5t47.5 -43.5t47 43.5t16 119.5t-16 119.5t-47 43.5t-47.5 -43.5t-16.5 -119.5z" />
<glyph unicode="1" horiz-adv-x="276" d="M238 714v-714h-149v536h-46v178h195z" />
<glyph unicode="2" horiz-adv-x="419" d="M31 474q0 244 183 244q100 0 143 -54.5t43 -153.5q0 -54 -13.5 -104t-40 -94t-46 -70t-51.5 -63h151v-179h-384v117l70 82q23 28 54.5 72t67 117.5t35.5 123.5q0 58 -39 58q-41 0 -41 -96h-132z" />
<glyph unicode="3" horiz-adv-x="401" d="M30 497q0 226 170 226q86 0 129 -48.5t43 -135.5q0 -124 -74 -155q39 -12 63.5 -54.5t24.5 -111.5q0 -102 -52.5 -164t-129.5 -62q-90 0 -134.5 60.5t-43.5 167.5h132q0 -58 42 -58q20 0 28 16t8 52q0 42 -12 55.5t-46 13.5v145q36 0 47 11t11 45q0 33 -8 45t-30 12 q-36 0 -36 -60h-132z" />
<glyph unicode="4" horiz-adv-x="459" d="M388 714v-410h49v-178h-49v-126h-149v126h-216v163l154 425h211zM239 304v201l-65 -201h65z" />
<glyph unicode="5" horiz-adv-x="398" d="M88 714h263v-168h-147l-7 -63q15 3 31 3q64 0 108.5 -56.5t44.5 -179.5q0 -71 -19.5 -124t-51.5 -81t-66 -41.5t-70 -13.5q-91 0 -153 45l14 166q10 -9 40.5 -21t59.5 -12q47 0 73.5 20.5t26.5 77.5q0 100 -94 100q-40 0 -82 -15z" />
<glyph unicode="6" horiz-adv-x="424" d="M324 711l-119 -258q10 3 29 3q20 0 40 -5t43 -20t39.5 -39t28 -65.5t11.5 -94.5q0 -114 -46.5 -182t-144.5 -68q-89 0 -138.5 67t-49.5 176q0 113 52 236l107 250h148zM256 228q0 30 -12.5 52t-35.5 22t-35.5 -22t-12.5 -52q0 -29 12.5 -51t35.5 -22t35.5 22t12.5 51z " />
<glyph unicode="7" horiz-adv-x="422" d="M405 714l-207 -714h-171l171 536h-171v178h378z" />
<glyph unicode="8" horiz-adv-x="391" d="M366 536q0 -107 -63 -165q15 -12 20.5 -16.5t19.5 -21.5t20.5 -32.5t12.5 -43.5t6 -61q0 -86 -53.5 -147.5t-130.5 -61.5q-80 0 -132 62t-52 145q0 41 7 72t21 52t23 30t26 23q-28 27 -44.5 63t-16.5 101q0 74 48 129t119 55q70 0 119.5 -53.5t49.5 -129.5zM226 519 q0 20 -8 35.5t-22 15.5t-21.5 -15t-7.5 -36t7.5 -36t21.5 -15t22 15.5t8 35.5zM158 221q0 -30 10.5 -52.5t29.5 -23.5q18 0 28.5 21.5t10.5 51.5t-10.5 52.5t-30.5 22.5q-18 0 -28 -21t-10 -51z" />
<glyph unicode="9" horiz-adv-x="428" d="M98 -4l109 243q-32 5 -61 18t-57.5 38t-45 70t-16.5 105q0 114 47 185t142 71q90 0 139 -68.5t49 -177.5q0 -111 -51 -234l-106 -250h-149zM166 478q0 -29 12.5 -51t35.5 -22t36 22t13 51q0 30 -13 52t-36 22t-35.5 -22t-12.5 -52z" />
<glyph unicode=":" horiz-adv-x="204" d="M33 97q0 42 20 73t55 31t55 -31t20 -73t-20 -73t-55 -31t-55 31t-20 73zM33 383q0 42 20 73t55 31t55 -31t20 -73t-20 -73t-55 -31t-55 31t-20 73z" />
<glyph unicode=";" horiz-adv-x="250" d="M208 201l-124 -281h-81l69 281h136zM75 383q0 42 20 73t55 31t55 -31t20 -73t-20 -73t-55 -31t-55 31t-20 73z" />
<glyph unicode="&#x3c;" horiz-adv-x="229" d="M205 536v-153l-96 -87l91 -87v-153l-170 163v153z" />
<glyph unicode="=" horiz-adv-x="374" d="M340 438v-128h-296v128h296zM340 229v-128h-296v128h296z" />
<glyph unicode="&#x3e;" horiz-adv-x="229" d="M212 219l-170 -163v153l92 87l-97 87v153l175 -164v-153z" />
<glyph unicode="?" horiz-adv-x="404" d="M264 247h-132v146h49q59 0 59 96q0 47 -9.5 64.5t-34.5 17.5q-23 0 -34 -20t-10 -50h-133q0 99 47 158.5t134 59.5q92 0 139 -57.5t47 -158.5q0 -100 -35.5 -161t-86.5 -61v-34zM121 97q0 42 20 73t55 31t55 -31t20 -73t-20 -73t-55 -31t-55 31t-20 73z" />
<glyph unicode="@" d="M154 372q0 -37 13 -62t37 -25q28 0 46.5 40t18.5 87q0 35 -11.5 58.5t-33.5 23.5q-32 0 -51 -37.5t-19 -84.5zM54 400q0 -104 45 -184t123 -80q31 0 60.5 10.5t43.5 26.5l25 -28q-53 -49 -131 -49q-96 0 -149.5 90t-53.5 214q0 125 54.5 216.5t150.5 91.5q94 0 152 -87 t58 -211q0 -80 -22.5 -127.5t-68.5 -47.5q-21 0 -34.5 8.5t-18 16t-10.5 23.5q-8 -15 -15 -23.5t-23 -16.5t-38 -8q-41 0 -66 38.5t-25 98.5q0 67 30 118.5t82 51.5q51 0 62 -51l6 48h41l-24 -192q-1 -6 -1 -18q0 -51 39 -51q24 0 36.5 40t12.5 93q0 108 -48 184.5 t-125 76.5q-80 0 -124 -79t-44 -193z" />
<glyph unicode="A" horiz-adv-x="490" d="M158 714h173l147 -714h-147l-24 103h-126l-23 -103h-147zM244 413l-32 -151h63z" />
<glyph unicode="B" horiz-adv-x="438" d="M387 526q0 -65 -14 -95.5t-42 -51.5q40 -16 66 -59t26 -113q0 -101 -50.5 -154t-135.5 -53h-207v714h197q160 0 160 -188zM179 456h24q35 0 35 62q0 63 -35 63h-24v-125zM179 165h33q21 0 31 14t10 49q0 61 -42 61h-32v-124z" />
<glyph unicode="C" horiz-adv-x="359" d="M179 358q0 -76 22 -131.5t61 -55.5q43 0 64 16v-188q-27 -9 -63 -9q-119 0 -185 105t-66 263t65.5 261t185.5 103q35 0 63 -11v-190q-26 16 -64 16q-40 0 -61.5 -51.5t-21.5 -127.5z" />
<glyph unicode="D" horiz-adv-x="478" d="M461 354q0 -92 -27.5 -171t-88 -131t-142.5 -52h-163v714h161q82 0 143 -53.5t89 -133.5t28 -173zM189 195h21q42 0 65.5 49.5t23.5 117.5t-23.5 117t-65.5 49h-21v-333z" />
<glyph unicode="E" horiz-adv-x="363" d="M331 536h-150v-92h141v-179h-141v-86h150v-179h-299v714h299v-178z" />
<glyph unicode="F" horiz-adv-x="358" d="M332 536h-150v-113h141v-178h-141v-245h-149v714h299v-178z" />
<glyph unicode="G" horiz-adv-x="498" d="M183 364q0 -79 22 -138.5t60 -59.5q52 0 52 39v58h-51v133h201v-224q0 -64 -54.5 -123t-147.5 -59q-80 0 -138 54.5t-85 136.5t-27 177q0 94 26.5 175t83 135t133.5 54q136 0 205 -151l-142 -77l-5 8q-4 9 -5 10t-5 8t-6.5 8.5t-7.5 6t-9.5 5.5t-11 2.5t-13.5 1.5 q-36 0 -55.5 -52.5t-19.5 -127.5z" />
<glyph unicode="H" horiz-adv-x="482" d="M182 443h111v271h150v-714h-150v264h-111v-264h-150v714h150v-271z" />
<glyph unicode="I" horiz-adv-x="218" d="M185 0h-150v714h150v-714z" />
<glyph unicode="J" horiz-adv-x="282" d="M248 714v-494q0 -103 -42 -161.5t-119 -58.5q-35 0 -63 24v166q13 -16 26 -16q26 0 37.5 18.5t11.5 65.5v456h149z" />
<glyph unicode="K" horiz-adv-x="462" d="M180 456l103 258h153l-131 -331l136 -383h-152l-109 307v-307h-149v714h149v-258z" />
<glyph unicode="L" horiz-adv-x="354" d="M182 179h143v-179h-293v714h150v-535z" />
<glyph unicode="M" horiz-adv-x="612" d="M412 377l-60 -377h-85l-67 377l-40 -377h-149l87 714h152l56 -351l59 351h150l85 -714h-149z" />
<glyph unicode="N" horiz-adv-x="510" d="M321 340v374h149v-714h-149l-137 348v-348h-150v714h139z" />
<glyph unicode="O" horiz-adv-x="530" d="M19 356q0 95 26 176.5t83.5 135.5t135.5 54t135.5 -54t84 -135.5t26.5 -176.5t-26.5 -176.5t-84 -135.5t-135.5 -54t-135.5 54t-83.5 135.5t-26 176.5zM344 356q0 75 -21 129.5t-59 54.5t-59 -54.5t-21 -129.5t21 -129.5t59 -54.5t59 54.5t21 129.5z" />
<glyph unicode="P" horiz-adv-x="415" d="M393 489q0 -112 -42 -168t-119 -56h-48v-265h-153v714h201q77 0 119 -56.5t42 -168.5zM184 427h24q35 0 35 62t-35 62h-24v-124z" />
<glyph unicode="Q" horiz-adv-x="529" d="M264 -10q-78 0 -135.5 54t-83.5 135.5t-26 176.5t26 176.5t83.5 135.5t135.5 54t135.5 -54t84 -135.5t26.5 -176.5q0 -166 -75 -273l57 -132l-135 -56l-41 102q-21 -7 -52 -7zM344 356q0 75 -21 129.5t-59 54.5t-59 -54.5t-21 -129.5t21 -129.5t59 -54.5t59 54.5 t21 129.5z" />
<glyph unicode="R" horiz-adv-x="450" d="M394 484q0 -86 -21.5 -133t-52.5 -61l112 -290h-172l-75 224v-224h-153v714h208q71 0 112.5 -54.5t41.5 -175.5zM185 427h24q35 0 35 62t-35 62h-24v-124z" />
<glyph unicode="S" horiz-adv-x="409" d="M383 225q0 -94 -50.5 -162.5t-141.5 -68.5q-42 0 -79.5 17t-56.5 34t-42 43l31 148q30 -26 41.5 -35t37 -22.5t45.5 -13.5q24 0 38 13.5t14 31.5q0 33 -45 49q-81 27 -118 82.5t-37 144.5q0 99 47 165.5t128 66.5q113 0 172 -65l-31 -154q-63 50 -124 50q-14 0 -26 -13.5 t-12 -29.5q0 -34 52 -48q77 -20 117 -85t40 -148z" />
<glyph unicode="T" horiz-adv-x="364" d="M346 714v-194h-89v-520h-150v520h-89v194h328z" />
<glyph unicode="U" horiz-adv-x="437" d="M176 248q0 -28 11 -42t28 -14q39 0 39 56v466h149v-503q0 -108 -51.5 -163t-136.5 -55t-136.5 55t-51.5 163v503h149v-466z" />
<glyph unicode="V" horiz-adv-x="474" d="M164 714l76 -361l76 361h153l-172 -714h-113l-173 714h153z" />
<glyph unicode="W" horiz-adv-x="703" d="M226 342l63 372h132l63 -372l61 372h151l-136 -714h-143l-62 392l-63 -392h-143l-137 714h150z" />
<glyph unicode="X" horiz-adv-x="465" d="M168 714l66 -161l62 161h161l-145 -361l142 -353h-160l-60 153l-63 -153h-159l141 355l-144 359h159z" />
<glyph unicode="Y" horiz-adv-x="452" d="M162 714l62 -178l61 178h158l-145 -387v-327h-152v327l-136 387h152z" />
<glyph unicode="Z" horiz-adv-x="495" d="M482 714l-216 -525h205v-189h-461l225 526h-192v188h439z" />
<glyph unicode="[" horiz-adv-x="199" d="M167 704h-46v-719h46v-92h-128v903h128v-92z" />
<glyph unicode="\" horiz-adv-x="226" d="M214 -36h-66l-140 786h66z" />
<glyph unicode="]" horiz-adv-x="199" d="M167 -107h-129v92h47v719h-47v92h129v-903z" />
<glyph unicode="^" horiz-adv-x="265" d="M128 667h23l88 -188h-33l-66 120l-71 -120h-29z" />
<glyph unicode="_" horiz-adv-x="232" d="M245 -22v-71h-245v71h245z" />
<glyph unicode="`" horiz-adv-x="235" d="M126 546l-72 116l48 35l71 -116z" />
<glyph unicode="a" d="M255 251q0 38 -13.5 65.5t-36.5 27.5q-24 0 -37 -27.5t-13 -65.5q0 -39 12.5 -66t37.5 -27q23 0 36.5 27.5t13.5 65.5zM404 490v-490h-146v56q-26 -66 -90 -66q-48 0 -82.5 37.5t-50.5 93.5t-16 121q0 103 39 178t110 75q64 0 90 -58v53h146z" />
<glyph unicode="b" horiz-adv-x="424" d="M262 497q69 0 107.5 -75.5t38.5 -179.5q0 -103 -38.5 -178.5t-107.5 -75.5q-54 0 -89 66v-54h-150v739h150v-300q17 30 35.5 44t53.5 14zM169 245q0 -36 12.5 -62t35.5 -26t36 26t13 62t-13 62t-36 26t-35.5 -26t-12.5 -62z" />
<glyph unicode="c" horiz-adv-x="276" d="M154 246q0 -41 14 -71.5t40 -30.5q34 0 47 33v-154q-32 -34 -92 -34q-72 0 -112 74.5t-40 177.5q0 66 16.5 122.5t52 94t83.5 37.5q55 0 92 -28v-150q-23 29 -47 29q-26 0 -40 -29.5t-14 -70.5z" />
<glyph unicode="d" horiz-adv-x="421" d="M397 739v-739h-149v54q-10 -19 -18.5 -31t-27.5 -23.5t-44 -11.5q-68 0 -106.5 75.5t-38.5 178.5q0 104 38.5 179.5t106.5 75.5q26 0 45.5 -10.5t26 -19.5t18.5 -28v300h149zM252 245q0 36 -12.5 62t-35.5 26t-36 -26.5t-13 -61.5t13 -61.5t36 -26.5t35.5 26t12.5 62z " />
<glyph unicode="e" horiz-adv-x="385" d="M154 216q0 -102 44 -102q34 0 40 49l136 -25q-43 -154 -183 -154q-86 0 -134 76t-48 180t48.5 180.5t134.5 76.5q92 0 138.5 -75t46.5 -185v-21h-223zM238 310q0 23 -10 41.5t-31 18.5t-31 -19t-10 -41h82z" />
<glyph unicode="f" horiz-adv-x="292" d="M56 337h-37v153h37v102q0 76 46 112.5t116 36.5q32 0 60 -10v-122q-20 9 -39 9q-34 0 -34 -46v-82h64v-153h-64v-337h-149v337z" />
<glyph unicode="g" horiz-adv-x="430" d="M251 55q-31 -57 -86 -57q-69 0 -107.5 77t-38.5 181q0 101 36 174.5t100 73.5q63 0 96 -65v51h149v-496q0 -99 -58.5 -148.5t-147.5 -49.5q-60 0 -113 34v137q58 -29 108 -29q35 0 48.5 19t13.5 76v22zM256 246q0 36 -12.5 62t-35.5 26t-35.5 -26t-12.5 -62t12.5 -62 t35.5 -26t35.5 26t12.5 62z" />
<glyph unicode="h" horiz-adv-x="424" d="M34 0v740h149v-299q27 57 83 57q61 0 96.5 -48t35.5 -124v-326h-136v281q0 66 -40 66q-39 0 -39 -66v-281h-149z" />
<glyph unicode="i" horiz-adv-x="214" d="M36 490h149v-490h-149v490zM192 633q0 -48 -21.5 -83t-60.5 -35t-60.5 35t-21.5 83t21.5 83t60.5 35t60.5 -35t21.5 -83z" />
<glyph unicode="j" horiz-adv-x="215" d="M185 490v-691h-149v691h149zM192 633q0 -48 -21.5 -83t-60.5 -35t-60.5 35t-21.5 83t21.5 83t60.5 35t60.5 -35t21.5 -83z" />
<glyph unicode="k" horiz-adv-x="441" d="M186 297l76 193h153l-100 -244l116 -246h-167l-78 189v-189h-149v740h149v-443z" />
<glyph unicode="l" horiz-adv-x="220" d="M186 0h-149v740h149v-740z" />
<glyph unicode="m" horiz-adv-x="645" d="M247 0v281q0 66 -37 66t-37 -66v-281h-147v490h148v-52q42 59 111 59t101 -54q13 17 22.5 26.5t32.5 18.5t55 9q58 0 90 -46.5t32 -111.5v-339h-149v281q0 66 -35 66q-38 0 -38 -66v-281h-149z" />
<glyph unicode="n" horiz-adv-x="433" d="M34 0v490h149v-70q35 78 113 78q109 0 109 -172v-326h-149v277q0 66 -37 66q-36 0 -36 -66v-277h-149z" />
<glyph unicode="o" horiz-adv-x="400" d="M387 243q0 -104 -49 -180t-137 -76q-60 0 -103.5 38t-63.5 95t-20 123t20 123t63.5 95t103.5 38q88 0 137 -76t49 -180zM249 243q0 38 -12.5 65.5t-35.5 27.5t-35.5 -27.5t-12.5 -65.5t12.5 -65.5t35.5 -27.5t35.5 27.5t12.5 65.5z" />
<glyph unicode="p" horiz-adv-x="438" d="M38 -203v693h149v-59q16 31 36 48.5t54 17.5q68 0 106 -75.5t38 -179.5q0 -103 -38 -178.5t-106 -75.5q-28 0 -47.5 10.5t-26.5 20t-16 27.5v-249h-149zM183 240q0 -36 13 -62t36 -26t35.5 26t12.5 62t-12.5 62t-35.5 26t-36 -26t-13 -62z" />
<glyph unicode="q" horiz-adv-x="424" d="M158 -12q-68 0 -106.5 75.5t-38.5 178.5q0 104 38.5 179.5t106.5 75.5q37 0 57.5 -15.5t32.5 -50.5v59h149v-693h-149v249q-27 -58 -90 -58zM252 240q0 36 -12.5 62t-35.5 26t-36 -26t-13 -62t13 -62t36 -26t35.5 26t12.5 62z" />
<glyph unicode="r" horiz-adv-x="321" d="M33 0v490h150v-44q46 56 114 56v-183q-114 0 -114 -88v-231h-150z" />
<glyph unicode="s" horiz-adv-x="337" d="M279 338q-51 22 -79 22q-36 0 -36 -21q0 -11 9 -17.5t32 -11.5q58 -13 89.5 -56.5t31.5 -98.5q0 -72 -45.5 -119.5t-129.5 -47.5q-74 0 -141 63l37 103q47 -30 89 -30q30 0 30 23q0 25 -44 38q-95 29 -95 148q0 66 37 114t105 48q55 0 83.5 -8t55.5 -24z" />
<glyph unicode="t" horiz-adv-x="285" d="M61 337h-37v153h37v141h149v-141h52v-153h-52v-337h-149v337z" />
<glyph unicode="u" horiz-adv-x="411" d="M174 490v-275q0 -57 33 -57q34 0 34 57v275h146v-298q0 -87 -45.5 -145t-134.5 -58t-133.5 57.5t-44.5 145.5v298h145z" />
<glyph unicode="v" horiz-adv-x="390" d="M198 278l44 212h142l-133 -490h-106l-133 490h135z" />
<glyph unicode="w" horiz-adv-x="589" d="M195 291l44 199h112l47 -203l46 203h141l-133 -490h-106l-49 198l-50 -198h-105l-132 490h133z" />
<glyph unicode="x" horiz-adv-x="431" d="M174 490l41 -87l40 87h153l-117 -239l125 -251h-152l-49 100l-49 -100h-153l125 252l-117 238h153z" />
<glyph unicode="y" horiz-adv-x="401" d="M200 304l45 186h151l-199 -690h-147l78 270l-120 420h153z" />
<glyph unicode="z" horiz-adv-x="371" d="M346 490l-110 -311h110v-179h-318l112 315h-110v175h316z" />
<glyph unicode="{" horiz-adv-x="222" d="M145 445q0 -47 -49 -90q49 -51 49 -90v-211q0 -85 56 -85v-78q-61 -1 -100.5 37.5t-39.5 123.5v213q0 48 -35 90q35 44 35 90v193q0 81 39.5 118t100.5 37v-77q-35 0 -45.5 -21t-10.5 -67v-183z" />
<glyph unicode="|" horiz-adv-x="130" d="M95 -46h-60v801h60v-801z" />
<glyph unicode="}" horiz-adv-x="216" d="M24 716v77q61 0 100.5 -37t39.5 -118v-193q0 -46 35 -90q-35 -42 -35 -90v-213q0 -85 -39.5 -123.5t-100.5 -37.5v78q56 0 56 85v211q0 39 49 90q-49 43 -49 90v183q0 46 -10.5 67t-45.5 21z" />
<glyph unicode="~" horiz-adv-x="352" d="M54 426q34 55 87 55q25 0 49 -20q28 -24 44 -24q32 0 54 33l28 -32q-38 -50 -84 -50q-28 0 -52 22q-25 23 -40 23q-33 0 -58 -41z" />
<glyph unicode="&#xa1;" horiz-adv-x="239" d="M46 -140v471h150v-471h-150zM195 477q0 -42 -20 -73t-55 -31t-55 31t-20 73t20 73t55 31t55 -31t20 -73z" />
<glyph unicode="&#xa2;" horiz-adv-x="295" d="M260 505v-111q-25 38 -60 38q-28 0 -43.5 -27.5t-15.5 -65.5t15.5 -65.5t43.5 -27.5q39 0 60 37v-113q-34 -32 -65 -32v-61h-44v61q-56 6 -86.5 63.5t-30.5 133.5q0 79 31 138.5t86 65.5v58h44v-57q36 -2 65 -35z" />
<glyph unicode="&#xa3;" horiz-adv-x="374" d="M183 539q0 -24 15 -80q18 -64 20 -82h75v-77h-66q2 -22 2 -40q0 -78 -22 -108q4 0 24 -8q16 -7 33 -7q45 0 70 41l14 -113q-12 -21 -22 -33.5t-32.5 -25t-52.5 -12.5q-34 0 -69 25q-27 20 -48 20q-43 0 -78 -40l-24 125q16 26 49 44q24 37 24 97q0 13 -2 35h-51v77h44 q-5 30 -20 83q-13 52 -13 111q0 66 38 107t109 41q74 0 106 -47.5t32 -120.5q0 -18 -1 -27h-82q0 43 -9.5 55.5t-28.5 12.5q-34 0 -34 -53z" />
<glyph unicode="&#xa5;" horiz-adv-x="451" d="M168 713l61 -156l59 157h156l-142 -352h66v-56h-66v-41h66v-56h-66v-209h-153v209h-66v56h66v41h-66v56h66l-136 351h155z" />
<glyph unicode="&#xa6;" horiz-adv-x="148" d="M100 270v-270h-54v270h54zM46 377v297h54v-297h-54z" />
<glyph unicode="&#xa7;" horiz-adv-x="441" d="M350 55q0 -76 -38.5 -117.5t-111.5 -41.5t-135 63l35 103q31 -27 78 -27q20 0 28.5 9t8.5 30t-10.5 29t-56.5 23q-131 44 -131 216q0 60 27.5 108.5t64.5 62.5q-19 30 -19 75q0 65 34 104.5t91 39.5q72 0 126 -32l-24 -120q-37 17 -78 17q-31 0 -31 -39q0 -24 7.5 -31 t32.5 -11q81 -11 126 -73.5t45 -153.5q0 -133 -85 -181q16 -25 16 -53zM135 314q0 -48 23.5 -75t59.5 -27q35 0 59 27.5t24 74.5q0 45 -24 73.5t-59 28.5q-36 0 -59.5 -27t-23.5 -75z" />
<glyph unicode="&#xa8;" horiz-adv-x="366" d="M166 633q0 -43 -19 -74.5t-52 -31.5t-52 31.5t-19 74.5t19 74.5t52 31.5t52 -31.5t19 -74.5zM348 633q0 -43 -18.5 -74.5t-51.5 -31.5q-34 0 -52.5 31.5t-18.5 74.5t18.5 74.5t52.5 31.5q33 0 51.5 -31.5t18.5 -74.5z" />
<glyph unicode="&#xa9;" horiz-adv-x="382" d="M141 369q0 -36 14.5 -62t40.5 -26q39 0 62 36v-46q-25 -25 -62 -25q-42 0 -66 37t-24 86q0 48 23.5 83t66.5 35q37 0 62 -25v-38q-24 30 -62 30q-26 0 -40.5 -25t-14.5 -60zM25 370q0 104 45 180t126 76t125.5 -76t44.5 -180q0 -66 -18 -122.5t-58 -94.5t-94 -38 q-81 0 -126 75.5t-45 179.5zM54 370q0 -91 37.5 -157t104.5 -66t104.5 66t37.5 157t-37.5 157t-104.5 66t-104.5 -66t-37.5 -157z" />
<glyph unicode="&#xaa;" horiz-adv-x="270" d="M249 358v-73h-218v73h218zM231 648v-248h-74v28q-14 -33 -46 -33q-36 0 -55.5 38t-19.5 90t19.5 90t55.5 38q32 0 46 -29v26h74zM155 527q0 47 -25 47t-25 -47t25 -47t25 47z" />
<glyph unicode="&#xab;" d="M174 85l-148 180v82l148 181l62 -60l-128 -162l128 -153zM361 85l-149 180v82l149 181l61 -60l-127 -162l127 -153z" />
<glyph unicode="&#xac;" horiz-adv-x="266" d="M255 406v-46h-234v46h234zM181 774v-328h-68v246h-22v82h90zM216 247q0 -49 -29 -76q12 -9 17 -14t12.5 -23t7.5 -43q0 -40 -24.5 -68t-60.5 -28q-37 0 -61 28.5t-24 66.5q0 53 36 81q-28 26 -28 76q0 34 22 59t55 25q32 0 54.5 -24.5t22.5 -59.5zM152 239q0 24 -14 24 q-13 0 -13 -24q0 -23 13 -23q14 0 14 23zM121 102q0 -34 18 -35q18 0 18 34t-19 34q-17 0 -17 -33z" />
<glyph unicode="&#xae;" horiz-adv-x="279" d="M40 649q0 72 31.5 125.5t88.5 53.5t88 -52.5t31 -125.5t-31 -126t-88 -53t-88.5 53t-31.5 125zM60 650q0 -64 26.5 -110.5t73.5 -46.5t73.5 46.5t26.5 110.5q0 63 -26.5 109.5t-73.5 46.5t-73.5 -46.5t-26.5 -109.5zM206 695q0 -51 -40 -51h-11l52 -90h-16l-52 90h-5v-90 h-14v193h46q16 0 28 -13.5t12 -38.5zM192 695q0 35 -26 35h-32v-70h32q26 0 26 35z" />
<glyph unicode="&#xaf;" horiz-adv-x="296" d="M287 600v-73h-250v73h250z" />
<glyph unicode="&#xb0;" horiz-adv-x="172" d="M22 611q0 40 17.5 69t49.5 29t49.5 -29.5t17.5 -69.5t-17.5 -69t-49.5 -29t-49.5 29.5t-17.5 69.5zM54 610q0 -27 9.5 -46.5t25.5 -19.5t25.5 19.5t9.5 46.5t-9.5 47t-25.5 20t-25.5 -20t-9.5 -47z" />
<glyph unicode="&#xb1;" horiz-adv-x="371" d="M336 188v-128h-299v128h299zM136 535v153h100v-153h99l1 -153h-100v-153h-99v153h-100v153h99z" />
<glyph unicode="&#xb2;" horiz-adv-x="276" d="M64 666q0 112 84 112q85 0 85 -96q0 -32 -12.5 -64t-24.5 -48t-32 -40h69v-82h-176v54l32 37q72 89 72 144q0 27 -18 27q-19 0 -19 -44h-60z" />
<glyph unicode="&#xb3;" horiz-adv-x="282" d="M67 673q0 104 78 104q79 0 79 -84q0 -57 -34 -72q41 -11 41 -76q0 -47 -24 -75.5t-60 -28.5q-82 0 -82 105h61q0 -27 19 -27q17 0 17 32q0 19 -5.5 25t-21.5 6v67q16 0 21.5 5.5t5.5 20.5t-4 20.5t-14 5.5q-16 0 -16 -28h-61z" />
<glyph unicode="&#xb4;" horiz-adv-x="199" d="M154 662l-71 -116l-48 35l71 116z" />
<glyph unicode="&#xb5;" horiz-adv-x="282" d="M260 406v-46h-234v46h234zM185 773v-328h-69v247h-21v81h90zM60 217q0 112 84 112q85 0 85 -96q0 -32 -12.5 -64t-24.5 -48t-32 -40h69v-82h-176v54l32 37q72 89 72 144q0 27 -18 27q-19 0 -19 -44h-60z" />
<glyph unicode="&#xb6;" horiz-adv-x="404" d="M276 -97h-67v362h-24q-73 0 -116 54.5t-43 161.5q0 109 43.5 171t115.5 62h91v-811zM374 714v-811h-66v811h66z" />
<glyph unicode="&#xb7;" horiz-adv-x="270" d="M70 372q0 42 20 73t55 31t55 -31t20 -73t-20 -73t-55 -31t-55 31t-20 73z" />
<glyph unicode="&#xb8;" horiz-adv-x="172" d="M112 -33q25 -23 25 -50q0 -22 -14 -38t-35 -16q-25 0 -41 18v43q12 -12 24 -12q20 0 20 19q0 17 -18 33l8 36h37z" />
<glyph unicode="&#xb9;" horiz-adv-x="250" d="M185 774v-328h-68v246h-22v82h90z" />
<glyph unicode="&#xba;" horiz-adv-x="291" d="M253 358v-73h-218v73h218zM239 525q0 -53 -25 -92t-70 -39t-70 39t-25 92t25 91.5t70 38.5t70 -38.5t25 -91.5zM169 525q0 47 -25 47q-24 0 -24 -47q0 -19 6.5 -33.5t17.5 -14.5q12 0 18.5 14t6.5 34z" />
<glyph unicode="&#xbb;" horiz-adv-x="435" d="M18 468l61 60l149 -181v-82l-149 -180l-61 68l128 153zM207 468l61 60l149 -181v-82l-149 -180l-61 68l127 153z" />
<glyph unicode="&#xbc;" horiz-adv-x="282" d="M260 406v-46h-234v46h234zM185 774v-328h-68v246h-22v82h90zM210 328v-188h22v-82h-22v-58h-69v58h-99v75l71 195h97zM141 140v92l-30 -92h30z" />
<glyph unicode="&#xbd;" horiz-adv-x="282" d="M260 406v-46h-234v46h234zM185 773v-328h-69v247h-21v81h90zM60 217q0 112 84 112q85 0 85 -96q0 -32 -12.5 -64t-24.5 -48t-32 -40h69v-82h-176v54l32 37q72 89 72 144q0 27 -18 27q-19 0 -19 -44h-60z" />
<glyph unicode="&#xbe;" horiz-adv-x="282" d="M260 406v-46h-234v46h234zM67 673q0 104 78 104q79 0 79 -84q0 -57 -34 -72q41 -11 41 -76q0 -47 -24 -75.5t-60 -28.5q-82 0 -82 105h61q0 -27 19 -27q17 0 17 32q0 19 -5.5 25t-21.5 6v67q16 0 21.5 5.5t5.5 20.5t-4 20.5t-14 5.5q-16 0 -16 -28h-61zM207 326v-188h22 v-82h-22v-58h-69v58h-99v75l71 195h97zM138 138v92l-30 -92h30z" />
<glyph unicode="&#xbf;" horiz-adv-x="404" d="M143 309h132v-146h-49q-59 0 -59 -96q0 -47 9.5 -64.5t34.5 -17.5q23 0 34 20t10 50h133q0 -99 -47 -158.5t-134 -59.5q-92 0 -139 57.5t-47 158.5q0 100 35.5 161t86.5 61v34zM286 459q0 -42 -20 -73t-55 -31t-55 31t-20 73t20 73t55 31t55 -31t20 -73z" />
<glyph unicode="&#xc0;" horiz-adv-x="490" d="M226 745l-65 104l44 32l64 -105zM158 714h173l147 -714h-147l-24 103h-126l-23 -103h-147zM244 413l-32 -151h63z" />
<glyph unicode="&#xc1;" horiz-adv-x="490" d="M326 847l-65 -104l-44 30l65 106zM158 714h173l147 -714h-147l-24 103h-126l-23 -103h-147zM244 413l-32 -151h63z" />
<glyph unicode="&#xc2;" horiz-adv-x="490" d="M234 881h17l66 -111l-30 -29l-44 74l-47 -76l-32 31zM158 714h173l147 -714h-147l-24 103h-126l-23 -103h-147zM244 413l-32 -151h63z" />
<glyph unicode="&#xc3;" horiz-adv-x="490" d="M236 778q-2 1 -6.5 5.5l-6 6t-6 4.5t-7.5 4.5t-8 2.5t-10 1q-28 0 -43 -26l-35 46q29 49 74 49q33 0 58 -25q21 -19 44 -19q30 0 45 26l34 -46q-29 -50 -80 -50q-32 0 -53 21zM158 714h173l147 -714h-147l-24 103h-126l-23 -103h-147zM244 413l-32 -151h63z" />
<glyph unicode="&#xc4;" horiz-adv-x="490" d="M225 823q0 -30 -13.5 -52t-36.5 -22t-36 22t-13 52t13 52t36 22t36.5 -22t13.5 -52zM358 823q0 -30 -13 -52t-36 -22t-36 22t-13 52t13 52t36 22t36 -22t13 -52zM158 714h173l147 -714h-147l-24 103h-126l-23 -103h-147zM244 413l-32 -151h63z" />
<glyph unicode="&#xc5;" horiz-adv-x="490" d="M214 824q0 -21 8 -37t23 -16t23 16t8 37q0 22 -8 38t-23 16t-23 -16t-8 -38zM187 825q0 32 15 55.5t43 23.5q26 0 41 -23.5t15 -55.5t-15 -55t-41 -23q-28 0 -43 23t-15 55zM158 714h173l147 -714h-147l-24 103h-126l-23 -103h-147zM244 413l-32 -151h63z" />
<glyph unicode="&#xc6;" horiz-adv-x="597" d="M263 469l-43 -204h43v204zM164 0h-153l177 714h374v-178h-145v-94h139v-179h-139v-84h145v-179h-299v107h-76z" />
<glyph unicode="&#xc7;" horiz-adv-x="359" d="M12 358q0 158 65.5 261t185.5 103q35 0 63 -11v-190q-26 16 -64 16q-40 0 -61.5 -51.5t-21.5 -127.5t22 -131.5t61 -55.5q43 0 64 16v-188q-27 -9 -61 -9l-9 -37q16 -7 29 -23.5t13 -40.5q0 -25 -17 -44.5t-49 -19.5q-26 0 -43 14v75q14 -12 25 -12q22 0 22 22 q0 18 -21 29l10 40q-101 17 -157 118.5t-56 246.5z" />
<glyph unicode="&#xc8;" horiz-adv-x="363" d="M166 745l-64 104l44 32l64 -105zM331 536h-150v-92h141v-179h-141v-86h150v-179h-299v714h299v-178z" />
<glyph unicode="&#xc9;" horiz-adv-x="363" d="M240 847l-64 -104l-44 30l64 106zM331 536h-150v-92h141v-179h-141v-86h150v-179h-299v714h299v-178z" />
<glyph unicode="&#xca;" horiz-adv-x="363" d="M167 883h18l66 -111l-31 -29l-43 74l-47 -76l-32 31zM331 536h-150v-92h141v-179h-141v-86h150v-179h-299v714h299v-178z" />
<glyph unicode="&#xcb;" horiz-adv-x="363" d="M160 823q0 -30 -13.5 -52t-36.5 -22t-36 22t-13 52t13 52t36 22t36.5 -22t13.5 -52zM293 823q0 -30 -13 -52t-36 -22t-36 22t-13 52t13 52t36 22t36 -22t13 -52zM331 536h-150v-92h141v-179h-141v-86h150v-179h-299v714h299v-178z" />
<glyph unicode="&#xcc;" horiz-adv-x="218" d="M85 745l-65 104l44 32l65 -105zM185 0h-150v714h150v-714z" />
<glyph unicode="&#xcd;" horiz-adv-x="218" d="M197 847l-64 -104l-44 30l64 106zM185 0h-150v714h150v-714z" />
<glyph unicode="&#xce;" horiz-adv-x="218" d="M100 897h17l67 -111l-31 -29l-44 74l-47 -76l-31 31zM185 0h-150v714h150v-714z" />
<glyph unicode="&#xcf;" horiz-adv-x="218" d="M91 823q0 -30 -13.5 -52t-36.5 -22t-36 22t-13 52t13 52t36 22t36.5 -22t13.5 -52zM224 823q0 -30 -13 -52t-36 -22t-36 22t-13 52t13 52t36 22t36 -22t13 -52zM185 0h-150v714h150v-714z" />
<glyph unicode="&#xd0;" horiz-adv-x="478" d="M189 416h45v-100h-45v-121h21q42 0 65.5 49.5t23.5 117.5t-23.5 117t-65.5 49h-21v-112zM40 316h-38v100h38v298h161q82 0 143 -53.5t89 -133.5t28 -173q0 -92 -27.5 -171t-88 -131t-142.5 -52h-163v316z" />
<glyph unicode="&#xd1;" horiz-adv-x="510" d="M239 778q-2 1 -6.5 5.5l-6 6t-6 4.5t-7.5 4.5t-8 2.5t-10 1q-28 0 -43 -26l-35 46q29 49 74 49q33 0 58 -25q21 -19 44 -19q30 0 45 26l34 -46q-29 -50 -80 -50q-32 0 -53 21zM321 340v374h149v-714h-149l-137 348v-348h-150v714h139z" />
<glyph unicode="&#xd2;" horiz-adv-x="530" d="M242 745l-64 104l43 32l65 -105zM19 356q0 95 26 176.5t83.5 135.5t135.5 54t135.5 -54t84 -135.5t26.5 -176.5t-26.5 -176.5t-84 -135.5t-135.5 -54t-135.5 54t-83.5 135.5t-26 176.5zM344 356q0 75 -21 129.5t-59 54.5t-59 -54.5t-21 -129.5t21 -129.5t59 -54.5 t59 54.5t21 129.5z" />
<glyph unicode="&#xd3;" horiz-adv-x="530" d="M329 847l-65 -104l-44 30l65 106zM19 356q0 95 26 176.5t83.5 135.5t135.5 54t135.5 -54t84 -135.5t26.5 -176.5t-26.5 -176.5t-84 -135.5t-135.5 -54t-135.5 54t-83.5 135.5t-26 176.5zM344 356q0 75 -21 129.5t-59 54.5t-59 -54.5t-21 -129.5t21 -129.5t59 -54.5 t59 54.5t21 129.5z" />
<glyph unicode="&#xd4;" horiz-adv-x="530" d="M255 893h17l67 -111l-31 -29l-44 74l-47 -76l-31 31zM19 356q0 95 26 176.5t83.5 135.5t135.5 54t135.5 -54t84 -135.5t26.5 -176.5t-26.5 -176.5t-84 -135.5t-135.5 -54t-135.5 54t-83.5 135.5t-26 176.5zM344 356q0 75 -21 129.5t-59 54.5t-59 -54.5t-21 -129.5 t21 -129.5t59 -54.5t59 54.5t21 129.5z" />
<glyph unicode="&#xd5;" horiz-adv-x="530" d="M19 356q0 95 26 176.5t83.5 135.5t135.5 54t135.5 -54t84 -135.5t26.5 -176.5t-26.5 -176.5t-84 -135.5t-135.5 -54t-135.5 54t-83.5 135.5t-26 176.5zM344 356q0 75 -21 129.5t-59 54.5t-59 -54.5t-21 -129.5t21 -129.5t59 -54.5t59 54.5t21 129.5zM254 778 q-2 1 -6.5 5.5l-6 6t-6 4.5t-7.5 4.5t-8 2.5t-10 1q-28 0 -43 -26l-35 46q29 49 74 49q33 0 58 -25q21 -19 44 -19q30 0 45 26l34 -46q-29 -50 -80 -50q-32 0 -53 21z" />
<glyph unicode="&#xd6;" horiz-adv-x="530" d="M246 823q0 -30 -13.5 -52t-36.5 -22t-36 22t-13 52t13 52t36 22t36.5 -22t13.5 -52zM379 823q0 -30 -13 -52t-36 -22t-36 22t-13 52t13 52t36 22t36 -22t13 -52zM19 356q0 95 26 176.5t83.5 135.5t135.5 54t135.5 -54t84 -135.5t26.5 -176.5t-26.5 -176.5t-84 -135.5 t-135.5 -54t-135.5 54t-83.5 135.5t-26 176.5zM344 356q0 75 -21 129.5t-59 54.5t-59 -54.5t-21 -129.5t21 -129.5t59 -54.5t59 54.5t21 129.5z" />
<glyph unicode="&#xd7;" horiz-adv-x="564" d="M38 449l48 48l196 -197l197 197l48 -48l-197 -196l197 -197l-48 -48l-197 197l-196 -197l-48 48l196 197z" />
<glyph unicode="&#xd8;" horiz-adv-x="530" d="M510 356q0 -95 -26.5 -176.5t-84 -135.5t-135.5 -54q-52 0 -96 25l-14 -35h-65l29 73q-48 50 -73.5 131t-25.5 172q0 95 26 176.5t83.5 135.5t135.5 54q61 0 110 -33l18 46h66l-36 -89q88 -104 88 -290zM235 182q15 -10 29 -10q38 0 59 54.5t21 129.5q0 43 -7 78z M264 540q-38 0 -59 -54.5t-21 -129.5q0 -62 13 -107l108 269q-17 22 -41 22z" />
<glyph unicode="&#xd9;" horiz-adv-x="437" d="M206 745l-64 104l43 32l65 -105zM176 248q0 -28 11 -42t28 -14q39 0 39 56v466h149v-503q0 -108 -51.5 -163t-136.5 -55t-136.5 55t-51.5 163v503h149v-466z" />
<glyph unicode="&#xda;" horiz-adv-x="437" d="M292 847l-64 -104l-44 30l64 106zM176 248q0 -28 11 -42t28 -14q39 0 39 56v466h149v-503q0 -108 -51.5 -163t-136.5 -55t-136.5 55t-51.5 163v503h149v-466z" />
<glyph unicode="&#xdb;" horiz-adv-x="437" d="M207 877h17l67 -111l-31 -29l-44 74l-47 -76l-31 31zM176 248q0 -28 11 -42t28 -14q39 0 39 56v466h149v-503q0 -108 -51.5 -163t-136.5 -55t-136.5 55t-51.5 163v503h149v-466z" />
<glyph unicode="&#xdc;" horiz-adv-x="437" d="M196 823q0 -30 -13.5 -52t-36.5 -22t-36 22t-13 52t13 52t36 22t36.5 -22t13.5 -52zM329 823q0 -30 -13 -52t-36 -22t-36 22t-13 52t13 52t36 22t36 -22t13 -52zM176 248q0 -28 11 -42t28 -14q39 0 39 56v466h149v-503q0 -108 -51.5 -163t-136.5 -55t-136.5 55t-51.5 163 v503h149v-466z" />
<glyph unicode="&#xdd;" horiz-adv-x="452" d="M162 714l62 -178l61 178h158l-145 -387v-327h-152v327l-136 387h152zM300 847l-64 -104l-44 30l64 106z" />
<glyph unicode="&#xde;" horiz-adv-x="415" d="M393 371q0 -112 -42 -168t-119 -56h-48v-147h-153v714h153v-118h48q77 0 119 -56.5t42 -168.5zM184 309h24q35 0 35 62t-35 62h-24v-124z" />
<glyph unicode="&#xdf;" horiz-adv-x="530" d="M261 723q80 0 139 -49t59 -137q0 -97 -43 -127q51 -15 75 -56t24 -117q0 -237 -171 -237h-93v184h37q34 0 50 18t16 59q0 44 -19.5 58t-76.5 14v126q26 0 35.5 14t9.5 45q0 53 -45 53q-25 0 -39 -17t-14 -47v-507h-149v337h-37v153h37v32q0 83 58.5 142t146.5 59z" />
<glyph unicode="&#xe0;" d="M193 546l-72 116l48 35l72 -116zM255 251q0 38 -13.5 65.5t-36.5 27.5q-24 0 -37 -27.5t-13 -65.5q0 -39 12.5 -66t37.5 -27q23 0 36.5 27.5t13.5 65.5zM404 490v-490h-146v56q-26 -66 -90 -66q-48 0 -82.5 37.5t-50.5 93.5t-16 121q0 103 39 178t110 75q64 0 90 -58v53 h146z" />
<glyph unicode="&#xe1;" d="M303 662l-71 -116l-48 35l71 116zM255 251q0 38 -13.5 65.5t-36.5 27.5q-24 0 -37 -27.5t-13 -65.5q0 -39 12.5 -66t37.5 -27q23 0 36.5 27.5t13.5 65.5zM404 490v-490h-146v56q-26 -66 -90 -66q-48 0 -82.5 37.5t-50.5 93.5t-16 121q0 103 39 178t110 75q64 0 90 -58v53 h146z" />
<glyph unicode="&#xe2;" d="M206 713h23l82 -137l-38 -37l-55 94l-58 -96l-40 39zM255 251q0 38 -13.5 65.5t-36.5 27.5q-24 0 -37 -27.5t-13 -65.5q0 -39 12.5 -66t37.5 -27q23 0 36.5 27.5t13.5 65.5zM404 490v-490h-146v56q-26 -66 -90 -66q-48 0 -82.5 37.5t-50.5 93.5t-16 121q0 103 39 178 t110 75q64 0 90 -58v53h146z" />
<glyph unicode="&#xe3;" d="M214 592q-2 1 -6.5 5.5l-6 6t-6 4.5t-7.5 4.5t-8 2.5t-10 1q-28 0 -43 -26l-35 46q29 49 74 49q33 0 58 -25q21 -19 44 -19q30 0 45 26l34 -46q-29 -50 -80 -50q-32 0 -53 21zM255 251q0 38 -13.5 65.5t-36.5 27.5q-24 0 -37 -27.5t-13 -65.5q0 -39 12.5 -66t37.5 -27 q23 0 36.5 27.5t13.5 65.5zM404 490v-490h-146v56q-26 -66 -90 -66q-48 0 -82.5 37.5t-50.5 93.5t-16 121q0 103 39 178t110 75q64 0 90 -58v53h146z" />
<glyph unicode="&#xe4;" d="M204 633q0 -43 -19 -74.5t-52 -31.5t-52 31.5t-19 74.5t19 74.5t52 31.5t52 -31.5t19 -74.5zM386 633q0 -43 -18.5 -74.5t-51.5 -31.5q-34 0 -52.5 31.5t-18.5 74.5t18.5 74.5t52.5 31.5q33 0 51.5 -31.5t18.5 -74.5zM255 251q0 38 -13.5 65.5t-36.5 27.5 q-24 0 -37 -27.5t-13 -65.5q0 -39 12.5 -66t37.5 -27q23 0 36.5 27.5t13.5 65.5zM404 490v-490h-146v56q-26 -66 -90 -66q-48 0 -82.5 37.5t-50.5 93.5t-16 121q0 103 39 178t110 75q64 0 90 -58v53h146z" />
<glyph unicode="&#xe5;" d="M174 630q0 -27 10.5 -46.5t28.5 -19.5t28.5 19.5t10.5 46.5q0 28 -10.5 47.5t-28.5 19.5t-28.5 -19.5t-10.5 -47.5zM141 631q0 40 19 69.5t53 29.5q33 0 51.5 -29.5t18.5 -69.5t-18.5 -69t-51.5 -29q-34 0 -53 29t-19 69zM255 251q0 38 -13.5 65.5t-36.5 27.5 q-24 0 -37 -27.5t-13 -65.5q0 -39 12.5 -66t37.5 -27q23 0 36.5 27.5t13.5 65.5zM404 490v-490h-146v56q-26 -66 -90 -66q-48 0 -82.5 37.5t-50.5 93.5t-16 121q0 103 39 178t110 75q64 0 90 -58v53h146z" />
<glyph unicode="&#xe6;" horiz-adv-x="666" d="M255 251q0 38 -13.5 65.5t-36.5 27.5q-24 0 -37 -27.5t-13 -65.5q0 -39 12.5 -66t37.5 -27q23 0 36.5 27.5t13.5 65.5zM464 497q92 0 138.5 -75t46.5 -185v-21h-223q0 -102 44 -102q34 0 40 49l136 -25q-42 -148 -183 -148q-61 0 -106 42v-32h-99v56q-26 -66 -90 -66 q-48 0 -82.5 37.5t-50.5 93.5t-16 121q0 103 39 178t110 75q64 0 90 -58v53h99v-36q45 43 107 43zM510 310q0 23 -10 41.5t-31 18.5t-31 -19t-10 -41h82z" />
<glyph unicode="&#xe7;" horiz-adv-x="276" d="M9 241q0 66 16.5 122.5t52 94t83.5 37.5q55 0 92 -28v-150q-23 29 -47 29q-26 0 -40 -29.5t-14 -70.5t14 -71.5t40 -30.5q34 0 47 33v-154q-27 -30 -73 -33l-6 -33q25 -22 25 -50q0 -22 -14 -38t-35 -16q-25 0 -41 18v43q12 -12 24 -12q20 0 20 19q0 17 -18 33l8 36 q-64 10 -99 82.5t-35 168.5z" />
<glyph unicode="&#xe8;" horiz-adv-x="385" d="M187 546l-72 116l48 35l72 -116zM154 216q0 -102 44 -102q34 0 40 49l136 -25q-43 -154 -183 -154q-86 0 -134 76t-48 180t48.5 180.5t134.5 76.5q92 0 138.5 -75t46.5 -185v-21h-223zM238 310q0 23 -10 41.5t-31 18.5t-31 -19t-10 -41h82z" />
<glyph unicode="&#xe9;" horiz-adv-x="385" d="M274 662l-71 -116l-48 35l72 116zM154 216q0 -102 44 -102q34 0 40 49l136 -25q-43 -154 -183 -154q-86 0 -134 76t-48 180t48.5 180.5t134.5 76.5q92 0 138.5 -75t46.5 -185v-21h-223zM238 310q0 23 -10 41.5t-31 18.5t-31 -19t-10 -41h82z" />
<glyph unicode="&#xea;" horiz-adv-x="385" d="M184 713h22l83 -137l-38 -37l-55 94l-58 -96l-40 39zM154 216q0 -102 44 -102q34 0 40 49l136 -25q-43 -154 -183 -154q-86 0 -134 76t-48 180t48.5 180.5t134.5 76.5q92 0 138.5 -75t46.5 -185v-21h-223zM238 310q0 23 -10 41.5t-31 18.5t-31 -19t-10 -41h82z" />
<glyph unicode="&#xeb;" horiz-adv-x="385" d="M174 633q0 -43 -19 -74.5t-52 -31.5t-52 31.5t-19 74.5t19 74.5t52 31.5t52 -31.5t19 -74.5zM356 633q0 -43 -18.5 -74.5t-51.5 -31.5q-34 0 -52.5 31.5t-18.5 74.5t18.5 74.5t52.5 31.5q33 0 51.5 -31.5t18.5 -74.5zM154 216q0 -102 44 -102q34 0 40 49l136 -25 q-43 -154 -183 -154q-86 0 -134 76t-48 180t48.5 180.5t134.5 76.5q92 0 138.5 -75t46.5 -185v-21h-223zM238 310q0 23 -10 41.5t-31 18.5t-31 -19t-10 -41h82z" />
<glyph unicode="&#xec;" horiz-adv-x="214" d="M83 546l-72 116l48 35l72 -116zM176 490v-490h-133v490h133z" />
<glyph unicode="&#xed;" horiz-adv-x="214" d="M203 662l-71 -116l-48 35l71 116zM176 490v-490h-133v490h133z" />
<glyph unicode="&#xee;" horiz-adv-x="214" d="M96 713h22l83 -137l-38 -37l-55 94l-58 -96l-40 39zM176 490v-490h-133v490h133z" />
<glyph unicode="&#xef;" horiz-adv-x="214" d="M176 490v-490h-133v490h133zM96 637q0 -39 -17 -67t-47 -28t-47 28t-17 67t17 67t47 28t47 -28t17 -67zM260 637q0 -39 -17 -67t-46 -28q-30 0 -47 28t-17 67t17 67t47 28q29 0 46 -28t17 -67z" />
<glyph unicode="&#xf0;" horiz-adv-x="400" d="M249 243q0 38 -12.5 65.5t-35.5 27.5t-35.5 -27.5t-12.5 -65.5t12.5 -65.5t35.5 -27.5t35.5 27.5t12.5 65.5zM216 498q-15 40 -41 71l-65 -56l-55 54l62 55q-38 31 -90 56l71 100q76 -35 115 -71l62 55l56 -56l-59 -51q115 -110 115 -413q0 -62 -20 -119t-63.5 -96.5 t-102.5 -39.5q-60 0 -103.5 38t-63.5 95t-20 123t20 123t63.5 95t103.5 38q10 0 15 -1z" />
<glyph unicode="&#xf1;" horiz-adv-x="433" d="M214 592q-2 1 -6.5 5.5l-6 6t-6 4.5t-7.5 4.5t-8 2.5t-10 1q-28 0 -43 -26l-35 46q29 49 74 49q33 0 58 -25q21 -19 44 -19q30 0 45 26l34 -46q-29 -50 -80 -50q-32 0 -53 21zM34 0v490h149v-70q35 78 113 78q109 0 109 -172v-326h-149v277q0 66 -37 66q-36 0 -36 -66 v-277h-149z" />
<glyph unicode="&#xf2;" horiz-adv-x="400" d="M187 546l-72 116l48 35l72 -116zM387 243q0 -104 -49 -180t-137 -76q-60 0 -103.5 38t-63.5 95t-20 123t20 123t63.5 95t103.5 38q88 0 137 -76t49 -180zM249 243q0 38 -12.5 65.5t-35.5 27.5t-35.5 -27.5t-12.5 -65.5t12.5 -65.5t35.5 -27.5t35.5 27.5t12.5 65.5z" />
<glyph unicode="&#xf3;" horiz-adv-x="400" d="M287 662l-72 -116l-48 35l72 116zM387 243q0 -104 -49 -180t-137 -76q-60 0 -103.5 38t-63.5 95t-20 123t20 123t63.5 95t103.5 38q88 0 137 -76t49 -180zM249 243q0 38 -12.5 65.5t-35.5 27.5t-35.5 -27.5t-12.5 -65.5t12.5 -65.5t35.5 -27.5t35.5 27.5t12.5 65.5z" />
<glyph unicode="&#xf4;" horiz-adv-x="400" d="M184 713h22l83 -137l-38 -37l-55 94l-58 -96l-40 39zM387 243q0 -104 -49 -180t-137 -76q-60 0 -103.5 38t-63.5 95t-20 123t20 123t63.5 95t103.5 38q88 0 137 -76t49 -180zM249 243q0 38 -12.5 65.5t-35.5 27.5t-35.5 -27.5t-12.5 -65.5t12.5 -65.5t35.5 -27.5 t35.5 27.5t12.5 65.5z" />
<glyph unicode="&#xf5;" horiz-adv-x="400" d="M186 592q-2 1 -6.5 5.5l-6 6t-6 4.5t-7.5 4.5t-8 2.5t-10 1q-28 0 -43 -26l-35 46q29 49 74 49q33 0 58 -25q21 -19 44 -19q30 0 45 26l34 -46q-29 -50 -80 -50q-32 0 -53 21zM387 243q0 -104 -49 -180t-137 -76q-60 0 -103.5 38t-63.5 95t-20 123t20 123t63.5 95 t103.5 38q88 0 137 -76t49 -180zM249 243q0 38 -12.5 65.5t-35.5 27.5t-35.5 -27.5t-12.5 -65.5t12.5 -65.5t35.5 -27.5t35.5 27.5t12.5 65.5z" />
<glyph unicode="&#xf6;" horiz-adv-x="400" d="M174 633q0 -43 -19 -74.5t-52 -31.5t-52 31.5t-19 74.5t19 74.5t52 31.5t52 -31.5t19 -74.5zM356 633q0 -43 -18.5 -74.5t-51.5 -31.5q-34 0 -52.5 31.5t-18.5 74.5t18.5 74.5t52.5 31.5q33 0 51.5 -31.5t18.5 -74.5zM387 243q0 -104 -49 -180t-137 -76q-60 0 -103.5 38 t-63.5 95t-20 123t20 123t63.5 95t103.5 38q88 0 137 -76t49 -180zM249 243q0 38 -12.5 65.5t-35.5 27.5t-35.5 -27.5t-12.5 -65.5t12.5 -65.5t35.5 -27.5t35.5 27.5t12.5 65.5z" />
<glyph unicode="&#xf7;" horiz-adv-x="279" d="M261 376v-124h-238v124h238zM67 97q0 42 20 73t55 31t55 -31t20 -73t-20 -73t-55 -31t-55 31t-20 73zM67 525q0 42 20 73t55 31t55 -31t20 -73t-20 -73t-55 -31t-55 31t-20 73z" />
<glyph unicode="&#xf8;" horiz-adv-x="400" d="M130 3l-10 -26h-43l19 49q-40 35 -61 93t-21 124t20 123t63.5 95t103.5 38q37 0 69 -15l10 28h43l-19 -50q40 -34 61.5 -93t21.5 -126q0 -104 -49 -180t-137 -76q-37 0 -71 16zM249 243q0 38 -12.5 65.5t-35.5 27.5t-35.5 -27.5t-12.5 -65.5t12.5 -65.5t35.5 -27.5 t35.5 27.5t12.5 65.5z" />
<glyph unicode="&#xf9;" horiz-adv-x="411" d="M181 546l-72 116l48 35l72 -116zM174 490v-275q0 -57 33 -57q34 0 34 57v275h146v-298q0 -87 -45.5 -145t-134.5 -58t-133.5 57.5t-44.5 145.5v298h145z" />
<glyph unicode="&#xfa;" horiz-adv-x="411" d="M297 662l-71 -116l-48 35l71 116zM174 490v-275q0 -57 33 -57q34 0 34 57v275h146v-298q0 -87 -45.5 -145t-134.5 -58t-133.5 57.5t-44.5 145.5v298h145z" />
<glyph unicode="&#xfb;" horiz-adv-x="411" d="M196 713h22l83 -137l-38 -37l-55 94l-58 -96l-40 39zM174 490v-275q0 -57 33 -57q34 0 34 57v275h146v-298q0 -87 -45.5 -145t-134.5 -58t-133.5 57.5t-44.5 145.5v298h145z" />
<glyph unicode="&#xfc;" horiz-adv-x="411" d="M187 633q0 -43 -19 -74.5t-52 -31.5t-52 31.5t-19 74.5t19 74.5t52 31.5t52 -31.5t19 -74.5zM369 633q0 -43 -18.5 -74.5t-51.5 -31.5q-34 0 -52.5 31.5t-18.5 74.5t18.5 74.5t52.5 31.5q33 0 51.5 -31.5t18.5 -74.5zM174 490v-275q0 -57 33 -57q34 0 34 57v275h146v-298 q0 -87 -45.5 -145t-134.5 -58t-133.5 57.5t-44.5 145.5v298h145z" />
<glyph unicode="&#xfd;" horiz-adv-x="401" d="M200 304l45 186h151l-199 -690h-147l78 270l-120 420h153zM274 662l-71 -116l-48 35l71 116z" />
<glyph unicode="&#xfe;" horiz-adv-x="438" d="M38 -203v942h149v-308q16 31 36 48.5t54 17.5q68 0 106 -75.5t38 -179.5q0 -103 -38 -178.5t-106 -75.5q-28 0 -47.5 10.5t-26.5 20t-16 27.5v-249h-149zM183 240q0 -36 13 -62t36 -26t35.5 26t12.5 62t-12.5 62t-35.5 26t-36 -26t-13 -62z" />
<glyph unicode="&#xff;" horiz-adv-x="401" d="M184 632q0 -43 -19 -74.5t-52 -31.5t-52 31.5t-19 74.5t19 74.5t52 31.5t52 -31.5t19 -74.5zM366 632q0 -43 -18.5 -74.5t-51.5 -31.5q-34 0 -52.5 31.5t-18.5 74.5t18.5 74.5t52.5 31.5q33 0 51.5 -31.5t18.5 -74.5zM200 304l45 186h151l-199 -690h-147l78 270l-120 420 h153z" />
<glyph unicode="&#x131;" horiz-adv-x="218" d="M36 490h149v-490h-149v490z" />
<glyph unicode="&#x141;" horiz-adv-x="354" d="M32 330v384h150v-272l46 46v-131l-46 -46v-132h143v-179h-293v199l-30 -31v131z" />
<glyph unicode="&#x142;" horiz-adv-x="220" d="M37 335v405h149v-291l31 31v-131l-31 -31v-318h-149v204l-35 -36v131z" />
<glyph unicode="&#x152;" horiz-adv-x="760" d="M439 714h299v-178h-150v-92h141v-179h-141v-86h150v-179h-299v89q-68 -99 -175 -99q-78 0 -135.5 54t-83.5 135.5t-26 176.5t26 176.5t83.5 135.5t135.5 54q108 0 175 -100v92zM344 356q0 75 -21 129.5t-59 54.5t-59 -54.5t-21 -129.5t21 -129.5t59 -54.5t59 54.5 t21 129.5z" />
<glyph unicode="&#x153;" horiz-adv-x="626" d="M424 499q62 0 105 -38t61.5 -95.5t18.5 -128.5v-21h-223q0 -102 44 -102q34 0 40 49l136 -25q-43 -154 -183 -154q-66 0 -111 48q-47 -45 -111 -45q-60 0 -103.5 38t-63.5 95t-20 123t20 123t63.5 95t103.5 38q66 0 113 -47q45 47 110 47zM249 243q0 38 -12.5 65.5 t-35.5 27.5t-35.5 -27.5t-12.5 -65.5t12.5 -65.5t35.5 -27.5t35.5 27.5t12.5 65.5zM470 310q0 23 -10 41.5t-31 18.5t-31 -19t-10 -41h82z" />
<glyph unicode="&#x160;" horiz-adv-x="409" d="M383 225q0 -94 -50.5 -162.5t-141.5 -68.5q-42 0 -79.5 17t-56.5 34t-42 43l31 148q30 -26 41.5 -35t37 -22.5t45.5 -13.5q24 0 38 13.5t14 31.5q0 33 -45 49q-81 27 -118 82.5t-37 144.5q0 99 47 165.5t128 66.5q113 0 172 -65l-31 -154q-63 50 -124 50q-14 0 -26 -13.5 t-12 -29.5q0 -34 52 -48q77 -20 117 -85t40 -148zM214 746h-22l-84 138l38 37l55 -94l58 96l40 -39z" />
<glyph unicode="&#x161;" horiz-adv-x="337" d="M279 338q-51 22 -79 22q-36 0 -36 -21q0 -11 9 -17.5t32 -11.5q58 -13 89.5 -56.5t31.5 -98.5q0 -72 -45.5 -119.5t-129.5 -47.5q-74 0 -141 63l37 103q47 -30 89 -30q30 0 30 23q0 25 -44 38q-95 29 -95 148q0 66 37 114t105 48q55 0 83.5 -8t55.5 -24zM184 521h-22 l-84 138l38 37l55 -94l58 96l40 -39z" />
<glyph unicode="&#x178;" horiz-adv-x="452" d="M208 823q0 -30 -13.5 -52t-36.5 -22t-36 22t-13 52t13 52t36 22t36.5 -22t13.5 -52zM341 823q0 -30 -13 -52t-36 -22t-36 22t-13 52t13 52t36 22t36 -22t13 -52zM162 714l62 -178l61 178h158l-145 -387v-327h-152v327l-136 387h152z" />
<glyph unicode="&#x17d;" horiz-adv-x="495" d="M482 714l-216 -525h205v-189h-461l225 526h-192v188h439zM264 746h-22l-84 138l38 37l55 -94l58 96l40 -39z" />
<glyph unicode="&#x17e;" horiz-adv-x="371" d="M346 490l-110 -311h110v-179h-318l112 315h-110v175h316zM199 521h-22l-84 138l38 37l55 -94l58 96l40 -39z" />
<glyph unicode="&#x192;" horiz-adv-x="435" d="M396 551v-551h-358v551h358z" />
<glyph unicode="&#x2c6;" horiz-adv-x="265" d="M129 713h22l83 -137l-38 -37l-55 94l-58 -96l-40 39z" />
<glyph unicode="&#x2c7;" horiz-adv-x="276" d="M149 501h-22l-84 138l38 37l55 -94l58 96l40 -39z" />
<glyph unicode="&#x2d8;" horiz-adv-x="235" d="M198 588q-28 -47 -76 -47q-47 0 -75 47l19 18q22 -33 54 -33t61 33z" />
<glyph unicode="&#x2d9;" horiz-adv-x="240" d="M67 624q0 37 17 63t47 26t47 -26t17 -63q0 -36 -17 -62.5t-47 -26.5t-47 26.5t-17 62.5z" />
<glyph unicode="&#x2da;" horiz-adv-x="391" d="M84 630q0 -27 10.5 -46.5t28.5 -19.5t28.5 19.5t10.5 46.5q0 28 -10.5 47.5t-28.5 19.5t-28.5 -19.5t-10.5 -47.5zM51 631q0 40 19 69.5t53 29.5q33 0 51.5 -29.5t18.5 -69.5t-18.5 -69t-51.5 -29q-34 0 -53 29t-19 69z" />
<glyph unicode="&#x2db;" horiz-adv-x="209" d="M101 -54q0 -44 26 -44q13 0 26 13v-43q-4 -9 -16 -16t-26 -7q-20 0 -35.5 19.5t-15.5 55.5q0 18 3 32.5t5.5 21t7 13.5t5.5 9h35q-15 -22 -15 -54z" />
<glyph unicode="&#x2dc;" horiz-adv-x="327" d="M164 592q-2 1 -6.5 5.5l-6 6t-6 4.5t-7.5 4.5t-8 2.5t-10 1q-28 0 -43 -26l-35 46q29 49 74 49q33 0 58 -25q21 -19 44 -19q30 0 45 26l34 -46q-29 -50 -80 -50q-32 0 -53 21z" />
<glyph unicode="&#x2dd;" horiz-adv-x="268" d="M146 692l-50 -127l-54 26l50 126zM243 692l-50 -127l-54 26l50 126z" />
<glyph unicode="&#x3c0;" horiz-adv-x="282" d="M260 406v-46h-234v46h234zM67 673q0 104 78 104q79 0 79 -84q0 -57 -34 -72q41 -11 41 -76q0 -47 -24 -75.5t-60 -28.5q-82 0 -82 105h61q0 -27 19 -27q17 0 17 32q0 19 -5.5 25t-21.5 6v67q16 0 21.5 5.5t5.5 20.5t-4 20.5t-14 5.5q-16 0 -16 -28h-61zM207 326v-188h22 v-82h-22v-58h-69v58h-99v75l71 195h97zM138 138v92l-30 -92h30z" />
<glyph unicode="&#x2013;" horiz-adv-x="481" d="M430 336v-153h-383v153h383z" />
<glyph unicode="&#x2014;" horiz-adv-x="627" d="M586 336v-153h-539v153h539z" />
<glyph unicode="&#x2018;" horiz-adv-x="146" d="M86 584q0 -16 5 -28.5t8 -17t14 -15.5l-33 -41q-15 15 -22.5 23t-16.5 30t-9 49v148h82v-104h-28v-44z" />
<glyph unicode="&#x2019;" horiz-adv-x="156" d="M39 628v104h82v-148q0 -27 -9 -49t-16.5 -30t-22.5 -23l-33 41q11 11 14 15.5t8 17t5 28.5v44h-28z" />
<glyph unicode="&#x201a;" horiz-adv-x="155" d="M38 64v104h82v-148q0 -27 -9 -49t-16.5 -30t-22.5 -23l-33 41q11 11 14 15.5t8 17t5 28.5v44h-28z" />
<glyph unicode="&#x201c;" horiz-adv-x="276" d="M92 584q0 -16 5 -28.5t8 -17t14 -15.5l-33 -41q-15 15 -22.5 23t-16.5 30t-9 49v148h82v-104h-28v-44zM214 584q0 -16 5 -28.5t8 -17t14 -15.5l-33 -41q-15 15 -22.5 23t-16.5 30t-9 49v148h82v-104h-28v-44z" />
<glyph unicode="&#x201d;" horiz-adv-x="275" d="M160 628v104h82v-148q0 -27 -9 -49t-16.5 -30t-22.5 -23l-33 41q11 11 14 15.5t8 17t5 28.5v44h-28zM38 628v104h82v-148q0 -27 -9 -49t-16.5 -30t-22.5 -23l-33 41q11 11 14 15.5t8 17t5 28.5v44h-28z" />
<glyph unicode="&#x201e;" horiz-adv-x="275" d="M160 64v104h82v-148q0 -27 -9 -49t-16.5 -30t-22.5 -23l-33 41q11 11 14 15.5t8 17t5 28.5v44h-28zM38 64v104h82v-148q0 -27 -9 -49t-16.5 -30t-22.5 -23l-33 41q11 11 14 15.5t8 17t5 28.5v44h-28z" />
<glyph unicode="&#x2020;" horiz-adv-x="146" d="M96 736v-162h50v-27h-50v-388h-27v388h-50v27h50v162h27z" />
<glyph unicode="&#x2021;" horiz-adv-x="146" d="M19 562v28h50v146h27v-146h50v-28h-50v-103h50v-27h-50v-318h-27v318h-50v27h50v103h-50z" />
<glyph unicode="&#x2022;" horiz-adv-x="324" d="M288 272q0 -72 -33 -125t-91 -53t-91 53t-33 125t33 125t91 53t91 -53t33 -125z" />
<glyph unicode="&#x2026;" horiz-adv-x="1038" d="M97 97q0 42 20 73t55 31t55 -31t20 -73t-20 -73t-55 -31t-55 31t-20 73zM439 97q0 42 20 73t55 31t55 -31t20 -73t-20 -73t-55 -31t-55 31t-20 73zM781 97q0 42 20 73t55 31t55 -31t20 -73t-20 -73t-55 -31t-55 31t-20 73z" />
<glyph unicode="&#x2030;" horiz-adv-x="607" d="M102 0h-60l278 714h61zM390 144q0 -60 -22.5 -104.5t-63.5 -44.5q-40 0 -63 44.5t-23 104.5q0 61 23 105.5t63 44.5q41 0 63.5 -44.5t22.5 -105.5zM278 144q0 -66 26 -66t26 66q0 67 -26 67t-26 -67zM196 572q0 -60 -22.5 -104.5t-63.5 -44.5q-40 0 -63 44.5t-23 104.5 q0 61 23 105.5t63 44.5q41 0 63.5 -44.5t22.5 -105.5zM84 572q0 -66 26 -66t26 66q0 67 -26 67t-26 -67zM589 144q0 -60 -22.5 -104.5t-63.5 -44.5q-40 0 -63 44.5t-23 104.5q0 61 23 105.5t63 44.5q41 0 63.5 -44.5t22.5 -105.5zM477 144q0 -66 26 -66t26 66q0 67 -26 67 t-26 -67z" />
<glyph unicode="&#x2039;" horiz-adv-x="229" d="M159 85l-149 180v82l149 181l61 -60l-127 -162l127 -153z" />
<glyph unicode="&#x203a;" horiz-adv-x="229" d="M6 468l61 60l149 -181v-82l-149 -180l-61 68l128 153z" />
<glyph unicode="&#x2044;" horiz-adv-x="361" d="M68 -46h-60l292 791h60z" />
<glyph unicode="&#x2122;" horiz-adv-x="272" d="M119 721v-25h-39v-166h-17v166h-40v25h96zM143 724l40 -141l40 141l27 -193h-17l-14 120l-36 -131l-36 134l-15 -123h-17z" />
<glyph unicode="&#x2202;" horiz-adv-x="282" d="M260 406v-46h-234v46h234zM185 776v-328h-68v246h-22v82h90zM60 221q0 104 78 104q79 0 79 -84q0 -57 -34 -72q41 -11 41 -76q0 -47 -24 -75.5t-60 -28.5q-82 0 -82 105h61q0 -27 19 -27q17 0 17 32q0 19 -5.5 25t-21.5 6v67q16 0 21.5 5.5t5.5 20.5t-4 20.5t-14 5.5 q-16 0 -16 -28h-61z" />
<glyph unicode="&#x220f;" horiz-adv-x="276" d="M260 406v-46h-234v46h234zM64 666q0 112 84 112q85 0 85 -96q0 -32 -12.5 -64t-24.5 -48t-32 -40h69v-82h-176v54l32 37q72 89 72 144q0 27 -18 27q-19 0 -19 -44h-60zM62 222q0 104 78 104q79 0 79 -84q0 -57 -34 -72q41 -11 41 -76q0 -47 -24 -75.5t-60 -28.5 q-82 0 -82 105h61q0 -27 19 -27q17 0 17 32q0 19 -5.5 25t-21.5 6v67q16 0 21.5 5.5t5.5 20.5t-4 20.5t-14 5.5q-16 0 -16 -28h-61z" />
<glyph unicode="&#x2211;" horiz-adv-x="282" d="M260 406v-46h-234v46h234zM185 774v-328h-68v246h-22v82h90zM210 328v-188h22v-82h-22v-58h-69v58h-99v75l71 195h97zM141 140v92l-30 -92h30z" />
<glyph unicode="&#x2212;" horiz-adv-x="455" d="M400 298v-54h-344v54h344z" />
<glyph unicode="&#x221a;" horiz-adv-x="419" d="M71 269q25 -78 36 -180q19 79 119.5 261t161.5 237v-158q-85 -65 -162.5 -183t-122.5 -251q-25 74 -43 113.5t-38 56.5z" />
<glyph unicode="&#x222b;" horiz-adv-x="514" d="M483 689v-688h-448v688h448zM441 644h-368v-598h368v598z" />
<glyph unicode="&#x2248;" horiz-adv-x="776" d="M324 268h122v123h-122v-123zM284 530q0 45 -26 74.5t-74 29.5q-46 0 -75 -27.5t-29 -75.5q0 -45 28.5 -72.5t76.5 -27.5h99v99zM184 391q-62 0 -102.5 40t-40.5 102q0 58 40.5 99t99.5 41q69 0 106 -40t37 -102v-100h122v100q0 62 38 102t105 40q60 0 100 -40t40 -100 t-41.5 -101t-101.5 -41h-100v-123h100q60 0 101.5 -40.5t41.5 -101.5q0 -59 -40 -99t-100 -40q-68 0 -105.5 39.5t-37.5 101.5v100h-122v-100q0 -62 -37 -101.5t-106 -39.5q-60 0 -100 39.5t-40 99.5q0 61 42 101.5t101 40.5h100v123h-100zM585 431q48 0 76.5 27.5 t28.5 72.5q0 48 -29 75.5t-75 27.5q-48 0 -74 -29.5t-26 -74.5v-99h99zM185 228q-48 0 -76.5 -27.5t-28.5 -72.5q0 -48 29 -75.5t75 -27.5q48 0 74 29.5t26 74.5v99h-99zM486 129q0 -45 26 -74.5t74 -29.5q46 0 75 27.5t29 75.5q0 45 -28.5 72.5t-76.5 27.5h-99v-99z" />
<glyph unicode="&#x2260;" horiz-adv-x="302" d="M47 327v91h106l14 72h52l-14 -72h52v-91h-70l-16 -82h86v-92h-104l-12 -61h-52l12 61h-54v92h72l17 82h-89z" />
<glyph unicode="&#x2264;" horiz-adv-x="246" d="M43 65v128h170v-128h-170zM218 694v-153l-96 -87l91 -87v-153l-170 164v153z" />
<glyph unicode="&#x2265;" horiz-adv-x="246" d="M212 188v-128h-170v128h170zM42 209v153l92 87l-97 87v153l175 -163v-154z" />
<glyph unicode="&#x25ca;" horiz-adv-x="351" d="M176 423l-93 -146l91 -137l93 143zM29 279l147 228l146 -224l-148 -228z" />
<glyph unicode="&#xe000;" horiz-adv-x="490" d="M0 490h490v-490h-490v490z" />
<glyph unicode="&#xe001;" horiz-adv-x="0" />
<glyph unicode="&#xe002;" horiz-adv-x="0" />
<glyph unicode="&#xe003;" horiz-adv-x="795" d="M275 530q57 0 91 -24q40 -27 60 -27q33 0 66 27q31 25 84 25q45 0 87.5 -20t48.5 -48q-40 -30 -60 -59.5t-20 -76.5q0 -54 30 -92t72 -50q-13 -31 -29 -60t-41 -63t-58.5 -54.5t-69.5 -20.5q-46 0 -73 33q-13 16 -39 16q-27 0 -40 -16q-25 -31 -66 -31q-26 0 -65.5 28 t-77 73.5t-64.5 111.5t-27 133q0 86 52 140.5t139 54.5zM534 669q10 0 10 -9q0 -43 -38 -92.5t-83 -49.5q-12 0 -12 17q0 46 41 90t82 44z" />
<glyph unicode="&#xe004;" horiz-adv-x="306" />
</font>
</defs>
</svg>
