<?xml version="1.0" encoding="UTF-8" standalone="no"?>
<!-- Created with Inkscape (http://www.inkscape.org/) -->

<svg
   xmlns:dc="http://purl.org/dc/elements/1.1/"
   xmlns:cc="http://creativecommons.org/ns#"
   xmlns:rdf="http://www.w3.org/1999/02/22-rdf-syntax-ns#"
   xmlns:svg="http://www.w3.org/2000/svg"
   xmlns="http://www.w3.org/2000/svg"
   xmlns:sodipodi="http://sodipodi.sourceforge.net/DTD/sodipodi-0.dtd"
   xmlns:inkscape="http://www.inkscape.org/namespaces/inkscape"
   width="744.09448819"
   height="1052.3622047"
   id="svg2"
   version="1.1"
   inkscape:version="0.47 r22583"
   sodipodi:docname="icons.svg"
   inkscape:export-filename="C:\Users\a\Desktop\june\icons.png"
   inkscape:export-xdpi="72.00943"
   inkscape:export-ydpi="72.00943">
  <defs
     id="defs4">
    <inkscape:perspective
       sodipodi:type="inkscape:persp3d"
       inkscape:vp_x="0 : 526.18109 : 1"
       inkscape:vp_y="0 : 1000 : 0"
       inkscape:vp_z="744.09448 : 526.18109 : 1"
       inkscape:persp3d-origin="372.04724 : 350.78739 : 1"
       id="perspective10" />
    <inkscape:perspective
       id="perspective2844"
       inkscape:persp3d-origin="0.5 : 0.33333333 : 1"
       inkscape:vp_z="1 : 0.5 : 1"
       inkscape:vp_y="0 : 1000 : 0"
       inkscape:vp_x="0 : 0.5 : 1"
       sodipodi:type="inkscape:persp3d" />
  </defs>
  <sodipodi:namedview
     id="base"
     pagecolor="#ffffff"
     bordercolor="#666666"
     borderopacity="1.0"
     inkscape:pageopacity="0.0"
     inkscape:pageshadow="2"
     inkscape:zoom="0.49456975"
     inkscape:cx="238.80504"
     inkscape:cy="345.02707"
     inkscape:document-units="px"
     inkscape:current-layer="layer1"
     showgrid="false"
     inkscape:window-width="1366"
     inkscape:window-height="716"
     inkscape:window-x="-8"
     inkscape:window-y="-8"
     inkscape:window-maximized="1" />
  <metadata
     id="metadata7">
    <rdf:RDF>
      <cc:Work
         rdf:about="">
        <dc:format>image/svg+xml</dc:format>
        <dc:type
           rdf:resource="http://purl.org/dc/dcmitype/StillImage" />
        <dc:title></dc:title>
      </cc:Work>
    </rdf:RDF>
  </metadata>
  <g
     inkscape:label="Layer 1"
     inkscape:groupmode="layer"
     id="layer1">
    <path
       style="fill:#000000;fill-opacity:1;stroke:none"
       d="m 97.908821,922.81057 c -5.37994,0 -9.74606,4.55611 -9.74606,10.17784 0,5.62173 4.36612,10.17784 9.74606,10.17784 5.379929,0 9.725489,-4.55611 9.725489,-10.17784 0,-5.62173 -4.34556,-10.17784 -9.725489,-10.17784 z m -5.46931,25.80442 c -6.35663,-0.031 -14.95972,3.36988 -18.50516,4.89359 4.58853,-1.62073 12.3196,-1.96926 10.34233,3.63935 -2.69045,7.63159 -5.70748,17.93605 -8.14227,25.66049 -2.4348,7.72444 -2.25371,14.03423 11.76106,13.83776 12.04695,-0.1689 23.131449,-11.41152 23.131449,-11.41152 0,0 -0.62478,0.13992 -3.98888,2.30286 -3.36411,2.16294 -15.481609,5.38015 -13.837759,-2.30286 1.03316,-4.82883 4.73307,-17.34333 6.41512,-22.96697 1.682049,-5.62364 4.143009,-9.94606 -3.14587,-12.97418 -1.13889,-0.47313 -2.52007,-0.67114 -4.03002,-0.67852 z m -18.73133,4.97584 c -0.56165,0.20879 -1.07006,0.44104 -1.50098,0.67852 0,0 0.63008,-0.30116 1.50098,-0.67852 z"
       id="path2816" />
    <path
       style="fill:#000000;fill-opacity:1;stroke:none"
       d="m 240.29625,929.81751 -0.8286,0.42098 c -1.44256,0.72952 -2.53482,2.35433 -3.13364,4.69094 -0.30302,1.18238 -0.33144,1.93895 -0.33144,8.149 l 0,6.84096 0.64782,-0.37588 0.64782,-0.37588 38.59799,0 c 36.64891,0 38.6237,0.0108 39.15543,0.30071 l 0.5725,0.30069 -0.0151,-6.40493 c -0.007,-7.23208 -0.11397,-8.35462 -1.06965,-10.34412 -0.6659,-1.38621 -1.60075,-2.41659 -2.62141,-2.88674 -0.663,-0.3054 -2.04932,-0.31188 -36.15739,-0.31573 l -35.46435,0 z m 74.42395,21.31972 -20.79051,0.015 -20.79048,0.015 1.20524,0.39091 c 2.93053,0.93456 5.11167,2.20194 8.16554,4.76612 1.01103,0.84891 2.3984,1.87715 3.08845,2.28533 2.20736,1.3057 5.02289,2.05097 9.43105,2.49582 0.85297,0.0861 2.52144,0.13106 3.70613,0.0902 1.18469,-0.0408 6.30754,-0.0748 11.38958,-0.0752 l 9.23518,0 -0.84366,-3.03709 c -0.98625,-3.54792 -1.69983,-5.06863 -2.93779,-6.17941 l -0.85873,-0.76679 z m -70.82327,0.015 c -5.49216,-0.0119 -5.79743,0.051 -6.28234,0.3007 -0.69383,0.3573 -1.68027,1.32224 -2.18451,2.13498 -0.2455,0.39569 -6.83978,19.68808 -6.83978,20.01168 0,0.0561 0.17847,0.0626 0.39171,0 1.40213,-0.41204 5.33115,-0.44887 48.34543,-0.40596 25.13919,0.0251 45.69389,0.002 45.69388,-0.0451 0,-0.0472 -0.77524,-2.42622 -1.73253,-5.29233 l -1.74761,-5.21717 -12.77561,0.0602 c -12.56149,0.0511 -12.80702,0.0454 -14.94505,-0.33078 -2.6115,-0.45956 -4.6505,-1.07996 -6.26728,-1.89442 -1.40938,-0.70999 -1.76744,-0.96386 -4.41421,-3.15736 -4.14715,-3.43693 -7.09865,-4.61263 -14.3575,-5.69829 -2.27373,-0.34007 -3.2899,-0.3695 -15.47234,-0.43601 -3.18355,-0.0174 -5.58154,-0.0261 -7.41226,-0.0301 z m 32.6471,24.74772 c -41.41094,-0.003 -46.29512,0.0314 -46.869,0.27063 -0.81267,0.33878 -1.52906,1.00152 -2.00372,1.87938 -0.36673,0.67827 -0.36158,0.8078 -0.36158,9.20146 0,8.39367 -0.005,8.52319 0.36158,9.20146 0.46428,0.85868 1.17511,1.54073 1.95852,1.87939 0.53393,0.2308 5.90936,0.25319 46.869,0.2556 44.51827,0.003 46.29618,-0.0121 46.95939,-0.31575 0.8774,-0.40167 1.60125,-1.10901 2.00372,-1.98463 0.29291,-0.63718 0.31639,-1.31022 0.31639,-9.03607 0,-7.72585 -0.0235,-8.38386 -0.31639,-9.02104 -0.40247,-0.87562 -1.12632,-1.59799 -2.00372,-1.99966 -0.66309,-0.30354 -2.44025,-0.32692 -46.91419,-0.33077 z"
       id="path2828" />
    <path
       style="fill:#000000;fill-opacity:1;stroke:none"
       d="m 463.34919,924.18008 c -1.56997,0 -2.82186,0.6516 -2.82186,1.46015 l 0,6.62807 c 0,0.80853 1.25189,1.46015 2.82186,1.46015 l 1.42734,0 0,1.95233 c 0,0.68686 0.57738,1.23046 1.29608,1.23046 l 5.88981,0 c 0.71868,0 1.29608,-0.5436 1.29608,-1.23046 l 0,-1.95233 1.41092,0 c 1.56997,0 2.83826,-0.65162 2.83826,-1.46015 l 0,-6.62807 c 0,-0.80855 -1.26829,-1.46015 -2.83826,-1.46015 l -11.32023,0 z m -1.82109,15.29052 c -21.39143,0 -38.62005,15.82772 -38.62005,35.48648 l 92.89157,0 c 0,-19.65876 -17.22862,-35.48648 -38.62006,-35.48648 l -15.65146,0 z m -36.66772,37.68491 c -4.0594,0 -7.36728,3.2504 -7.7437,7.43198 l 106.06571,0 c -0.37638,-4.18162 -3.68428,-7.43198 -7.7437,-7.43198 l -90.57831,0 z"
       id="rect2868" />
    <path
       style="fill:#000000;fill-opacity:1;stroke:none"
       d="m 638.59415,910.67028 c -19.91119,0 -36.04911,16.13793 -36.04911,36.0491 0,4.53565 0.83682,8.87653 2.36572,12.87469 2.93194,11.72778 32.07718,39.87147 33.49027,41.23113 l 0.0161,0.2575 c 0,0 0.10638,-0.1066 0.11265,-0.1126 0.007,0.01 0.11265,0.1126 0.11265,0.1126 l 0.0322,-0.2575 c 1.36258,-1.31106 28.49087,-27.51123 33.07183,-39.91147 0.0197,-0.0534 0.0455,-0.092 0.0644,-0.14485 1.82435,-4.31325 2.83243,-9.0717 2.83243,-14.0495 0,-19.91117 -16.13792,-36.0491 -36.04911,-36.0491 z m -3.42788,8.59385 0,2.15651 c -10.94399,1.48848 -19.65139,9.966 -21.50072,20.79261 l -2.20479,0 c 1.88728,-12.01379 11.57284,-21.4322 23.70551,-22.94912 z m 8.14323,0.19312 c 11.5304,1.99613 20.61349,11.16645 22.43413,22.756 l -2.18869,0 c -1.77984,-10.40598 -9.89715,-18.63689 -20.24544,-20.5834 l 0,-2.1726 z m -31.91311,30.91533 2.18869,0 c 1.68509,11.03423 10.48908,19.70443 21.58119,21.21103 l 0,2.15651 c -12.27883,-1.53327 -22.05056,-11.14896 -23.76988,-23.36754 z m 52.23901,0 2.1726,0 c -1.65934,11.79224 -10.82412,21.15583 -22.4985,23.17442 l 0,-2.1726 c 10.494,-1.97133 18.70324,-10.39055 20.3259,-21.00182 z"
       id="path3656" />
  </g>
</svg>
