<?xml version="1.0" encoding="UTF-8" standalone="no"?>
<!-- Created with Inkscape (http://www.inkscape.org/) -->
<svg
   xmlns:dc="http://purl.org/dc/elements/1.1/"
   xmlns:cc="http://creativecommons.org/ns#"
   xmlns:rdf="http://www.w3.org/1999/02/22-rdf-syntax-ns#"
   xmlns:svg="http://www.w3.org/2000/svg"
   xmlns="http://www.w3.org/2000/svg"
   xmlns:sodipodi="http://sodipodi.sourceforge.net/DTD/sodipodi-0.dtd"
   xmlns:inkscape="http://www.inkscape.org/namespaces/inkscape"
   width="210mm"
   height="297mm"
   id="svg2"
   sodipodi:version="0.32"
   inkscape:version="0.46"
   sodipodi:docname="testSVG.svg"
   inkscape:output_extension="org.inkscape.output.svg.inkscape">
  <defs
     id="defs4">
    <inkscape:perspective
       sodipodi:type="inkscape:persp3d"
       inkscape:vp_x="0 : 526.18109 : 1"
       inkscape:vp_y="0 : 1000 : 0"
       inkscape:vp_z="744.09448 : 526.18109 : 1"
       inkscape:persp3d-origin="372.04724 : 350.78739 : 1"
       id="perspective10" />
  </defs>
  <sodipodi:namedview
     id="base"
     pagecolor="#ffffff"
     bordercolor="#666666"
     borderopacity="1.0"
     inkscape:pageopacity="0.0"
     inkscape:pageshadow="2"
     inkscape:zoom="0.98994949"
     inkscape:cx="124.61128"
     inkscape:cy="736.35019"
     inkscape:document-units="px"
     inkscape:current-layer="layer1"
     showgrid="false"
     inkscape:window-width="1280"
     inkscape:window-height="1005"
     inkscape:window-x="-4"
     inkscape:window-y="-4" />
  <metadata
     id="metadata7">
    <rdf:RDF>
      <cc:Work
         rdf:about="">
        <dc:format>image/svg+xml</dc:format>
        <dc:type
           rdf:resource="http://purl.org/dc/dcmitype/StillImage" />
      </cc:Work>
    </rdf:RDF>
  </metadata>
  <g
     inkscape:label="Calque 1"
     inkscape:groupmode="layer"
     id="layer1">
    <g
       id="g2573"
       transform="matrix(0.6699772,0,0,0.6699772,28.816182,48.329881)">
      <path
         id="text2383"
         d="M 159.61221,134.22275 C 156.86605,131.10044 153.18237,127.95079 148.56114,124.7738 C 143.93977,121.59691 139.1273,118.77498 134.12374,116.30799 L 192.23742,116.30799 L 192.23742,48.435854 L 92.759622,48.435854 L 92.759622,116.30799 L 129.46301,116.30799 L 121.74362,123.59042 C 127.22662,126.24548 132.5367,129.41942 137.67393,133.11217 C 142.81098,136.80498 146.77383,140.37946 149.56245,143.83556 L 159.61221,134.22275 z M 135.14329,60.524678 L 135.14329,76.545985 L 105.86796,76.545985 L 105.86796,60.524678 L 135.14329,60.524678 z M 148.54294,76.545985 L 148.54294,60.524678 L 178.54648,60.524678 L 178.54648,76.545985 L 148.54294,76.545985 z M 135.14329,87.906558 L 135.14329,104.2192 L 105.86796,104.2192 L 105.86796,87.906558 L 135.14329,87.906558 z M 148.54294,104.2192 L 148.54294,87.906558 L 178.54648,87.906558 L 178.54648,104.2192 L 148.54294,104.2192 z M 210.44348,162.47853 C 207.95214,157.22001 204.23205,151.49727 199.28318,145.31023 C 194.33402,139.12322 189.12105,133.43689 183.64417,128.25116 L 171.40973,135.2423 C 176.80771,140.66468 181.88719,146.56952 186.64817,152.95676 C 191.40893,159.34406 194.9227,165.13963 197.18949,170.34353 L 210.44348,162.47853 z M 94.070437,130.87283 C 92.641244,137.65765 90.292671,143.93267 87.024716,149.69787 C 83.756689,155.46314 79.405461,160.20886 73.97096,163.935 L 85.331532,171.80004 C 91.281854,167.46396 95.875845,162.04464 99.113504,155.54201 C 102.35113,149.03946 104.79681,142.12722 106.45056,134.80535 L 94.070437,130.87283 z M 126.8413,136.55312 C 127.99129,136.34076 128.82269,136.0373 129.33556,135.6428 C 129.84829,135.24838 130.13351,134.72648 130.19122,134.0771 L 113.29601,133.2032 L 113.29601,158.83731 C 113.12604,165.28226 114.41261,169.76093 117.15571,172.27336 C 119.8987,174.78579 125.11775,175.98741 132.81289,175.87817 L 155.67969,175.87817 C 162.01529,176.09665 166.494,174.42167 169.11574,170.85331 C 171.73733,167.28492 173.37586,160.51229 174.0314,150.53536 C 172.10146,150.07718 169.95312,149.39142 167.58645,148.47808 C 165.21956,147.56475 163.28973,146.55128 161.79692,145.43767 C 161.59352,153.1358 161.017,158.13032 160.06736,160.42126 C 159.11751,162.71219 157.26658,163.73779 154.51452,163.49808 L 134.26939,163.49808 C 131.2198,163.54964 129.19894,163.26442 128.20677,162.64239 C 127.2145,162.02035 126.75934,160.75199 126.8413,158.83731 L 126.8413,136.55312 z"
         style="font-size:40px;font-style:normal;font-variant:normal;font-weight:normal;font-stretch:normal;fill:#ffffff;fill-opacity:1;stroke:none;stroke-width:1px;stroke-linecap:butt;stroke-linejoin:miter;stroke-opacity:1;font-family:Kozuka Gothic Pro M;-inkscape-font-specification:Kozuka Gothic Pro M" />
      <path
         id="path2559"
         d="M 151.53099,128.16183 C 148.78483,125.03952 145.10115,121.88988 140.47992,118.71289 C 135.85855,115.536 131.04608,112.71406 126.04252,110.24708 L 184.1562,110.24708 L 184.1562,42.374939 L 84.678402,42.374939 L 84.678402,110.24708 L 121.38179,110.24708 L 113.6624,117.52951 C 119.1454,120.18457 124.45548,123.3585 129.59271,127.05125 C 134.72976,130.74406 138.69261,134.31854 141.48123,137.77464 L 151.53099,128.16183 z M 127.06207,54.463763 L 127.06207,70.48507 L 97.786741,70.48507 L 97.786741,54.463763 L 127.06207,54.463763 z M 140.46171,70.48507 L 140.46171,54.463763 L 170.46526,54.463763 L 170.46526,70.48507 L 140.46171,70.48507 z M 127.06207,81.845643 L 127.06207,98.158287 L 97.786741,98.158287 L 97.786741,81.845643 L 127.06207,81.845643 z M 140.46171,98.158287 L 140.46171,81.845643 L 170.46526,81.845643 L 170.46526,98.158287 L 140.46171,98.158287 z M 202.36226,156.41761 C 199.87092,151.15909 196.15083,145.43635 191.20196,139.24931 C 186.2528,133.0623 181.03983,127.37597 175.56295,122.19024 L 163.32851,129.18138 C 168.72649,134.60376 173.80597,140.5086 178.56695,146.89584 C 183.32771,153.28314 186.84148,159.07871 189.10827,164.28261 L 202.36226,156.41761 z M 85.989217,124.81191 C 84.560024,131.59673 82.211451,137.87175 78.943496,143.63695 C 75.675469,149.40222 71.324241,154.14794 65.889739,157.87408 L 77.250312,165.73912 C 83.200634,161.40304 87.794625,155.98372 91.032284,149.48109 C 94.269907,142.97854 96.715592,136.0663 98.369342,128.74443 L 85.989217,124.81191 z M 118.76008,130.4922 C 119.91007,130.27984 120.74147,129.97638 121.25434,129.58188 C 121.76707,129.18746 122.05229,128.66556 122.11,128.01618 L 105.21479,127.14228 L 105.21479,152.77639 C 105.04482,159.22134 106.33139,163.70001 109.07449,166.21244 C 111.81748,168.72487 117.03653,169.92649 124.73167,169.81725 L 147.59847,169.81725 C 153.93407,170.03573 158.41278,168.36075 161.03452,164.79239 C 163.65611,161.224 165.29464,154.45137 165.95018,144.47444 C 164.02024,144.01626 161.8719,143.3305 159.50523,142.41716 C 157.13834,141.50383 155.20851,140.49036 153.7157,139.37675 C 153.5123,147.07488 152.93578,152.0694 151.98614,154.36034 C 151.03629,156.65127 149.18536,157.67687 146.4333,157.43716 L 126.18817,157.43716 C 123.13858,157.48872 121.11772,157.2035 120.12555,156.58147 C 119.13328,155.95943 118.67812,154.69107 118.76008,152.77639 L 118.76008,130.4922 z"
         style="font-size:40px;font-style:normal;font-variant:normal;font-weight:normal;font-stretch:normal;fill:#000000;fill-opacity:1;stroke:none;stroke-width:1px;stroke-linecap:butt;stroke-linejoin:miter;stroke-opacity:1;font-family:Kozuka Gothic Pro M;-inkscape-font-specification:Kozuka Gothic Pro M" />
    </g>
    <g
       id="g2565"
       transform="matrix(0.6699772,0,0,0.6699772,28.816182,48.329881)">
      <path
         id="text2395"
         d="M 178.58351,479.60958 L 176.25315,480.04653 L 135.47159,480.04653 C 137.24361,478.32309 138.94284,476.52675 140.56928,474.65754 C 141.44918,474.7911 142.20169,474.74257 142.82685,474.51189 C 143.45184,474.28133 143.91308,473.94149 144.21049,473.49238 L 138.67586,471.30762 L 159.79489,471.30762 C 164.80143,471.43208 168.40624,470.45502 170.60927,468.37645 C 172.81209,466.29798 174.15935,462.37155 174.65099,456.59717 C 172.96076,456.28468 171.09768,455.78098 169.06174,455.08605 C 167.02562,454.39126 165.3446,453.63268 164.01867,452.8103 C 163.79102,456.48192 163.29945,458.86083 162.544,459.94705 C 161.78833,461.03342 160.38648,461.51891 158.33839,461.40355 L 139.25846,461.40355 C 136.49409,461.45216 134.66742,461.24581 133.77844,460.78454 C 132.88932,460.32338 132.4827,459.31599 132.55862,457.76233 L 132.55862,448.58648 C 133.70857,448.4318 134.53997,448.1587 135.05285,447.76723 C 135.56561,447.37587 135.85083,446.92071 135.90854,446.40176 L 119.74158,445.38225 L 119.74158,457.90798 C 119.68693,461.65848 120.26949,464.53503 121.48935,466.53765 C 122.7091,468.54038 124.89385,469.88761 128.04354,470.57941 C 122.49368,476.54193 115.71497,481.94912 107.70738,486.80099 C 99.69971,491.65292 91.428124,495.5672 82.892546,498.54389 C 84.28529,499.71211 85.832788,501.12612 87.535075,502.78588 C 89.237326,504.44567 90.602797,505.8961 91.631451,507.13715 C 95.497154,505.60785 99.344724,503.89646 103.17409,502.00301 C 107.00338,500.10963 110.77809,498.03411 114.49825,495.77657 C 119.45025,500.72861 125.1305,505.09808 131.53911,508.88491 C 123.85307,511.3488 115.6664,513.33933 106.97913,514.8565 C 98.291782,516.37366 89.340482,517.49029 80.125228,518.20642 C 81.433022,519.69627 82.786331,521.55936 84.185156,523.79567 C 85.583981,526.03195 86.609577,528.00427 87.261981,529.71264 C 97.79719,528.49584 108.00472,526.77841 117.88454,524.5603 C 127.76433,522.34219 137.02513,519.496 145.667,516.0217 C 154.22071,519.58096 163.47543,522.47572 173.43121,524.70595 C 183.38677,526.93618 193.84311,528.55654 204.80023,529.56699 C 205.78016,527.64929 206.98782,525.51311 208.42321,523.15845 C 209.85833,520.8038 211.32088,518.81327 212.81088,517.18687 C 203.30721,516.60732 194.16776,515.6181 185.39255,514.21928 C 176.61716,512.82045 168.42445,510.99378 160.8144,508.73926 C 165.8574,505.8354 170.48172,502.57655 174.68741,498.96264 C 178.89291,495.34872 182.57054,491.32521 185.72027,486.89202 C 186.23601,486.81617 186.69722,486.64019 187.10394,486.36404 C 187.51042,486.08796 187.82601,485.72987 188.05067,485.28986 L 178.58351,479.60958 z M 166.78599,489.80499 C 164.00644,492.49646 160.86287,494.97855 157.35525,497.25124 C 153.84748,499.52401 150.04849,501.60553 145.95826,503.49593 C 141.64945,501.60553 137.6684,499.52397 134.01512,497.25124 C 130.36171,494.97855 127.1089,492.49646 124.25667,489.80499 L 166.78599,489.80499 z M 97.603038,437.66286 L 135.90854,437.66286 L 131.97602,441.88668 C 135.96006,443.6406 139.93504,445.70395 143.90099,448.07674 C 147.86679,450.44964 151.07714,452.65864 153.532,454.70372 L 160.66875,446.69306 C 158.94214,445.2154 156.75135,443.69216 154.09636,442.12336 C 151.44127,440.55467 148.63145,439.06784 145.667,437.66286 L 193.87661,437.66286 L 193.87661,453.6842 L 207.56755,453.6842 L 207.56755,426.88489 L 183.0986,426.88489 C 184.94945,424.58496 186.74579,422.2303 188.48759,419.82096 C 190.2292,417.41176 191.73424,415.20279 193.00271,413.19395 C 194.75036,413.31542 195.91553,412.92704 196.49828,412.02874 L 181.64213,405.76589 C 180.10359,409.08555 178.15556,412.6782 175.79799,416.54386 C 173.4402,420.40971 171.16446,423.85671 168.97071,426.88489 L 143.62789,426.88489 L 153.8233,423.09802 C 153.35591,421.08939 152.54271,418.84397 151.3837,416.3618 C 150.22447,413.87981 148.90153,411.41592 147.41477,408.97012 C 157.17009,408.24202 166.3884,407.36812 175.06974,406.34846 C 183.75089,405.32905 191.47629,404.16385 198.24604,402.85292 C 198.98325,403.06543 199.65688,403.15038 200.2669,403.10781 C 200.8767,403.06543 201.36824,402.9319 201.74161,402.70727 L 191.8375,392.80317 C 183.6595,394.40543 173.78241,395.79719 162.20617,396.97841 C 150.62974,398.15993 138.3575,399.13091 125.3895,399.89138 C 112.42135,400.65211 99.760737,401.20234 87.407631,401.54207 C 88.087308,402.9319 88.694196,404.59472 89.228222,406.53052 C 89.762285,408.46654 90.077837,410.20218 90.174949,411.73744 C 92.210994,411.67081 94.256141,411.62227 96.310392,411.59183 C 98.364607,411.56157 100.44617,411.51303 102.55507,411.44618 L 101.38987,411.88309 C 103.2408,414.19234 104.96431,416.67444 106.56038,419.32939 C 108.15642,421.98452 109.44298,424.50303 110.42008,426.88489 L 84.494663,426.88489 L 84.494663,452.2277 L 97.603038,452.2277 L 97.603038,437.66286 z M 116.68296,426.88489 L 122.8002,424.26322 C 122.19025,422.33044 121.22532,420.18818 119.90544,417.83647 C 118.58545,415.48495 117.07436,413.16066 115.37211,410.86358 C 118.50654,410.78176 121.6319,410.65432 124.74824,410.48125 C 127.86446,410.3084 130.95341,410.14454 134.01512,409.98968 C 135.87206,412.6964 137.51062,415.58512 138.93075,418.65576 C 140.35076,421.72661 141.33387,424.46964 141.88013,426.88489 L 116.68296,426.88489 z M 180.18563,442.61493 L 170.86416,449.46038 C 175.3822,452.87104 179.81837,456.68216 184.17277,460.89378 C 188.52695,465.10551 191.9072,468.91663 194.31352,472.32718 L 204.21763,464.75347 C 203.03105,463.07249 201.54425,461.30043 199.75713,459.43731 C 197.96978,457.57426 196.00962,455.65656 193.87661,453.6842 C 191.67656,451.70281 189.41297,449.7669 187.08574,447.87647 C 184.75828,445.98615 182.45825,444.2323 180.18563,442.61493 L 180.18563,442.61493 z M 96.729137,473.49238 C 101.84805,470.80702 105.95652,467.40249 109.05461,463.27876 C 112.15266,459.15515 114.54977,454.69469 116.24601,449.89733 L 105.61369,445.67351 C 104.08131,449.87614 101.79343,453.7055 98.749997,457.16153 C 95.706526,460.6177 91.925738,463.3911 87.407631,465.48169 L 96.729137,473.49238 z"
         style="font-size:40px;font-style:normal;font-variant:normal;font-weight:normal;font-stretch:normal;fill:#ffffff;fill-opacity:1;stroke:none;stroke-width:1px;stroke-linecap:butt;stroke-linejoin:miter;stroke-opacity:1;font-family:Kozuka Gothic Pro M;-inkscape-font-specification:Kozuka Gothic Pro M" />
      <path
         id="path2561"
         d="M 170.50229,473.54866 L 168.17193,473.98561 L 127.39037,473.98561 C 129.16239,472.26217 130.86162,470.46583 132.48806,468.59662 C 133.36796,468.73018 134.12047,468.68165 134.74563,468.45097 C 135.37062,468.22041 135.83186,467.88057 136.12927,467.43146 L 130.59464,465.2467 L 151.71367,465.2467 C 156.72021,465.37116 160.32502,464.3941 162.52805,462.31553 C 164.73087,460.23706 166.07813,456.31063 166.56977,450.53625 C 164.87954,450.22376 163.01646,449.72006 160.98052,449.02513 C 158.9444,448.33034 157.26338,447.57176 155.93745,446.74938 C 155.7098,450.421 155.21823,452.79991 154.46278,453.88613 C 153.70711,454.9725 152.30526,455.45799 150.25717,455.34263 L 131.17724,455.34263 C 128.41287,455.39124 126.5862,455.18489 125.69722,454.72362 C 124.8081,454.26246 124.40148,453.25507 124.4774,451.70141 L 124.4774,442.52556 C 125.62735,442.37088 126.45875,442.09778 126.97163,441.70631 C 127.48439,441.31495 127.76961,440.85979 127.82732,440.34084 L 111.66036,439.32133 L 111.66036,451.84706 C 111.60571,455.59756 112.18827,458.47411 113.40813,460.47673 C 114.62788,462.47946 116.81263,463.82669 119.96232,464.51849 C 114.41246,470.48101 107.63375,475.8882 99.626157,480.74007 C 91.61849,485.592 83.346904,489.50628 74.811326,492.48297 C 76.20407,493.65119 77.751568,495.0652 79.453855,496.72496 C 81.156106,498.38475 82.521577,499.83518 83.550231,501.07623 C 87.415934,499.54693 91.263504,497.83554 95.092867,495.94209 C 98.922157,494.04871 102.69687,491.97319 106.41703,489.71565 C 111.36903,494.66769 117.04928,499.03716 123.45789,502.82399 C 115.77185,505.28788 107.58518,507.27841 98.897906,508.79558 C 90.210562,510.31274 81.259262,511.42937 72.044008,512.1455 C 73.351802,513.63535 74.705111,515.49844 76.103936,517.73475 C 77.502761,519.97103 78.528357,521.94335 79.180761,523.65172 C 89.71597,522.43492 99.923502,520.71749 109.80332,518.49938 C 119.68311,516.28127 128.94391,513.43508 137.58578,509.96078 C 146.13949,513.52004 155.39421,516.4148 165.34999,518.64503 C 175.30555,520.87526 185.76189,522.49562 196.71901,523.50607 C 197.69894,521.58837 198.9066,519.45219 200.34199,517.09753 C 201.77711,514.74288 203.23966,512.75235 204.72966,511.12595 C 195.22599,510.5464 186.08654,509.55718 177.31133,508.15836 C 168.53594,506.75953 160.34323,504.93286 152.73318,502.67834 C 157.77618,499.77448 162.4005,496.51563 166.60619,492.90172 C 170.81169,489.2878 174.48932,485.26429 177.63905,480.8311 C 178.15479,480.75525 178.616,480.57927 179.02272,480.30312 C 179.4292,480.02704 179.74479,479.66895 179.96945,479.22894 L 170.50229,473.54866 z M 158.70477,483.74407 C 155.92522,486.43554 152.78165,488.91763 149.27403,491.19032 C 145.76626,493.46309 141.96726,495.54461 137.87704,497.43501 C 133.56823,495.54461 129.58718,493.46305 125.9339,491.19032 C 122.28049,488.91763 119.02768,486.43554 116.17545,483.74407 L 158.70477,483.74407 z M 89.521818,431.60194 L 127.82732,431.60194 L 123.8948,435.82576 C 127.87884,437.57968 131.85382,439.64303 135.81977,442.01582 C 139.78557,444.38872 142.99592,446.59772 145.45078,448.6428 L 152.58753,440.63214 C 150.86092,439.15448 148.67013,437.63124 146.01514,436.06244 C 143.36004,434.49375 140.55023,433.00692 137.58578,431.60194 L 185.79539,431.60194 L 185.79539,447.62328 L 199.48633,447.62328 L 199.48633,420.82397 L 175.01738,420.82397 C 176.86823,418.52404 178.66457,416.16938 180.40637,413.76004 C 182.14798,411.35084 183.65302,409.14187 184.92149,407.13303 C 186.66914,407.2545 187.83431,406.86612 188.41706,405.96782 L 173.56091,399.70497 C 172.02237,403.02463 170.07434,406.61728 167.71677,410.48294 C 165.35898,414.34879 163.08324,417.79579 160.88949,420.82397 L 135.54667,420.82397 L 145.74208,417.0371 C 145.27469,415.02847 144.46149,412.78305 143.30248,410.30088 C 142.14325,407.81889 140.8203,405.355 139.33354,402.9092 C 149.08887,402.1811 158.30718,401.3072 166.98852,400.28754 C 175.66967,399.26813 183.39507,398.10293 190.16482,396.792 C 190.90203,397.00451 191.57566,397.08946 192.18568,397.04689 C 192.79548,397.00451 193.28702,396.87098 193.66039,396.64635 L 183.75628,386.74225 C 175.57828,388.34451 165.70119,389.73627 154.12495,390.91749 C 142.54852,392.09901 130.27628,393.06999 117.30828,393.83046 C 104.34013,394.59119 91.679517,395.14142 79.326411,395.48115 C 80.006088,396.87098 80.612976,398.5338 81.147002,400.4696 C 81.681065,402.40562 81.996617,404.14126 82.093729,405.67652 C 84.129774,405.60989 86.174921,405.56135 88.229172,405.53091 C 90.283387,405.50065 92.364947,405.45211 94.473853,405.38526 L 93.308651,405.82217 C 95.159575,408.13142 96.88309,410.61352 98.479162,413.26847 C 100.0752,415.9236 101.36176,418.44211 102.33886,420.82397 L 76.413443,420.82397 L 76.413443,446.16678 L 89.521818,446.16678 L 89.521818,431.60194 z M 108.60174,420.82397 L 114.71898,418.2023 C 114.10903,416.26952 113.1441,414.12726 111.82422,411.77555 C 110.50423,409.42403 108.99314,407.09974 107.29089,404.80266 C 110.42532,404.72084 113.55068,404.5934 116.66702,404.42033 C 119.78324,404.24748 122.87219,404.08362 125.9339,403.92876 C 127.79084,406.63548 129.4294,409.5242 130.84953,412.59484 C 132.26954,415.66569 133.25265,418.40872 133.79891,420.82397 L 108.60174,420.82397 z M 172.10441,436.55401 L 162.78294,443.39946 C 167.30098,446.81012 171.73715,450.62124 176.09155,454.83286 C 180.44573,459.04459 183.82598,462.85571 186.2323,466.26626 L 196.13641,458.69255 C 194.94983,457.01157 193.46303,455.23951 191.67591,453.37639 C 189.88856,451.51334 187.9284,449.59564 185.79539,447.62328 C 183.59534,445.64189 181.33175,443.70598 179.00452,441.81555 C 176.67706,439.92523 174.37703,438.17138 172.10441,436.55401 L 172.10441,436.55401 z M 88.647917,467.43146 C 93.766831,464.7461 97.875296,461.34157 100.97339,457.21784 C 104.07144,453.09423 106.46855,448.63377 108.16479,443.83641 L 97.532472,439.61259 C 96.000086,443.81522 93.712212,447.64458 90.668777,451.10061 C 87.625306,454.55678 83.844518,457.33018 79.326411,459.42077 L 88.647917,467.43146 z"
         style="font-size:40px;font-style:normal;font-variant:normal;font-weight:normal;font-stretch:normal;fill:#aa0000;fill-opacity:1;stroke:none;stroke-width:1px;stroke-linecap:butt;stroke-linejoin:miter;stroke-opacity:1;font-family:Kozuka Gothic Pro M;-inkscape-font-specification:Kozuka Gothic Pro M" />
    </g>
    <g
       id="g2569"
       transform="matrix(0.6699772,0,0,0.6699772,28.816182,48.329881)">
      <path
         id="text2399"
         d="M 76.446941,265.32745 L 76.446941,277.85322 L 96.692069,277.85322 L 96.692069,300.13742 L 78.631694,300.13742 L 78.631694,312.66319 L 206.21966,312.66319 L 206.21966,300.13742 L 188.3049,300.13742 L 188.3049,277.85322 L 208.40438,277.85322 L 208.40438,265.32745 L 188.3049,265.32745 L 188.3049,243.04326 L 202.86974,243.04326 L 202.86974,230.80878 L 111.54821,230.80878 C 113.58724,227.60462 115.48066,224.40039 117.2285,221.19601 C 118.11143,221.33266 118.85789,221.27805 119.46783,221.03215 C 120.07771,220.78648 120.49642,220.40414 120.72407,219.88516 L 105.13967,214.49617 C 101.60161,221.77264 97.098651,228.73949 91.630796,235.39673 C 86.162904,242.05414 80.421918,247.56453 74.407874,251.92781 C 76.091919,253.02328 77.930753,254.40088 79.924304,256.0606 C 81.917855,257.72047 83.574627,259.20726 84.894545,260.52107 C 86.86989,258.98274 88.854375,257.28956 90.847926,255.44159 C 92.841477,253.59376 94.789513,251.64572 96.692069,249.59744 L 96.692069,265.32745 L 76.446941,265.32745 z M 148.97985,265.32745 L 134.56066,265.32745 L 134.56066,243.04326 L 148.97985,243.04326 L 148.97985,265.32745 z M 148.97985,300.13742 L 134.56066,300.13742 L 134.56066,277.85322 L 148.97985,277.85322 L 148.97985,300.13742 z M 122.90878,243.04326 L 122.90878,265.32745 L 109.07219,265.32745 L 109.07219,243.04326 L 122.90878,243.04326 z M 122.90878,277.85322 L 122.90878,300.13742 L 109.07219,300.13742 L 109.07219,277.85322 L 122.90878,277.85322 z M 160.77737,265.32745 L 160.77737,243.04326 L 175.48783,243.04326 L 175.48783,265.32745 L 160.77737,265.32745 z M 160.77737,300.13742 L 160.77737,277.85322 L 175.48783,277.85322 L 175.48783,300.13742 L 160.77737,300.13742 z M 210.5891,346.16231 C 208.56503,341.99311 205.73097,337.22314 202.08687,331.85236 C 198.44249,326.48158 194.77094,321.49313 191.07222,316.88698 L 177.96388,321.1108 C 181.64439,325.94755 185.2067,331.13019 188.65082,336.65874 C 192.09465,342.18733 194.74669,347.00584 196.60686,351.11435 L 210.5891,346.16231 z M 92.613935,317.46958 C 90.811513,322.97388 88.371908,328.24151 85.295083,333.27241 C 82.218259,338.30335 78.831927,342.40577 75.136125,345.57971 L 88.244464,351.11435 C 92.134491,347.29409 95.605736,342.7001 98.658347,337.33237 C 101.71085,331.96462 104.16258,326.46035 106.01358,320.8195 L 92.613935,317.46958 z M 170.39014,346.89056 C 169.67697,343.17652 168.48147,338.84346 166.80354,333.89142 C 165.12547,328.93939 163.31092,324.24224 161.35994,319.79995 L 148.39725,321.98466 C 150.26328,326.57869 151.95643,331.40933 153.47673,336.47668 C 154.99684,341.54403 156.07101,345.93775 156.6992,349.65788 L 170.39014,346.89056 z M 135.14326,347.47313 C 135.04607,343.90171 134.6577,339.64756 133.97806,334.71071 C 133.29831,329.77382 132.47298,325.04634 131.50204,320.5282 L 118.68496,321.83901 C 119.57095,326.44214 120.27492,331.29102 120.79689,336.38565 C 121.31872,341.48031 121.58577,345.85583 121.59793,349.51223 L 135.14326,347.47313 z"
         style="font-size:40px;font-style:normal;font-variant:normal;font-weight:normal;font-stretch:normal;fill:#ffffff;fill-opacity:1;stroke:none;stroke-width:1px;stroke-linecap:butt;stroke-linejoin:miter;stroke-opacity:1;font-family:Kozuka Gothic Pro M;-inkscape-font-specification:Kozuka Gothic Pro M" />
      <path
         id="path2563"
         d="M 68.36572,259.26653 L 68.36572,271.7923 L 88.610849,271.7923 L 88.610849,294.0765 L 70.550474,294.0765 L 70.550474,306.60227 L 198.13844,306.60227 L 198.13844,294.0765 L 180.22368,294.0765 L 180.22368,271.7923 L 200.32316,271.7923 L 200.32316,259.26653 L 180.22368,259.26653 L 180.22368,236.98234 L 194.78852,236.98234 L 194.78852,224.74786 L 103.46699,224.74786 C 105.50602,221.5437 107.39944,218.33947 109.14728,215.13509 C 110.03021,215.27174 110.77667,215.21713 111.38661,214.97123 C 111.99649,214.72556 112.4152,214.34322 112.64285,213.82424 L 97.058453,208.43525 C 93.52039,215.71172 89.017431,222.67857 83.549576,229.33581 C 78.081684,235.99322 72.340698,241.50361 66.326653,245.86689 C 68.010698,246.96236 69.849533,248.33996 71.843084,249.99968 C 73.836635,251.65955 75.493407,253.14634 76.813325,254.46015 C 78.78867,252.92182 80.773155,251.22864 82.766706,249.38067 C 84.760257,247.53284 86.708293,245.5848 88.610849,243.53652 L 88.610849,259.26653 L 68.36572,259.26653 z M 140.89863,259.26653 L 126.47944,259.26653 L 126.47944,236.98234 L 140.89863,236.98234 L 140.89863,259.26653 z M 140.89863,294.0765 L 126.47944,294.0765 L 126.47944,271.7923 L 140.89863,271.7923 L 140.89863,294.0765 z M 114.82756,236.98234 L 114.82756,259.26653 L 100.99097,259.26653 L 100.99097,236.98234 L 114.82756,236.98234 z M 114.82756,271.7923 L 114.82756,294.0765 L 100.99097,294.0765 L 100.99097,271.7923 L 114.82756,271.7923 z M 152.69615,259.26653 L 152.69615,236.98234 L 167.40661,236.98234 L 167.40661,259.26653 L 152.69615,259.26653 z M 152.69615,294.0765 L 152.69615,271.7923 L 167.40661,271.7923 L 167.40661,294.0765 L 152.69615,294.0765 z M 202.50788,340.10139 C 200.48381,335.93219 197.64975,331.16222 194.00565,325.79144 C 190.36127,320.42066 186.68972,315.43221 182.991,310.82606 L 169.88266,315.04988 C 173.56317,319.88663 177.12548,325.06927 180.5696,330.59782 C 184.01343,336.12641 186.66547,340.94492 188.52564,345.05343 L 202.50788,340.10139 z M 84.532715,311.40866 C 82.730293,316.91296 80.290688,322.18059 77.213863,327.21149 C 74.137039,332.24243 70.750707,336.34485 67.054904,339.51879 L 80.163244,345.05343 C 84.053271,341.23317 87.524516,336.63918 90.577127,331.27145 C 93.629628,325.9037 96.081358,320.39943 97.932355,314.75858 L 84.532715,311.40866 z M 162.30892,340.82964 C 161.59575,337.1156 160.40025,332.78254 158.72232,327.8305 C 157.04425,322.87847 155.2297,318.18132 153.27872,313.73903 L 140.31603,315.92374 C 142.18206,320.51777 143.87521,325.34841 145.39551,330.41576 C 146.91562,335.48311 147.98979,339.87683 148.61798,343.59696 L 162.30892,340.82964 z M 127.06204,341.41221 C 126.96485,337.84079 126.57648,333.58664 125.89684,328.64979 C 125.21709,323.7129 124.39176,318.98542 123.42082,314.46728 L 110.60374,315.77809 C 111.48973,320.38122 112.1937,325.2301 112.71567,330.32473 C 113.2375,335.41939 113.50455,339.79491 113.51671,343.45131 L 127.06204,341.41221 z"
         style="font-size:40px;font-style:normal;font-variant:normal;font-weight:normal;font-stretch:normal;fill:#000000;fill-opacity:1;stroke:none;stroke-width:1px;stroke-linecap:butt;stroke-linejoin:miter;stroke-opacity:1;font-family:Kozuka Gothic Pro M;-inkscape-font-specification:Kozuka Gothic Pro M" />
    </g>
  </g>
</svg>
