<?xml version="1.0" encoding="UTF-8" standalone="no"?>
<!-- Created with Inkscape (http://www.inkscape.org/) -->
<svg
   xmlns:dc="http://purl.org/dc/elements/1.1/"
   xmlns:cc="http://creativecommons.org/ns#"
   xmlns:rdf="http://www.w3.org/1999/02/22-rdf-syntax-ns#"
   xmlns:svg="http://www.w3.org/2000/svg"
   xmlns="http://www.w3.org/2000/svg"
   xmlns:sodipodi="http://sodipodi.sourceforge.net/DTD/sodipodi-0.dtd"
   xmlns:inkscape="http://www.inkscape.org/namespaces/inkscape"
   width="100"
   height="300"
   id="svg2611"
   sodipodi:version="0.32"
   inkscape:version="0.46"
   sodipodi:docname="testSVG.svg"
   inkscape:output_extension="org.inkscape.output.svg.inkscape"
   version="1.0">
  <defs
     id="defs2613">
    <inkscape:perspective
       sodipodi:type="inkscape:persp3d"
       inkscape:vp_x="0 : 526.18109 : 1"
       inkscape:vp_y="0 : 1000 : 0"
       inkscape:vp_z="744.09448 : 526.18109 : 1"
       inkscape:persp3d-origin="372.04724 : 350.78739 : 1"
       id="perspective2619" />
  </defs>
  <sodipodi:namedview
     id="base"
     pagecolor="#ffffff"
     bordercolor="#ffffff"
     borderopacity="0.0"
     inkscape:pageopacity="0.0"
     inkscape:pageshadow="0"
     inkscape:zoom="1"
     inkscape:cx="155.5"
     inkscape:cy="124"
     inkscape:document-units="px"
     inkscape:current-layer="g2401"
     showgrid="false"
     inkscape:window-width="1280"
     inkscape:window-height="1005"
     inkscape:window-x="0"
     inkscape:window-y="0" />
  <metadata
     id="metadata2616">
    <rdf:RDF>
      <cc:Work
         rdf:about="">
        <dc:format>image/svg+xml</dc:format>
        <dc:type
           rdf:resource="http://purl.org/dc/dcmitype/StillImage" />
      </cc:Work>
    </rdf:RDF>
  </metadata>
  <g
     inkscape:label="Layer 1"
     inkscape:groupmode="layer"
     id="layer1">
    <g
       id="g2384"
       style="fill:#ffffff">
      <rect
         style="opacity:0;fill:#ffffff;fill-opacity:1;stroke:none;stroke-width:2.50000000000000000;stroke-miterlimit:4;stroke-dasharray:none;stroke-opacity:1"
         id="rect2415"
         width="100"
         height="100"
         x="0"
         y="0" />
      <path
         style="fill:#ffffff"
         id="shi"
         d="M 44.152985,65.39328 C 45.030744,65.19989 45.685367,64.96184 46.116867,64.67914 C 47.470712,65.71317 48.713012,66.74718 49.843783,67.78118 C 50.974452,68.81522 51.90432,69.80459 52.633376,70.74932 L 62.184998,61.73331 C 60.996582,60.42408 59.512507,59.09251 57.732791,57.7386 C 55.95296,56.38473 54.044866,55.0978 52.008508,53.87779 L 81.109699,53.87779 L 81.109699,10.136758 L 19.247374,10.136758 L 19.247374,53.87779 L 42.010564,53.87779 L 36.833056,58.78749 C 38.045569,59.41796 39.280431,60.12094 40.53765,60.89644 C 41.794802,61.67197 43.029661,62.48653 44.242249,63.34013 L 31.298475,62.62598 L 31.298475,75.56977 C 31.162692,80.81236 32.103718,84.52067 34.121561,86.69471 C 36.139348,88.86874 40.048508,89.92134 45.849061,89.85254 L 56.561149,89.85254 C 61.033756,89.98458 64.29574,88.89477 66.347093,86.58313 C 68.398323,84.27147 69.718731,79.94573 70.308337,73.60588 C 68.508038,73.22278 66.506959,72.60535 64.305102,71.75359 C 62.103104,70.90184 60.325204,69.97197 58.971375,68.96397 C 58.833689,72.99031 58.528703,75.60511 58.056376,76.80834 C 57.583952,78.0116 56.698722,78.55092 55.400677,78.42631 L 47.723676,78.42631 C 46.207952,78.47282 45.222289,78.31289 44.76669,77.94651 C 44.311017,77.58014 44.10645,76.72838 44.152985,75.39123 L 44.152985,65.39328 z M 43.349572,21.29518 L 43.349572,26.7405 L 31.477011,26.7405 L 31.477011,21.29518 L 43.349572,21.29518 z M 55.936272,26.7405 L 55.936272,21.29518 L 68.255187,21.29518 L 68.255187,26.7405 L 55.936272,26.7405 z M 43.349572,37.09551 L 43.349572,42.71936 L 31.477011,42.71936 L 31.477011,37.09551 L 43.349572,37.09551 z M 55.936272,42.71936 L 55.936272,37.09551 L 68.255187,37.09551 L 68.255187,42.71936 L 55.936272,42.71936 z M 92.625189,79.22973 C 91.139159,76.01611 88.955849,72.55699 86.075188,68.85239 C 83.194368,65.14781 80.229959,61.73333 77.181928,58.60896 L 65.577168,65.21474 C 68.57313,68.57903 71.418528,72.20551 74.113359,76.09421 C 76.808048,79.98292 78.783078,83.49782 80.038478,86.63893 L 92.625189,79.22973 z M 18.801037,60.92991 C 17.867438,64.84839 16.454035,68.46 14.560837,71.76474 C 12.667619,75.06949 10.272274,77.85538 7.3748112,80.12241 L 18.176171,87.44232 C 21.479045,84.61925 24.090111,81.22708 26.009386,77.26584 C 27.928611,73.30462 29.42384,69.10905 30.495069,64.67914 L 18.801037,60.92991 z" />
    </g>
    <g
       id="g2394"
       transform="translate(0,100)">
      <rect
         style="opacity:0;fill:#000000;fill-opacity:1;stroke:none;stroke-width:2.5;stroke-miterlimit:4;stroke-dasharray:none;stroke-opacity:1"
         id="rect2420"
         width="100"
         height="100"
         x="0"
         y="0" />
      <path
         d="M 13.989212,38.563605 L 13.989212,48.773257 L 24.515441,48.773257 L 24.515441,56.92515 L 15.334671,56.92515 L 15.334671,67.134802 L 84.82362,67.134802 L 84.82362,56.92515 L 76.117713,56.92515 L 76.117713,48.773257 L 86.010788,48.773257 L 86.010788,38.563605 L 76.117713,38.563605 L 76.117713,30.332566 L 83.161584,30.332566 L 83.161584,20.281206 L 36.782851,20.281206 C 37.061482,19.842673 37.335188,19.394187 37.603976,18.935747 C 37.872713,18.477433 38.126633,18.028947 38.365747,17.590288 C 38.960949,17.662898 39.452306,17.61673 39.839812,17.451783 C 40.227257,17.286962 40.500969,17.042935 40.660936,16.719697 L 28.076949,12.366749 C 26.360484,15.887096 24.094974,19.293606 21.280408,22.586294 C 18.46582,25.879092 15.428651,28.593088 12.168885,30.728294 C 13.544018,31.620364 15.067549,32.744875 16.739484,34.101832 C 18.411407,35.458877 19.816225,36.682319 20.953938,37.77216 C 21.547508,37.333611 22.141089,36.865338 22.734686,36.367342 C 23.328257,35.869434 23.921843,35.361594 24.515441,34.843811 L 24.515441,38.563605 L 13.989212,38.563605 z M 51.978616,38.563605 L 48.021384,38.563605 L 48.021384,30.332566 L 51.978616,30.332566 L 51.978616,38.563605 z M 51.978616,56.92515 L 48.021384,56.92515 L 48.021384,48.773257 L 51.978616,48.773257 L 51.978616,56.92515 z M 38.524032,30.332566 L 38.524032,38.563605 L 34.645947,38.563605 L 34.645947,30.332566 L 38.524032,30.332566 z M 38.524032,48.773257 L 38.524032,56.92515 L 34.645947,56.92515 L 34.645947,48.773257 L 38.524032,48.773257 z M 61.475968,38.563605 L 61.475968,30.332566 L 65.591484,30.332566 L 65.591484,38.563605 L 61.475968,38.563605 z M 61.475968,56.92515 L 61.475968,48.773257 L 65.591484,48.773257 L 65.591484,56.92515 L 61.475968,56.92515 z M 87.831115,83.676025 C 86.772477,81.336311 85.328091,78.694859 83.497948,75.75167 C 81.667656,72.808487 79.867121,70.068109 78.096331,67.530524 L 67.016089,70.933742 C 68.744019,73.639505 70.452223,76.518388 72.140701,79.570396 C 73.829053,82.622405 75.101962,85.283643 75.959427,87.554105 L 87.831115,83.676025 z M 21.507946,67.847107 C 20.601075,70.80679 19.387525,73.672482 17.867297,76.444183 C 16.347053,79.215896 14.737781,81.468215 13.039476,83.201157 L 24.198864,87.633251 C 26.043907,85.402356 27.715831,82.780696 29.214651,79.768255 C 30.713432,76.755819 31.890707,73.679078 32.74648,70.538019 L 21.507946,67.847107 z M 66.778652,84.546611 C 66.435638,82.450928 65.855243,80.033722 65.037471,77.294988 C 64.219589,74.556264 63.322622,71.96098 62.346553,69.509143 L 51.503747,71.329464 C 52.361103,73.906616 53.139357,76.607427 53.83851,79.431892 C 54.53758,82.256362 54.999252,84.69995 55.223542,86.76266 L 66.778652,84.546611 z M 48.733684,85.021479 C 48.67759,82.960423 48.453344,80.533324 48.060957,77.740176 C 47.668494,74.94704 47.206817,72.282509 46.675926,69.746574 L 35.991406,71.012887 C 36.43162,73.634558 36.777882,76.38483 37.030181,79.263713 C 37.282425,82.142596 37.411036,84.615863 37.41601,86.683515 L 48.733684,85.021479 z"
         id="mu"
         style="fill:#ffffff" />
    </g>
    <g
       id="g2401"
       transform="translate(0,200)">
      <rect
         style="opacity:0;fill:#000000;fill-opacity:1;stroke:none;stroke-width:2.5;stroke-miterlimit:4;stroke-dasharray:none;stroke-opacity:1"
         id="rect2423"
         width="100"
         height="100"
         x="0"
         y="0" />
      <path
         d="M 63.738003,58.666673 L 49.356625,58.666673 C 49.747655,58.288235 50.100881,57.909779 50.416303,57.531304 C 50.94768,57.599134 51.398676,57.558128 51.76929,57.408304 C 52.139821,57.258517 52.420508,57.047215 52.611358,56.774391 L 50.643375,56.017469 L 55.563322,56.017469 C 58.365441,56.061652 60.481645,55.632734 61.911948,54.730715 C 63.342152,53.828752 64.304062,52.188768 64.797687,49.810772 C 66.254693,51.19217 67.57929,52.57354 68.771489,53.954883 C 69.963571,55.336271 70.909711,56.604106 71.609919,57.758376 L 79.406142,51.930126 C 78.944039,51.20952 78.373201,50.455746 77.693619,49.668852 C 77.013908,48.881994 76.272766,48.071471 75.470184,47.237255 L 82.509491,47.237255 L 82.509491,31.569118 L 71.080077,31.569118 C 71.770702,30.687672 72.433001,29.801452 73.066978,28.910449 C 73.700834,28.019557 74.249599,27.190105 74.713267,26.422103 C 75.285623,26.458419 75.768161,26.404808 76.160874,26.261254 C 76.553458,26.117811 76.827833,25.893887 76.984019,25.589493 L 69.566249,22.788913 C 72.228006,22.423116 74.70059,22.019434 76.984019,21.577847 C 77.286714,21.640977 77.589483,21.666203 77.892316,21.653535 C 78.161891,21.655169 78.417356,21.633101 78.658694,21.587312 C 78.899884,21.541633 79.098581,21.462788 79.254758,21.350766 L 71.761304,13.857315 C 65.161899,15.140975 57.072378,16.131274 47.492719,16.828202 C 37.912987,17.525256 28.290719,17.947867 18.625879,18.096033 C 19.097365,19.143157 19.535746,20.417298 19.94102,21.918455 C 20.346275,23.419724 20.614347,24.769552 20.745242,25.96795 C 21.691372,25.964847 22.637517,25.952234 23.583673,25.930101 C 24.529802,25.908079 25.475942,25.895466 26.422103,25.892262 C 27.037078,26.776958 27.62369,27.713631 28.181932,28.702306 C 28.740138,29.691074 29.21321,30.646684 29.601145,31.569118 L 16.809282,31.569118 L 16.809282,45.874813 L 26.80056,45.874813 C 25.807092,47.208908 24.633874,48.438894 23.280903,49.564771 C 21.92791,50.690713 20.451928,51.655778 18.852951,52.459967 L 26.195026,58.590977 C 28.304912,57.368904 30.121504,55.933914 31.644815,54.286026 C 33.168083,52.638193 34.45484,50.843676 35.505083,48.902474 C 35.639095,50.592939 36.033322,51.942767 36.687762,52.951969 C 37.342155,53.961208 38.360833,54.705507 39.743803,55.184868 C 36.992077,57.739475 33.658497,60.010214 29.743063,61.997103 C 25.827592,63.98402 21.71818,65.573534 17.414816,66.765662 C 18.498143,67.659777 19.699746,68.766762 21.019622,70.086628 C 22.339483,71.406502 23.408624,72.570256 24.227048,73.577897 C 25.74402,73.049635 27.25154,72.478797 28.749615,71.865374 C 30.247658,71.251969 31.717332,70.586515 33.158643,69.86902 C 33.956536,70.624354 34.782835,71.346576 35.63754,72.035678 C 36.492202,72.724798 37.356342,73.390252 38.229975,74.032041 C 34.778104,74.861502 31.122837,75.530105 27.264172,76.037869 C 23.40547,76.545641 19.390673,76.911476 15.219761,77.135399 C 16.255785,78.281812 17.324926,79.735721 18.427187,81.497117 C 19.529437,83.258514 20.352582,84.807035 20.896622,86.142685 C 26.098823,85.623865 31.097606,84.863795 35.893001,83.862473 C 40.688339,82.861138 45.176214,81.552306 49.356625,79.935979 C 53.518038,81.593303 58.02483,82.914757 62.877017,83.900321 C 67.729098,84.885875 72.936035,85.582875 78.497845,85.991305 C 79.213696,84.472725 80.14722,82.779134 81.298425,80.910508 C 82.4495,79.041873 83.610105,77.480735 84.780239,76.227102 C 80.497292,76.075717 76.403652,75.791877 72.499295,75.375572 C 68.594814,74.959267 64.917476,74.410507 61.46726,73.729281 C 63.438345,72.36841 65.24863,70.870355 66.898126,69.235098 C 68.547513,67.59986 70.017186,65.817956 71.307154,63.889386 C 72.076626,63.662332 72.581232,63.283876 72.820982,62.754016 L 65.403216,58.363905 L 63.738003,58.666673 z M 35.429391,45.647741 L 28.617153,42.847152 C 28.424758,43.265064 28.203988,43.678211 27.954855,44.086603 C 27.70569,44.49505 27.447074,44.889277 27.179018,45.269285 L 27.179018,39.819491 L 43.528379,39.819491 L 42.090238,41.333317 C 43.288659,41.863195 44.524949,42.468733 45.799121,43.149921 L 35.429391,42.544384 L 35.429391,45.647741 z M 60.029119,45.572045 C 61.088751,46.404682 62.148435,47.312979 63.208166,48.296937 C 62.003358,47.987898 60.817525,47.622055 59.650663,47.199416 C 58.483705,46.776832 57.52495,46.335301 56.774385,45.874813 C 56.645036,46.981827 56.411656,47.71982 56.074241,48.088793 C 55.736737,48.457813 55.162747,48.628117 54.352259,48.599706 L 48.221248,48.599706 C 47.114225,48.631275 46.376234,48.530352 46.00727,48.296937 C 45.638243,48.063586 45.467935,47.508519 45.496356,46.631726 L 45.496356,44.739444 C 46.404618,44.60071 47.010153,44.348402 47.312954,43.982522 C 48.421481,44.632242 49.440159,45.281926 50.368996,45.931581 C 51.297753,46.581302 52.070436,47.193137 52.687045,47.767105 L 58.136834,41.711783 C 57.756753,41.405893 57.343604,41.090521 56.897386,40.765637 C 56.451074,40.440837 55.981161,40.125446 55.487635,39.819491 L 71.609919,39.819491 L 71.609919,43.679762 C 70.886057,43.072682 70.157528,42.489231 69.424325,41.929391 C 68.691007,41.369624 67.981401,40.842941 67.295507,40.349332 L 60.029119,45.572045 z M 55.639014,29.374067 C 55.44501,28.647163 55.170631,27.868173 54.81587,27.037096 C 54.461025,26.20612 54.054183,25.370362 53.595345,24.529811 C 57.379873,24.214485 61.013064,23.861264 64.494922,23.47013 C 63.838873,24.857862 63.126113,26.264467 62.356631,27.689937 C 61.587054,29.115509 60.836448,30.408569 60.104812,31.569118 L 49.659389,31.569118 L 55.639014,29.374067 z M 39.516731,29.82822 C 39.32432,29.180153 39.046785,28.489472 38.684124,27.75616 C 38.321405,27.02295 37.892492,26.275502 37.397368,25.513806 C 38.381328,25.472855 39.36532,25.422393 40.349337,25.362421 C 41.333297,25.302551 42.317284,25.252089 43.301301,25.211037 C 43.876843,26.284957 44.409833,27.373023 44.900284,28.475234 C 45.39067,29.577538 45.791205,30.608836 46.101891,31.569118 L 35.353698,31.569118 L 39.516731,29.82822 z M 56.244549,66.008749 C 54.276524,67.585659 52.005781,68.973336 49.432312,70.17178 C 46.480311,68.973345 43.906804,67.585659 41.71178,66.008749 L 56.244549,66.008749 z"
         id="ai"
         style="fill:#ff0000" />
    </g>
  </g>
</svg>
