<?xml version="1.0" encoding="UTF-8"?><svg xmlns="http://www.w3.org/2000/svg" width="100%" height="100%"><defs><font id="web" horiz-adv-x="1256"><!--



NOTICE: This font software is the valuable property 
of Webtype LLC, The Font Bureau, Webtype and/or its 
suppliers and its use by you is covered under the terms 
of the Web Font license agreement between you and Webtype 
LLC. You may ONLY use this font software with the licensed 
web site. Except as specifically permitted by the license, 
you may not copy this font software. If you have any 
questions, please contact Webtype.com. 

For more information, please visit http://www.webtype.com/store/license/?id=23

Licensed to: myspace.com

Serial number: SH-1245
--><font-face font-family="" units-per-em="2048" panose-1="2 0 5 3 0 0 0 2 0 4" ascent="2249" descent="-602" alphabetic="0"/><missing-glyph horiz-adv-x="1024" d="M0 1434H1024V0H0V1434ZM102 102H922V1331H102V102Z"/><glyph unicode=" " horiz-adv-x="551"/><glyph unicode="!" horiz-adv-x="731" d="M250 479L166 1516H580L498 479H250ZM197 0V303H549V0H197Z"/><glyph unicode="&quot;" horiz-adv-x="942" d="M164 963L129 1364V1516H410V1364L375 963H164ZM567 963L532 1364V1516H811V1364L776 963H567Z"/><glyph unicode="#" horiz-adv-x="1563" d="M197 0L276 381H51V625H328L383 891H139V1135H434L514 1516H809L729 1135H958L1038 1516H1333L1253 1135H1509V891H1202L1147 625H1421V381H1096L1016 0H721L801 381H573L492 0H197ZM623 625H852L907 891H680L623 625Z"/><glyph unicode="$" horiz-adv-x="1399" d="M602 -18Q503 -8 425 21T284 93T173 190T88 307L311 451Q342 407 374 368T441 298T519 245T612 213V647Q519 670 432 701T278 783T170 907T129 1090Q129 1187 162 1265T257 1401T406 1492T602 1536V1677H799V1530Q884 1518 951 1493T1070 1432T1164 1352T1239 1260L1018 1100Q995 1132 972 1161T922 1214T864 1256T793 1286V887Q864 870 928 850T1048 804T1149 743T1226 663T1275 561T1292 432Q1292 348 1264 271T1176 134T1023 33T799 -18V-190H602V-18ZM793 211Q892 225 940 270T989 401Q989 478 941 523T793 600V211ZM612 1298Q519 1286 476 1237T432 1118Q432 1080 443 1052T477 1003T534 965T612 934V1298Z"/><glyph unicode="%" horiz-adv-x="2269" d="M1772 -20Q1676 -20 1600 15T1471 116T1390 272T1362 475Q1362 588 1390 680T1472 837T1602 937T1774 973Q1868 973 1943 938T2071 837T2152 681T2181 477Q2181 366 2153 274T2073 117T1944 16T1772 -20ZM500 549Q403 549 327 584T197 684T116 840T88 1044Q88 1157 116 1249T198 1405T328 1505T500 1540Q594 1540 669 1505T798 1406T879 1250T907 1047Q907 935 879 843T799 686T671 585T500 549ZM541 0L1446 1516H1729L823 0H541ZM500 756Q537 756 563 776T605 833T629 924T637 1044Q637 1181 605 1255T500 1329Q423 1329 391 1254T358 1047Q358 910 391 833T500 756ZM1774 188Q1811 188 1837 208T1879 265T1903 356T1911 477Q1911 613 1879 686T1772 760Q1734 760 1708 741T1664 685T1640 596T1632 477Q1632 340 1665 264T1774 188Z"/><glyph unicode="&amp;" horiz-adv-x="1522" d="M604 -29Q463 -29 356 -1T177 80T69 208T33 375Q33 467 61 537T138 660T249 754T381 827Q336 914 311 997T285 1161Q285 1236 310 1305T388 1427T522 1512T715 1544Q818 1544 892 1516T1015 1442T1085 1336T1108 1212Q1108 1127 1079 1062T1002 945T891 853T758 778Q778 749 801 720T850 659Q895 604 936 557T1016 473Q1053 536 1077 612T1112 780H1393Q1376 660 1339 541T1237 315Q1302 280 1370 264T1516 248V-20Q1368 -19 1252 9T1032 96Q947 37 842 4T604 -29ZM653 952Q692 974 725 999T783 1055T820 1121T834 1200Q834 1223 828 1246T809 1287T774 1317T721 1329Q693 1329 669 1320T627 1292T599 1245T588 1180Q588 1124 604 1068T653 952ZM606 201Q721 201 813 260Q717 355 606 494Q578 529 551 565T500 635Q438 593 403 541T367 422Q367 369 384 328T432 259T508 216T606 201Z"/><glyph unicode="'" horiz-adv-x="541" d="M164 963L129 1364V1516H410V1364L375 963H164Z"/><glyph unicode="(" horiz-adv-x="827" d="M614 -420Q489 -315 392 -203T227 33T125 292T90 584Q90 738 125 874T227 1134T391 1370T614 1587L766 1427Q691 1344 630 1250T526 1050T458 828T434 584Q434 456 458 338T527 112T635 -91T776 -270L614 -420Z"/><glyph unicode=")" horiz-adv-x="827" d="M51 -270Q128 -187 190 -92T297 111T366 337T391 584Q391 711 368 827T301 1049T196 1249T59 1427L213 1587Q338 1482 435 1370T599 1135T700 875T735 584Q735 429 701 293T600 33T436 -202T213 -420L51 -270Z"/><glyph unicode="*" horiz-adv-x="1040" d="M375 618L203 721L393 997L55 975V1167L395 1143L203 1421L375 1524L520 1219L666 1524L840 1421L647 1143L985 1167V975L647 997L840 721L668 618L520 924L375 618Z"/><glyph unicode="+" horiz-adv-x="1323" d="M530 178V588H137V848H530V1257H793V848H1186V588H793V178H530Z"/><glyph unicode="," horiz-adv-x="578" d="M160 -246L246 0H113V317H465V45L313 -246H160Z"/><glyph unicode="-" horiz-adv-x="731" d="M96 532V754H635V532H96Z"/><glyph unicode="." horiz-adv-x="578" d="M113 0V317H465V0H113Z"/><glyph unicode="/" horiz-adv-x="1313" d="M47 0L928 1516H1266L385 0H47Z"/><glyph unicode="0" horiz-adv-x="1425" d="M713 -29Q564 -29 447 27T248 187T125 435T82 758Q82 935 124 1080T248 1328T446 1487T713 1544Q863 1544 979 1488T1176 1328T1299 1080T1341 758Q1341 581 1299 436T1177 187T980 28T713 -29ZM713 231Q859 231 935 364T1012 758Q1012 1017 934 1147T713 1278Q564 1278 489 1149T414 758Q414 497 491 364T713 231Z"/><glyph unicode="1" horiz-adv-x="938" d="M66 0V260H340V1214Q312 1200 279 1188T211 1166T139 1151T70 1145V1417Q158 1420 227 1444T348 1516H662V260H901V0H66Z"/><glyph unicode="2" horiz-adv-x="1257" d="M53 0V33Q53 115 67 197T129 363T266 536T506 721Q594 777 656 818T758 899T816 981T834 1081Q834 1166 783 1216T635 1266Q590 1266 545 1252T458 1210T376 1142T303 1049L68 1214Q117 1289 175 1350T305 1454T460 1520T645 1544Q767 1544 862 1513T1023 1425T1123 1286T1157 1104Q1157 1041 1146 981T1098 859T996 735T821 602Q739 550 672 503T556 413T480 332T449 260H1167V0H53Z"/><glyph unicode="3" horiz-adv-x="1276" d="M612 -29Q418 -29 274 36T23 231L229 416Q267 370 311 336T404 280T501 247T598 236Q726 236 792 290T858 446Q858 509 835 552T767 621T654 658T496 670H420V913H502Q606 913 670 929T769 971T815 1032T827 1104Q827 1141 816 1172T779 1225T711 1260T608 1272Q525 1272 437 1240T266 1128L84 1337Q135 1385 199 1423T335 1488T487 1528T647 1542Q771 1542 866 1516T1025 1441T1123 1319T1157 1155Q1157 1089 1138 1032T1081 929T988 851T860 803Q945 789 1010 756T1118 673T1184 561T1206 426Q1206 319 1163 235T1042 92T855 2T612 -29Z"/><glyph unicode="4" horiz-adv-x="1384" d="M780 0V297H45V539L735 1516H1102V559H1358V297H1102V0H780ZM389 559H780V1118H776L389 559Z"/><glyph unicode="5" horiz-adv-x="1247" d="M600 -29Q506 -29 425 -15T274 25T144 89T33 172L201 391Q238 357 281 329T374 280T475 248T580 236Q655 236 709 256T799 311T851 396T868 504Q868 634 802 706T606 778Q529 778 458 742T328 633L113 700L174 1516H1094L1077 1264H430L401 928Q420 946 449 963T516 993T601 1014T707 1022Q828 1022 920 985T1074 880T1168 720T1200 516Q1200 395 1159 295T1040 122T851 11T600 -29Z"/><glyph unicode="6" horiz-adv-x="1339" d="M700 -29Q564 -29 451 20T255 165T128 403T82 731Q82 877 109 993T184 1200T296 1356T434 1462T589 1524T750 1544Q836 1544 903 1533T1022 1505T1115 1464T1190 1417L1049 1192Q1016 1214 985 1230T919 1258T847 1274T764 1280Q691 1280 629 1251T521 1165T445 1026T408 840Q488 902 581 939T786 977Q887 977 976 950T1132 864T1237 714T1276 496Q1276 377 1235 281T1117 115T935 9T700 -29ZM715 223Q776 223 822 244T899 300T947 383T963 481Q963 529 952 574T912 654T836 710T719 731Q622 731 544 696T408 604Q420 412 497 318T715 223Z"/><glyph unicode="7" horiz-adv-x="1104" d="M166 0L745 1247H25V1516H1085V1270L502 0H166Z"/><glyph unicode="8" horiz-adv-x="1307" d="M653 -29Q510 -29 397 0T205 83T85 215T43 391Q43 463 69 523T142 634T249 723T379 791Q317 823 268 858T184 936T131 1034T113 1161Q113 1233 147 1302T248 1425T417 1511T653 1544Q791 1544 892 1511T1060 1424T1159 1302T1192 1161Q1192 1040 1123 948T930 801Q1003 769 1064 733T1169 649T1237 539T1262 391Q1262 293 1221 216T1101 84T909 0T653 -29ZM676 909Q727 934 764 958T824 1009T859 1064T870 1130Q870 1160 859 1191T822 1249T755 1292T655 1309Q596 1309 555 1294T487 1255T448 1199T436 1137Q436 1094 452 1062T499 1003T574 954T676 909ZM653 199Q718 199 769 215T855 260T909 327T928 410Q928 453 911 488T856 554T763 613T629 674Q512 617 446 554T379 410Q379 367 397 329T451 262T537 216T653 199Z"/><glyph unicode="9" horiz-adv-x="1339" d="M590 -29Q502 -29 434 -18T311 12T215 55T139 104L283 322Q317 299 349 281T415 251T489 233T575 227Q648 227 709 258T817 347T893 488T930 676Q849 614 756 577T551 539Q451 539 363 566T208 652T102 802T63 1020Q63 1138 104 1234T222 1400T404 1506T639 1544Q775 1544 888 1495T1082 1350T1209 1112T1255 784Q1255 639 1228 522T1154 315T1042 160T904 53T750 -9T590 -29ZM621 784Q717 784 795 819T930 911Q919 1101 840 1192T625 1284Q563 1284 517 1264T440 1210T393 1131T377 1034Q377 986 388 941T427 861T502 805T621 784Z"/><glyph unicode=":" horiz-adv-x="604" d="M125 774V1092H479V774H125ZM125 0V317H479V0H125Z"/><glyph unicode=";" horiz-adv-x="604" d="M168 -246L256 0H125V317H479V53L322 -246H168ZM125 774V1092H479V774H125Z"/><glyph unicode="&lt;" horiz-adv-x="1323" d="M1206 98L123 573V754L1206 1229V958L475 664L1206 369V98Z"/><glyph unicode="=" horiz-adv-x="1323" d="M143 788V1022H1178V788H143ZM143 322V555H1178V322H143Z"/><glyph unicode="&gt;" horiz-adv-x="1323" d="M127 98V369L858 664L127 958V1229L1210 754V573L127 98Z"/><glyph unicode="?" horiz-adv-x="1217" d="M432 475Q427 517 426 550T424 623Q424 681 441 727T487 811T556 879T641 934Q683 958 714 979T765 1024T795 1076T805 1143Q805 1205 755 1243T612 1282Q561 1282 511 1268T416 1229T330 1172T260 1104L61 1290Q108 1342 167 1388T299 1469T459 1524T647 1544Q764 1544 853 1516T1004 1438T1096 1319T1128 1169Q1128 1098 1109 1044T1058 948T981 874T887 815Q840 791 808 771T756 729T724 685T708 632T703 564T702 475H432ZM391 0V303H743V0H391Z"/><glyph unicode="@" horiz-adv-x="1778" d="M870 -29Q689 -29 544 29T297 192T141 440T86 754Q86 924 144 1069T309 1319T564 1484T893 1544Q1073 1544 1220 1487T1472 1329T1634 1087T1692 778Q1692 675 1665 590T1587 442T1460 346T1288 311Q1227 311 1182 324T1105 362T1051 419T1016 494Q988 465 956 437T884 387T797 352T694 338Q631 338 581 359T494 420T439 518T420 653Q420 780 451 881T535 1054T660 1163T811 1202Q860 1202 896 1194T961 1172T1010 1138T1049 1098L1063 1186H1313L1212 575Q1200 512 1226 479T1325 446Q1373 446 1414 467T1484 530T1529 632T1546 770Q1546 911 1500 1027T1368 1227T1161 1357T891 1403Q741 1403 621 1355T417 1221T288 1016T242 754Q242 612 286 492T412 284T613 147T881 98Q995 98 1090 123T1266 203L1335 102Q1246 39 1127 5T870 -29ZM803 528Q848 528 891 551T969 610L1020 926Q986 963 953 979T872 995Q821 995 784 968T722 897T685 796T672 680Q672 644 678 616T700 568T740 538T803 528Z"/><glyph unicode="A" horiz-adv-x="1460" d="M35 0L571 1522H889L1425 0H1087L975 338H459L342 0H35ZM541 580H897L723 1096H719L541 580Z"/><glyph unicode="B" horiz-adv-x="1460" d="M156 0V1516H762Q831 1516 898 1510T1026 1487T1137 1444T1224 1375T1282 1276T1303 1141Q1303 1060 1280 1000T1216 898T1124 830T1014 793V788Q1083 776 1143 751T1247 682T1317 573T1343 418Q1343 304 1297 224T1174 95T998 23T793 0H156ZM483 254H752Q890 254 954 307T1018 457Q1018 557 948 606T737 655H483V254ZM483 891H729Q860 891 921 938T983 1073Q983 1162 925 1209T733 1257H483V891Z"/><glyph unicode="C" horiz-adv-x="1493" d="M772 -29Q624 -29 498 19T280 165T136 411T84 760Q84 957 137 1104T284 1349T502 1495T772 1544Q916 1544 1020 1508T1198 1408T1316 1257T1386 1067L1071 975Q1053 1040 1029 1094T969 1186T886 1246T770 1268Q684 1268 619 1233T509 1131T441 971T418 760Q418 640 441 544T510 380T621 276T774 240Q841 240 891 260T980 321T1046 421T1094 559L1407 489Q1379 375 1330 280T1205 116T1022 9T772 -29Z"/><glyph unicode="D" horiz-adv-x="1516" d="M156 0V1516H621Q794 1516 942 1477T1199 1349T1370 1117T1432 766Q1432 553 1370 407T1198 170T940 40T621 0H156ZM487 270H643Q767 270 853 298T994 387T1073 540T1098 762Q1098 883 1073 972T993 1120T851 1208T639 1237H487V270Z"/><glyph unicode="E" horiz-adv-x="1296" d="M156 0V1516H1188V1237H489V911H995V647H489V270H1225V0H156Z"/><glyph unicode="F" horiz-adv-x="1200" d="M156 0V1516H1157V1237H489V868H965V604H489V0H156Z"/><glyph unicode="G" horiz-adv-x="1559" d="M748 -29Q576 -29 451 30T244 196T123 447T84 764Q84 942 132 1086T269 1332T486 1489T774 1544Q882 1544 977 1521T1151 1441T1290 1291T1386 1059L1081 975Q1057 1054 1027 1109T959 1200T875 1252T772 1268Q741 1268 703 1261T626 1234T550 1179T484 1089T438 955T420 770Q420 664 436 584T479 444T542 346T619 284T703 250T786 240Q848 240 900 259T993 313T1059 398T1098 512H834V760H1415V0H1147V209H1143Q1131 175 1100 134T1019 56T902 -4T748 -29Z"/><glyph unicode="H" horiz-adv-x="1575" d="M156 0V1516H489V928H1085V1516H1419V0H1085V647H489V0H156Z"/><glyph unicode="I" horiz-adv-x="676" d="M172 0V1516H504V0H172Z"/><glyph unicode="J" horiz-adv-x="1096" d="M463 -29Q384 -29 319 -16T200 20T102 73T20 139L207 348Q231 327 258 307T315 272T378 247T446 238Q491 238 526 252T585 298T622 378T635 498V1516H969V446Q969 340 941 253T852 103T695 6T463 -29Z"/><glyph unicode="K" horiz-adv-x="1470" d="M156 0V1516H489V889L997 1516H1386L872 924L1440 0H1063L655 672L489 485V0H156Z"/><glyph unicode="L" horiz-adv-x="1200" d="M156 0V1516H489V270H1157V0H156Z"/><glyph unicode="M" horiz-adv-x="1860" d="M156 0V1516H596L934 401H938L1253 1516H1704V0H1382V1034H1378Q1370 985 1361 942T1341 858T1318 778T1294 696L1067 0H772L547 696Q534 739 523 775T502 851T482 938T459 1051H455V0H156Z"/><glyph unicode="N" horiz-adv-x="1591" d="M156 0V1516H489L1124 549H1128V1516H1436V0H1128L467 975H463V0H156Z"/><glyph unicode="O" horiz-adv-x="1597" d="M799 -29Q661 -29 533 19T304 164T144 410T84 758Q84 957 144 1105T304 1350T532 1496T799 1544Q890 1544 978 1523T1145 1458T1291 1351T1407 1199T1483 1001T1511 758Q1511 625 1484 515T1408 318T1292 165T1145 57T978 -7T799 -29ZM799 240Q886 240 956 276T1076 379T1153 543T1180 758Q1180 877 1153 971T1077 1132T957 1233T799 1268Q710 1268 640 1233T520 1132T445 972T418 758Q418 639 444 543T520 380T639 276T799 240Z"/><glyph unicode="P" horiz-adv-x="1384" d="M156 0V1516H707Q788 1516 865 1508T1010 1479T1137 1423T1236 1334T1301 1205T1325 1030Q1325 928 1300 852T1231 722T1128 632T999 576T854 547T702 539H487V0H156ZM487 797H715Q793 797 847 812T934 855T983 926T999 1022Q999 1075 984 1116T936 1185T848 1228T715 1243H487V797Z"/><glyph unicode="Q" horiz-adv-x="1597" d="M1106 -406Q991 -406 900 -376T745 -292T646 -165T608 -4Q498 21 402 81T235 237T123 463T82 758Q82 957 142 1105T302 1350T530 1496T797 1544Q888 1544 976 1523T1143 1458T1289 1351T1405 1199T1481 1001T1509 758Q1509 587 1464 453T1343 223T1164 68T946 -12Q961 -58 991 -84T1062 -122T1153 -138T1262 -141H1366V-406H1106ZM797 240Q884 240 954 276T1074 379T1149 543T1176 758Q1176 877 1150 971T1074 1132T955 1233T797 1268Q708 1268 638 1233T517 1132T441 972T414 758Q414 639 440 543T517 380T637 276T797 240Z"/><glyph unicode="R" horiz-adv-x="1444" d="M156 0V1516H725Q865 1516 975 1490T1163 1408T1280 1262T1321 1047Q1321 957 1300 887T1239 764T1141 674T1006 614L1343 0H991L676 571H483V0H156ZM483 829H711Q783 829 836 840T925 876T977 941T995 1038Q995 1150 925 1196T711 1243H483V829Z"/><glyph unicode="S" horiz-adv-x="1417" d="M719 -29Q596 -29 496 -1T316 76T176 194T74 344L326 494Q357 432 400 384T496 303T609 253T735 236Q793 236 841 246T925 279T979 333T999 410Q999 453 979 484T920 541T824 587T692 629Q624 648 557 667T429 712T314 769T222 847T161 952T139 1092Q139 1198 178 1281T290 1423T463 1513T686 1544Q803 1544 896 1518T1064 1449T1193 1350T1288 1233L1057 1057Q1027 1105 986 1145T896 1213T793 1256T684 1272Q578 1272 522 1230T465 1120Q465 1075 485 1043T546 986T644 942T776 901Q842 883 909 863T1037 817T1150 757T1242 677T1303 571T1325 432Q1325 340 1290 257T1180 110T992 9T719 -29Z"/><glyph unicode="T" horiz-adv-x="1327" d="M496 0V1237H45V1516H1282V1237H829V0H496Z"/><glyph unicode="U" horiz-adv-x="1485" d="M743 -25Q585 -25 470 17T279 138T168 329T131 580V1516H465V588Q465 506 481 442T531 335T619 269T748 246Q895 246 960 334T1026 588V1516H1354V582Q1354 442 1318 330T1207 139T1017 18T743 -25Z"/><glyph unicode="V" horiz-adv-x="1430" d="M557 -6L35 1516H373L719 432H723L1081 1516H1395L872 -6H557Z"/><glyph unicode="W" horiz-adv-x="1958" d="M446 0L43 1516H379L539 825Q549 784 559 745T578 667T596 585T612 494H616Q630 587 648 664T686 823L840 1516H1147L1311 819Q1321 774 1331 737T1349 662T1366 585T1382 494H1386Q1394 545 1401 584T1417 660T1434 732T1454 815L1608 1516H1915L1520 0H1235L995 1055H991L735 0H446Z"/><glyph unicode="X" horiz-adv-x="1485" d="M66 0L551 801L109 1516H489L760 1061L1016 1516H1360L928 799L1419 0H1049L727 530L416 0H66Z"/><glyph unicode="Y" horiz-adv-x="1415" d="M541 0V643L18 1516H362L709 926L1057 1516H1397L872 643V0H541Z"/><glyph unicode="Z" horiz-adv-x="1352" d="M61 0V229L852 1239H113V1516H1272V1278L498 270H1272V0H61Z"/><glyph unicode="[" horiz-adv-x="909" d="M141 -410V1516H850V1286H473V-180H850V-410H141Z"/><glyph unicode="\" horiz-adv-x="1251" d="M897 0L16 1516H354L1235 0H897Z"/><glyph unicode="]" horiz-adv-x="909" d="M57 -410V-180H434V1286H57V1516H766V-410H57Z"/><glyph unicode="^" horiz-adv-x="1323" d="M578 1516H756L1231 668H963L666 1184L371 668H100L578 1516Z"/><glyph unicode="_" horiz-adv-x="1024" d="M0 -324V-94H1024V-324H0Z"/><glyph unicode="`" horiz-adv-x="1024" d="M201 1563H530L721 1208H504L201 1563Z"/><glyph unicode="a" horiz-adv-x="1182" d="M365 -16Q302 -16 246 4T146 61T78 154T53 279Q53 373 94 446T219 573T434 660T745 709V735Q745 795 712 830T598 866Q493 866 404 828T240 731L100 920Q141 957 193 992T311 1054T460 1097T645 1114Q757 1114 837 1087T968 1005T1043 871T1067 686V266Q1067 167 1074 105T1098 0H770Q759 34 752 73T745 160Q670 75 578 30T365 -16ZM496 231Q582 231 642 257T745 326V528Q550 508 463 460T375 336Q375 283 408 257T496 231Z"/><glyph unicode="b" horiz-adv-x="1278" d="M786 -16Q675 -16 596 22T455 129V0H125V1516H455V924Q482 961 515 995T589 1056T680 1098T791 1114Q884 1114 961 1079T1093 972T1179 795T1210 547Q1210 406 1179 300T1092 124T958 19T786 -16ZM674 231Q777 231 829 313T881 545Q881 613 869 668T831 761T765 821T670 842Q638 842 609 833T552 810T500 776T455 735V332Q508 281 558 256T674 231Z"/><glyph unicode="c" horiz-adv-x="1137" d="M602 -23Q538 -23 474 -11T350 30T238 102T148 209T88 355T66 545Q66 654 90 738T155 886T250 993T366 1063T491 1102T616 1114Q727 1114 806 1087T941 1013T1032 907T1092 780L815 688Q799 740 779 775T734 832T679 863T612 872Q512 872 454 790T395 543Q395 470 407 409T445 303T511 234T608 209Q641 209 672 218T731 250T782 310T823 403L1096 309Q1070 245 1030 186T931 80T791 5T602 -23Z"/><glyph unicode="d" horiz-adv-x="1278" d="M485 -16Q392 -16 315 17T183 119T97 291T66 537Q66 678 97 786T184 966T318 1076T489 1114Q601 1114 681 1075T821 954V1516H1151V266Q1151 167 1158 105T1184 0H846Q840 10 836 29T828 71T823 119T821 164Q794 127 761 95T687 38T596 -1T485 -16ZM608 231Q639 231 669 240T726 264T777 298T821 338V741Q768 792 718 817T604 842Q501 842 448 765T395 539Q395 470 407 414T446 317T513 254T608 231Z"/><glyph unicode="e" horiz-adv-x="1182" d="M623 -23Q516 -23 416 6T238 103T113 278T66 545Q66 651 91 734T158 881T255 988T372 1061T495 1101T614 1114Q670 1114 729 1104T844 1067T949 996T1036 884T1094 723T1116 506V457H393Q399 389 420 342T475 264T552 221T647 207Q695 207 741 218T829 247T907 288T971 338L1098 141Q1002 60 884 19T623 -23ZM821 651Q809 767 757 823T612 879Q574 879 539 866T476 825T427 754T397 651H821Z"/><glyph unicode="f" horiz-adv-x="829" d="M223 0V852H41V1092H223V1167Q223 1236 237 1300T291 1414T406 1494T602 1524Q626 1524 657 1522T718 1518T771 1513T801 1509V1280Q795 1281 784 1282T759 1285T731 1287T705 1288Q675 1288 647 1284T598 1267T564 1227T551 1157V1092H788V852H551V0H223Z"/><glyph unicode="g" horiz-adv-x="1260" d="M555 -410Q395 -410 287 -393T113 -345T19 -267T-10 -164Q-10 -124 5 -91T46 -30T106 18T178 55Q143 78 124 110T104 186Q104 220 116 251T150 310T201 364T262 410Q172 462 127 543T82 723Q82 805 114 876T209 1000T363 1083T573 1114Q695 1114 786 1083T940 995Q968 1019 1002 1039T1074 1073T1149 1097T1221 1108V856Q1192 856 1144 852T1036 831Q1046 810 1051 783T1057 723Q1057 640 1026 569T933 446T781 364T573 334Q527 334 485 339T406 352Q389 338 379 325T369 297Q369 266 400 257T492 244L655 233Q796 228 895 208T1059 151T1152 57T1182 -76Q1182 -160 1135 -223T1005 -327T806 -389T555 -410ZM578 516Q623 516 657 531T716 572T752 633T764 711Q764 752 752 787T717 849T659 890T578 905Q533 905 498 890T439 849T403 788T391 711Q391 669 403 634T440 572T498 531T578 516ZM608 -244Q671 -244 723 -237T813 -215T872 -179T893 -131Q893 -106 884 -87T845 -55T757 -34T602 -20L430 -12L358 -6Q327 -26 312 -51T297 -104Q297 -140 314 -166T368 -209T465 -235T608 -244Z"/><glyph unicode="h" horiz-adv-x="1266" d="M125 0V1516H455V920Q479 952 514 986T596 1049T701 1096T831 1114Q901 1114 960 1096T1061 1040T1127 942T1151 797V0H821V692Q821 767 792 804T694 842Q626 842 568 812T455 733V0H125Z"/><glyph unicode="i" horiz-adv-x="602" d="M137 0V1092H465V0H137ZM135 1241V1505H467V1241H135Z"/><glyph unicode="j" horiz-adv-x="602" d="M111 -416Q87 -416 55 -415T-7 -411T-60 -406T-90 -401V-178Q-83 -180 -72 -182T-48 -186T-22 -189T4 -190Q72 -190 104 -156T137 -41V1092H465V-104Q465 -142 461 -180T443 -252T406 -317T342 -369T246 -403T111 -416ZM135 1241V1505H467V1241H135Z"/><glyph unicode="k" horiz-adv-x="1198" d="M125 0V1516H455V684L795 1092H1149L793 684L1169 0H829L588 444L455 295V0H125Z"/><glyph unicode="l" horiz-adv-x="602" d="M137 0V1516H465V0H137Z"/><glyph unicode="m" horiz-adv-x="1909" d="M125 0V1092H455V920Q479 952 514 986T594 1049T693 1096T813 1114Q881 1114 932 1101T1019 1062T1077 1000T1112 920Q1137 951 1172 985T1252 1048T1353 1095T1473 1114Q1556 1114 1616 1089T1715 1020T1773 915T1792 780V0H1462V692Q1462 729 1457 757T1439 804T1403 832T1343 842Q1282 842 1230 812T1124 733V0H795V692Q795 729 790 757T772 804T735 832T676 842Q614 842 562 812T455 733V0H125Z"/><glyph unicode="n" horiz-adv-x="1266" d="M127 0V1092H457V920Q481 952 516 986T598 1049T703 1096T834 1114Q903 1114 961 1096T1061 1040T1127 942T1151 797V0H823V692Q823 767 793 804T694 842Q628 842 570 812T457 733V0H127Z"/><glyph unicode="o" horiz-adv-x="1247" d="M625 -23Q559 -23 492 -11T362 30T246 102T152 209T89 355T66 545Q66 652 89 736T151 883T245 990T361 1061T491 1101T625 1114Q691 1114 758 1102T887 1062T1002 990T1096 883T1159 736T1182 545Q1182 439 1159 356T1096 209T1003 102T887 30T758 -10T625 -23ZM625 209Q683 209 726 233T797 301T838 406T852 543Q852 611 840 671T800 775T729 846T625 872Q566 872 523 848T451 781T409 677T395 543Q395 474 407 414T447 308T518 236T625 209Z"/><glyph unicode="p" horiz-adv-x="1278" d="M125 -410V1092H455V926Q482 963 515 997T589 1057T680 1098T791 1114Q884 1114 961 1079T1093 972T1179 795T1210 547Q1210 406 1179 300T1092 124T958 19T786 -16Q675 -16 596 22T455 129V-410H125ZM674 231Q777 231 829 313T881 545Q881 613 869 668T831 761T765 821T670 842Q638 842 609 833T552 810T500 776T455 735V332Q508 281 558 256T674 231Z"/><glyph unicode="q" horiz-adv-x="1278" d="M821 -410V156Q794 122 761 91T687 36T596 -2T485 -16Q392 -16 315 17T183 119T97 291T66 537Q66 678 97 786T184 966T318 1076T489 1114Q600 1114 679 1075T821 956V1092H1151V-410H821ZM608 231Q639 231 669 240T726 264T777 298T821 338V741Q768 792 718 817T604 842Q501 842 448 765T395 539Q395 470 407 414T446 317T513 254T608 231Z"/><glyph unicode="r" horiz-adv-x="866" d="M125 0V1092H455V909H457Q479 943 510 979T586 1046T689 1095T825 1114H836L831 821Q826 822 815 823T791 825T766 826T745 827Q696 827 653 815T574 783T508 735T455 678V0H125Z"/><glyph unicode="s" horiz-adv-x="1094" d="M555 -23Q465 -23 390 -10T252 25T138 79T45 145L176 330Q213 298 258 272T352 227T453 198T555 188Q593 188 625 194T680 214T716 248T729 295Q729 323 718 343T682 379T618 405T522 426Q470 435 419 446T319 474T230 515T159 574T112 656T94 768Q94 850 126 914T214 1023T348 1090T518 1114Q602 1114 670 1104T796 1074T903 1026T997 961L868 774Q785 831 705 862T547 893Q476 893 438 868T399 797Q399 772 410 755T446 724T506 700T594 680Q648 671 701 660T804 633T895 593T969 535T1018 455T1036 346Q1036 247 997 177T890 63T736 -2T555 -23Z"/><glyph unicode="t" horiz-adv-x="874" d="M584 -14Q462 -14 389 7T277 70T226 170T213 307V852H31V1092H213V1466H541V1092H821V852H541V379Q541 335 548 306T572 258T618 233T692 225Q706 225 721 226T752 228T779 232T801 238V2Q792 0 767 -3T710 -8T645 -12T584 -14Z"/><glyph unicode="u" horiz-adv-x="1266" d="M434 -23Q364 -23 306 -5T205 51T139 150T115 295V1092H444V391Q444 317 474 279T573 240Q640 240 697 271T811 350V1092H1141V0H811V170Q786 138 751 104T670 42T565 -4T434 -23Z"/><glyph unicode="v" horiz-adv-x="1106" d="M387 -2L-4 1092H336L565 365H569L799 1092H1108L719 -2H387Z"/><glyph unicode="w" horiz-adv-x="1587" d="M324 0L4 1092H336L430 700Q441 657 450 620T467 544T484 463T502 367H506Q516 421 524 464T542 547T560 625T582 709L676 1092H932L1032 702Q1044 659 1054 622T1072 545T1090 463T1110 367H1114Q1124 419 1133 461T1150 542T1168 618T1190 698L1290 1092H1583L1264 0H958L795 666H791L627 0H324Z"/><glyph unicode="x" horiz-adv-x="1122" d="M23 0L397 563L49 1092H395L584 791L762 1092H1094L741 563L1110 0H766L557 330L354 0H23Z"/><glyph unicode="y" horiz-adv-x="1147" d="M297 -418Q236 -418 188 -414T102 -405T36 -392T-14 -379L55 -125Q67 -128 87 -133T133 -142T192 -150T262 -154Q316 -154 348 -132T401 -59L422 -6L4 1092H344L584 383H588L829 1092H1149L690 -115Q662 -186 628 -242T548 -337T441 -397T297 -418Z"/><glyph unicode="z" horiz-adv-x="1085" d="M59 0V170L588 852H98V1092H995V918L465 233H1036V0H59Z"/><glyph unicode="{" horiz-adv-x="903" d="M569 -410Q498 -410 444 -388T354 -325T298 -229T279 -106V190Q279 265 265 313T223 388T152 426T51 436V670Q109 670 151 680T222 717T265 792T279 915V1212Q279 1279 298 1335T353 1431T444 1493T569 1516H860V1286H770Q686 1286 648 1245T610 1124V870Q610 795 599 742T565 652T510 592T436 555V551Q478 537 510 514T564 455T598 365T610 236V-18Q610 -97 648 -138T770 -180H860V-410H569Z"/><glyph unicode="|" horiz-adv-x="819" d="M246 -410V1516H571V-410H246Z"/><glyph unicode="}" horiz-adv-x="903" d="M43 -410V-180H133Q217 -180 255 -139T293 -18V266Q293 341 304 390T338 470T393 519T467 551V555Q425 569 393 587T339 636T305 716T293 840V1124Q293 1203 256 1245T135 1288H45L43 1516H365Q435 1516 484 1499T565 1447T611 1361T625 1243V915Q625 840 639 793T681 718T751 680T852 670V436Q794 436 752 426T681 389T639 313T625 190V-137Q625 -204 611 -255T566 -340T485 -392T365 -410H43Z"/><glyph unicode="~" horiz-adv-x="1323" d="M932 528Q887 528 837 538T737 563T637 595T543 626T461 651T397 662Q362 662 340 644T309 569L117 602Q127 686 150 745T209 842T289 897T389 913Q437 913 488 903T591 878T690 846T783 814T863 789T926 778Q961 778 984 797T1016 872L1206 848Q1196 763 1172 702T1113 601T1032 544T932 528Z"/><glyph unicode=" " horiz-adv-x="551"/><glyph unicode="¡" horiz-adv-x="731" d="M152 0L233 1036H481L565 0H152ZM182 1212V1516H535V1212H182Z"/><glyph unicode="¢" horiz-adv-x="1147" d="M344 35Q285 65 235 110T147 219T88 363T66 545Q66 650 90 733T154 879T249 987T365 1060T490 1101T614 1114Q627 1114 639 1114T662 1112L719 1307H887L819 1081Q877 1060 922 1029T1000 958T1057 873T1098 780L844 688Q827 744 800 781T739 842L553 207Q565 205 578 204T606 203Q640 203 675 213T744 248T805 310T852 403L1102 309Q1076 245 1035 186T934 80T791 5T600 -23Q546 -23 498 -14L424 -264H256L344 35ZM602 879Q554 877 512 856T438 794T388 691T369 543Q369 374 428 291L602 879Z"/><glyph unicode="£" horiz-adv-x="1411" d="M184 684V862H356Q324 921 302 984T279 1122Q279 1211 311 1288T404 1422T548 1511T737 1544Q826 1544 895 1528T1015 1484T1104 1417T1167 1333T1210 1239T1239 1139L952 1077Q944 1119 932 1158T896 1226T838 1272T752 1290Q680 1290 638 1247T596 1124Q596 1089 604 1056T625 992T657 928T694 862H1059V684H782Q799 636 810 581T821 461Q821 404 808 351T770 248Q807 228 844 216T924 203Q961 203 991 212T1042 247T1075 314T1090 422H1370Q1367 366 1359 311T1334 205T1289 112T1219 38T1119 -11T981 -29Q925 -29 877 -20T786 4T708 40T639 84Q573 31 492 1T317 -29Q261 -29 209 -15T115 28T50 103T25 213Q25 278 49 328T114 411T207 462T315 479Q378 479 433 459T539 408Q539 454 534 491T519 560T496 622T465 684H184ZM481 219Q439 257 402 282T322 307Q280 307 257 283T233 221Q233 184 256 161T324 137Q376 137 415 159T481 219Z"/><glyph unicode="¤" horiz-adv-x="1152" d="M1056 392L940 284L740 500Q668 452 572 452Q480 452 408 500L208 284L92 392L300 608Q272 648 262 686T252 780Q252 828 262 870T300 952L92 1168L208 1276L408 1060Q480 1108 572 1108Q668 1108 740 1060L944 1276L1060 1156L852 952Q880 912 890 872T900 780Q900 684 848 608L1056 392ZM748 780Q748 860 698 910T572 960Q496 960 448 910T400 780Q400 700 450 652T572 604Q652 604 700 652T748 780Z"/><glyph unicode="¥" horiz-adv-x="1401" d="M532 0V188H166V367H532V506H166V682H526L29 1516H375L702 956L1030 1516H1372L870 682H1237V506H866V367H1237V188H866V0H532Z"/><glyph unicode="¦" horiz-adv-x="819" d="M246 678V1516H571V678H246ZM246 -410V428H571V-410H246Z"/><glyph unicode="§" horiz-adv-x="1194" d="M592 -410Q473 -410 393 -384T259 -317T176 -223T129 -119L365 -14Q378 -52 397 -84T441 -141T500 -179T578 -193Q620 -193 647 -182T690 -153T712 -111T719 -61Q719 -28 702 0T651 56T572 110T467 170Q401 207 337 247T222 336T140 447T109 590Q109 646 126 694T171 782T233 853T303 907Q232 967 200 1031T168 1180Q168 1255 196 1321T280 1436T416 1515T600 1544Q719 1544 801 1518T938 1451T1024 1358T1071 1253L838 1149Q824 1186 804 1218T756 1275T693 1313T614 1327Q571 1327 542 1316T496 1287T471 1245T463 1196Q463 1163 482 1135T536 1079T619 1024T725 965Q791 928 855 888T970 799T1052 688T1083 545Q1083 488 1066 440T1020 351T957 279T887 225Q921 195 945 165T985 103T1007 34T1014 -45Q1014 -120 987 -186T907 -302T774 -381T592 -410ZM725 340Q768 369 792 405T817 479Q817 516 807 545T768 603T688 666T555 745Q532 758 510 770T467 795Q424 766 400 730T375 655Q375 618 385 590T424 532T504 469T637 389Q662 377 683 365T725 340Z"/><glyph unicode="¨" horiz-adv-x="1085" d="M182 1499H461V1196H182V1499ZM616 1499H895V1196H616V1499Z"/><glyph unicode="©" horiz-adv-x="1776" d="M885 -29Q718 -29 575 31T327 196T162 445T102 754Q102 865 129 966T207 1156T329 1315T488 1438T678 1516T891 1544Q1001 1544 1102 1517T1290 1440T1447 1319T1568 1161T1646 973T1673 762Q1673 651 1646 549T1567 359T1445 200T1286 77T1097 -1T885 -29ZM891 115Q1026 115 1140 163T1338 296T1469 499T1516 754Q1516 892 1469 1010T1337 1215T1137 1351T885 1401Q750 1401 635 1353T437 1219T307 1016T260 762Q260 624 307 506T439 300T639 164T891 115ZM881 317Q800 317 733 346T617 432T543 572T516 762Q516 867 541 949T615 1088T732 1174T887 1204Q960 1204 1017 1185T1115 1130T1184 1045T1223 934L1040 887Q1031 920 1019 947T990 992T948 1021T889 1032Q849 1032 818 1013T765 959T732 873T721 762Q721 635 764 565T889 494Q954 494 990 535T1044 657Q1096 642 1137 631Q1155 626 1171 622T1201 614T1223 608T1233 606Q1215 541 1188 488T1119 397T1019 338T881 317Z"/><glyph unicode="ª" horiz-adv-x="915" d="M301 737Q256 737 217 749T147 787T100 850T82 938Q82 1004 110 1057T198 1149T348 1214T565 1249V1268Q565 1308 542 1332T463 1356Q391 1356 330 1330T217 1264L113 1395Q142 1422 178 1446T262 1490T367 1520T498 1532Q656 1532 726 1457T797 1233V940Q797 872 801 829T819 754H584Q576 778 571 804T565 862Q514 803 450 770T301 737ZM393 913Q453 913 495 934T565 983V1124Q494 1117 446 1105T367 1074T324 1034T311 985Q311 950 333 932T393 913Z"/><glyph unicode="«" horiz-adv-x="1296" d="M924 0L582 547L924 1092H1237L909 547L1237 0H924ZM389 0L49 547L389 1092H702L377 547L702 0H389Z"/><glyph unicode="¬" horiz-adv-x="1319" d="M1182 180H922V592H137V848H1182V180Z"/><glyph unicode="­" horiz-adv-x="731" d="M96 532V754H635V532H96Z"/><glyph unicode="®" horiz-adv-x="1083" d="M539 600Q439 600 353 636T204 735T106 885T70 1071Q70 1171 106 1258T206 1409T357 1509T545 1546Q644 1546 729 1510T878 1411T978 1261T1014 1075Q1014 974 978 888T877 737T726 637T539 600ZM545 690Q625 690 693 718T811 798T889 919T918 1071Q918 1153 890 1224T810 1347T690 1428T539 1458Q459 1458 391 1429T273 1349T195 1227T166 1075Q166 993 194 923T273 801T393 720T545 690ZM354 1341H555Q649 1341 701 1300T754 1171Q754 1111 730 1077T662 1022L764 825H633L541 1008H479V825H354V1341ZM547 1100Q589 1100 611 1115T633 1165Q633 1199 611 1215T547 1231H479V1100H547Z"/><glyph unicode="¯" horiz-adv-x="1024" d="M172 1430H852V1196H172V1430Z"/><glyph unicode="°" horiz-adv-x="850" d="M426 885Q354 885 293 909T187 977T117 1081T92 1212Q92 1284 117 1344T186 1447T292 1515T426 1540Q497 1540 558 1516T663 1449T733 1346T758 1214Q758 1143 733 1083T664 978T558 910T426 885ZM426 1040Q460 1040 489 1052T538 1088T570 1143T582 1214Q582 1293 539 1338T426 1384Q355 1384 312 1339T268 1214Q268 1175 279 1143T312 1088T362 1053T426 1040Z"/><glyph unicode="±" horiz-adv-x="1323" d="M137 270H532V606H137V860H532V1272H791V860H1186V606H791V270H1186V31H137V270Z"/><glyph unicode="²" horiz-adv-x="979" d="M115 594Q115 647 123 700T160 809T246 920T401 1036Q457 1070 494 1093T554 1137T585 1178T594 1231Q594 1273 569 1295T498 1317Q451 1317 395 1283T291 1169L113 1298Q187 1416 280 1476T504 1536Q591 1536 655 1515T761 1455T825 1361T846 1237Q846 1195 836 1154T799 1072T723 991T600 909Q553 883 521 861T469 820T437 784T420 752H852V541H115V594Z"/><glyph unicode="³" horiz-adv-x="979" d="M481 524Q356 524 253 575T84 725L244 864Q271 827 298 803T354 764T408 743T459 737Q499 737 527 745T572 767T596 801T604 844Q604 907 559 934T412 961H334V1143H416Q465 1143 498 1149T550 1168T578 1199T586 1239Q586 1276 559 1297T481 1319Q435 1319 378 1300T258 1221L119 1382Q202 1463 301 1499T502 1536Q670 1536 757 1466T844 1270Q844 1237 836 1206T811 1147T765 1099T698 1063Q746 1048 779 1026T834 974T864 911T874 838Q874 761 846 703T767 604T643 544T481 524Z"/><glyph unicode="´" horiz-adv-x="1024" d="M494 1563H825L520 1208H303L494 1563Z"/><glyph unicode="µ" horiz-adv-x="1276" d="M125 -410V1092H455V397Q455 325 485 287T584 248Q650 248 708 278T821 358V1092H1151V0H821V170Q800 144 775 119T717 70T647 28T563 -2Q532 -7 505 -6T455 6V-410H125Z"/><glyph unicode="¶" horiz-adv-x="1307" d="M586 -410V641Q343 646 216 757T88 1075Q88 1166 118 1246T208 1387T355 1481T557 1516H1204V-410H983V1270H809V-410H586Z"/><glyph unicode="·" horiz-adv-x="592" d="M113 530V848H479V530H113Z"/><glyph unicode="¸" horiz-adv-x="1024" d="M539 -414Q446 -414 368 -394T236 -338L295 -240Q341 -271 400 -286T512 -301Q560 -301 587 -284T614 -231Q614 -202 596 -189T549 -176Q523 -176 503 -185T461 -211L379 -170L432 0H567L545 -94Q566 -80 598 -72T676 -63Q705 -63 732 -72T779 -100T812 -145T825 -207Q825 -255 803 -293T742 -359T651 -400T539 -414Z"/><glyph unicode="¹" horiz-adv-x="791" d="M129 743H305V1309Q268 1292 222 1280T133 1268V1454Q192 1456 236 1470T311 1516H569V743H723V537H129V743Z"/><glyph unicode="º" horiz-adv-x="954" d="M477 737Q407 737 337 757T211 824T119 947T84 1135Q84 1249 119 1325T210 1448T337 1514T477 1534Q547 1534 617 1515T743 1449T835 1326T870 1135Q870 1024 835 948T744 825T617 758T477 737ZM477 905Q518 905 547 922T596 969T625 1041T635 1135Q635 1182 627 1223T599 1295T550 1344T477 1362Q436 1362 407 1346T358 1299T329 1228T319 1135Q319 1088 327 1047T354 974T403 924T477 905Z"/><glyph unicode="»" horiz-adv-x="1296" d="M594 0L922 547L594 1092H907L1249 547L907 0H594ZM61 0L387 547L61 1092H375L715 547L375 0H61Z"/><glyph unicode="¼" horiz-adv-x="2169" d="M152 745H315V1262Q283 1249 243 1243T154 1237V1454Q189 1455 216 1458T266 1469T305 1487T338 1513H578V745H723V537H152V745ZM1665 203H1225V369L1655 979H1927V406H2081V203H1927V0H1665V203ZM1411 1516H1694L788 0H506L1411 1516ZM1681 389V700L1468 389H1681Z"/><glyph unicode="½" horiz-adv-x="2234" d="M1374 53Q1374 106 1383 159T1421 266T1508 377T1661 496Q1708 526 1743 548T1801 593T1835 638T1847 692Q1847 734 1822 755T1753 776Q1708 776 1653 742T1550 629L1372 758Q1445 874 1538 934T1763 995Q1845 995 1909 974T2016 914T2082 820T2105 696Q2105 655 2095 614T2059 532T1986 450T1866 369Q1781 321 1739 281T1686 211H2111V0H1374V53ZM1411 1516H1694L788 0H506L1411 1516ZM152 745H315V1262Q283 1249 243 1243T154 1237V1454Q189 1455 216 1458T266 1469T305 1487T338 1513H578V745H723V537H152V745Z"/><glyph unicode="¾" horiz-adv-x="2249" d="M481 524Q356 524 253 575T84 725L244 864Q271 827 298 803T354 764T408 743T459 737Q499 737 527 745T572 767T596 801T604 844Q604 907 559 934T412 961H334V1143H416Q465 1143 498 1149T550 1168T578 1199T586 1239Q586 1276 559 1297T481 1319Q435 1319 378 1300T258 1221L119 1382Q202 1463 301 1499T502 1536Q670 1536 757 1466T844 1270Q844 1237 836 1206T811 1147T765 1099T698 1063Q746 1048 779 1026T834 974T864 911T874 838Q874 761 846 703T767 604T643 544T481 524ZM1745 203H1305V369L1735 979H2007V406H2161V203H2007V0H1745V203ZM1491 1516H1774L868 0H586L1491 1516ZM1761 389V700L1548 389H1761Z"/><glyph unicode="¿" horiz-adv-x="1217" d="M569 -29Q453 -29 364 -1T213 77T120 196T88 346Q88 418 107 472T159 568T236 641T330 700Q400 736 437 765T492 830T511 915T514 1040H784Q791 999 792 965T793 893Q793 834 776 788T730 704T661 636T575 582Q533 558 503 537T453 491T424 439T414 373Q414 311 462 272T604 233Q655 233 705 247T801 287T886 344T956 412L1155 225Q1108 173 1049 127T917 46T758 -9T569 -29ZM473 1212V1516H825V1212H473Z"/><glyph unicode="À" horiz-adv-x="1460" d="M35 0L571 1522H889L1425 0H1087L975 338H459L342 0H35ZM541 580H897L723 1096H719L541 580ZM340 1958H669L860 1603H643L340 1958Z"/><glyph unicode="Á" horiz-adv-x="1460" d="M35 0L571 1522H889L1425 0H1087L975 338H459L342 0H35ZM541 580H897L723 1096H719L541 580ZM789 1958H1120L815 1603H598L789 1958Z"/><glyph unicode="Â" horiz-adv-x="1460" d="M35 0L571 1522H889L1425 0H1087L975 338H459L342 0H35ZM541 580H897L723 1096H719L541 580ZM621 1958H840L1104 1607H918L727 1759L543 1607H357L621 1958Z"/><glyph unicode="Ã" horiz-adv-x="1460" d="M35 0L571 1522H889L1425 0H1087L975 338H459L342 0H35ZM541 580H897L723 1096H719L541 580ZM887 1583Q831 1583 791 1601T717 1640T655 1680T592 1698Q552 1698 530 1673T508 1587H330Q330 1674 347 1735T396 1836T473 1894T574 1913Q630 1913 670 1895T744 1856T806 1816T869 1798Q909 1798 931 1823T953 1908H1129Q1129 1821 1112 1760T1064 1659T987 1602T887 1583Z"/><glyph unicode="Ä" horiz-adv-x="1460" d="M35 0L571 1522H889L1425 0H1087L975 338H459L342 0H35ZM541 580H897L723 1096H719L541 580ZM368 1894H647V1591H368V1894ZM802 1894H1081V1591H802V1894Z"/><glyph unicode="Å" horiz-adv-x="1460" d="M559 1485Q534 1511 520 1546T506 1624Q506 1672 523 1712T570 1783T641 1830T731 1847Q779 1847 819 1830T890 1783T937 1713T954 1624Q954 1582 941 1547T901 1487L1425 0H1087L975 340H459L342 0H37L559 1485ZM897 580L723 1098H719L541 580H897ZM731 1526Q771 1526 798 1553T825 1624Q825 1666 798 1694T731 1722Q689 1722 663 1694T637 1624Q637 1581 663 1554T731 1526Z"/><glyph unicode="Æ" horiz-adv-x="2200" d="M31 0L893 1516H2087V1237H1391V911H1894V647H1391V270H2124V0H1061V430H606L367 0H31ZM745 678H1061V1235H1059L745 678Z"/><glyph unicode="Ç" horiz-adv-x="1493" d="M782 -414Q689 -414 611 -394T479 -338L539 -240Q585 -271 643 -286T754 -301Q803 -301 829 -284T856 -231Q856 -202 837 -189T791 -176Q766 -176 746 -185T705 -211L623 -170L670 -25Q542 -9 435 47T249 201T128 438T84 760Q84 957 137 1104T284 1349T502 1495T772 1544Q916 1544 1020 1508T1198 1408T1316 1257T1386 1067L1071 975Q1053 1040 1029 1094T970 1186T886 1246T770 1268Q684 1268 619 1233T509 1133T441 973T418 762Q418 641 441 545T510 381T621 277T774 240Q841 240 891 260T980 321T1046 421T1094 559L1407 489Q1380 378 1333 285T1214 124T1040 16T805 -29L786 -94Q808 -80 841 -72T920 -63Q949 -63 975 -72T1022 -100T1055 -145T1067 -207Q1067 -255 1045 -293T984 -359T893 -400T782 -414Z"/><glyph unicode="È" horiz-adv-x="1296" d="M156 0V1516H1188V1237H489V911H995V647H489V270H1225V0H156ZM322 1958H651L842 1603H625L322 1958Z"/><glyph unicode="É" horiz-adv-x="1296" d="M674 1958H1005L700 1603H483L674 1958ZM156 0V1516H1188V1237H489V911H995V647H489V270H1225V0H156Z"/><glyph unicode="Ê" horiz-adv-x="1296" d="M559 1958H778L1042 1607H856L665 1759L481 1607H295L559 1958ZM156 0V1516H1188V1237H489V911H995V647H489V270H1225V0H156Z"/><glyph unicode="Ë" horiz-adv-x="1296" d="M317 1894H596V1591H317V1894ZM751 1894H1030V1591H751V1894ZM156 0V1516H1188V1237H489V911H995V647H489V270H1225V0H156Z"/><glyph unicode="Ì" horiz-adv-x="676" d="M172 0V1516H504V0H172ZM-44 1958H285L476 1603H259L-44 1958Z"/><glyph unicode="Í" horiz-adv-x="676" d="M172 0V1516H504V0H172ZM401 1958H732L427 1603H210L401 1958Z"/><glyph unicode="Î" horiz-adv-x="676" d="M172 0V1516H504V0H172ZM231 1958H450L714 1607H528L337 1759L153 1607H-33L231 1958Z"/><glyph unicode="Ï" horiz-adv-x="676" d="M172 0V1516H504V0H172ZM-22 1894H257V1591H-22V1894ZM412 1894H691V1591H412V1894Z"/><glyph unicode="Ð" horiz-adv-x="1516" d="M156 0V649H20V899H156V1516H621Q736 1516 841 1499T1036 1445T1200 1348T1324 1204T1404 1009T1432 758Q1432 550 1370 406T1198 171T940 41T621 0H156ZM487 270H643Q767 270 853 298T994 387T1073 540T1098 762Q1098 883 1073 972T993 1120T851 1208T639 1237H487V899H795V649H487V270Z"/><glyph unicode="Ñ" horiz-adv-x="1591" d="M156 0V1516H489L1124 549H1128V1516H1436V0H1128L467 975H463V0H156ZM960 1583Q904 1583 864 1601T790 1640T728 1680T665 1698Q625 1698 603 1673T581 1587H403Q403 1674 420 1735T469 1836T546 1894T647 1913Q703 1913 743 1895T817 1856T879 1816T942 1798Q982 1798 1004 1823T1026 1908H1202Q1202 1821 1185 1760T1137 1659T1060 1602T960 1583Z"/><glyph unicode="Ò" horiz-adv-x="1597" d="M799 -29Q661 -29 533 19T304 164T144 410T84 758Q84 957 144 1105T304 1350T532 1496T799 1544Q890 1544 978 1523T1145 1458T1291 1351T1407 1199T1483 1001T1511 758Q1511 625 1484 515T1408 318T1292 165T1145 57T978 -7T799 -29ZM799 240Q886 240 956 276T1076 379T1153 543T1180 758Q1180 877 1153 971T1077 1132T957 1233T799 1268Q710 1268 640 1233T520 1132T445 972T418 758Q418 639 444 543T520 380T639 276T799 240ZM443 1958H772L963 1603H746L443 1958Z"/><glyph unicode="Ó" horiz-adv-x="1597" d="M820 1958H1151L846 1603H629L820 1958ZM799 -29Q661 -29 533 19T304 164T144 410T84 758Q84 957 144 1105T304 1350T532 1496T799 1544Q890 1544 978 1523T1145 1458T1291 1351T1407 1199T1483 1001T1511 758Q1511 625 1484 515T1408 318T1292 165T1145 57T978 -7T799 -29ZM799 240Q886 240 956 276T1076 379T1153 543T1180 758Q1180 877 1153 971T1077 1132T957 1233T799 1268Q710 1268 640 1233T520 1132T445 972T418 758Q418 639 444 543T520 380T639 276T799 240Z"/><glyph unicode="Ô" horiz-adv-x="1597" d="M688 1958H907L1171 1607H985L794 1759L610 1607H424L688 1958ZM799 -29Q661 -29 533 19T304 164T144 410T84 758Q84 957 144 1105T304 1350T532 1496T799 1544Q890 1544 978 1523T1145 1458T1291 1351T1407 1199T1483 1001T1511 758Q1511 625 1484 515T1408 318T1292 165T1145 57T978 -7T799 -29ZM799 240Q886 240 956 276T1076 379T1153 543T1180 758Q1180 877 1153 971T1077 1132T957 1233T799 1268Q710 1268 640 1233T520 1132T445 972T418 758Q418 639 444 543T520 380T639 276T799 240Z"/><glyph unicode="Õ" horiz-adv-x="1597" d="M799 -29Q661 -29 533 19T304 164T144 410T84 758Q84 957 144 1105T304 1350T532 1496T799 1544Q890 1544 978 1523T1145 1458T1291 1351T1407 1199T1483 1001T1511 758Q1511 625 1484 515T1408 318T1292 165T1145 57T978 -7T799 -29ZM799 240Q886 240 956 276T1076 379T1153 543T1180 758Q1180 877 1153 971T1077 1132T957 1233T799 1268Q710 1268 640 1233T520 1132T445 972T418 758Q418 639 444 543T520 380T639 276T799 240ZM952 1583Q896 1583 856 1601T782 1640T720 1680T657 1698Q617 1698 595 1673T573 1587H395Q395 1674 412 1735T461 1836T538 1894T639 1913Q695 1913 735 1895T809 1856T871 1816T934 1798Q974 1798 996 1823T1018 1908H1194Q1194 1821 1177 1760T1129 1659T1052 1602T952 1583Z"/><glyph unicode="Ö" horiz-adv-x="1597" d="M436 1894H715V1591H436V1894ZM870 1894H1149V1591H870V1894ZM799 -29Q661 -29 533 19T304 164T144 410T84 758Q84 957 144 1105T304 1350T532 1496T799 1544Q890 1544 978 1523T1145 1458T1291 1351T1407 1199T1483 1001T1511 758Q1511 625 1484 515T1408 318T1292 165T1145 57T978 -7T799 -29ZM799 240Q886 240 956 276T1076 379T1153 543T1180 758Q1180 877 1153 971T1077 1132T957 1233T799 1268Q710 1268 640 1233T520 1132T445 972T418 758Q418 639 444 543T520 380T639 276T799 240Z"/><glyph unicode="×" horiz-adv-x="1323" d="M336 145L145 338L467 662L145 981L336 1174L659 852L979 1174L1171 981L852 662L1176 342L985 150L662 471L336 145Z"/><glyph unicode="Ø" horiz-adv-x="1597" d="M1364 1266Q1433 1170 1472 1045T1511 758Q1511 625 1484 515T1408 318T1292 165T1145 57T978 -7T799 -29Q684 -29 576 3T375 104L231 -61L72 66L231 248Q162 344 123 470T84 758Q84 957 144 1105T304 1350T532 1496T799 1544Q913 1544 1021 1512T1221 1411L1366 1577L1524 1450L1364 1266ZM559 328Q654 236 799 236Q888 236 959 272T1081 377T1159 541T1186 758Q1186 833 1175 898T1143 1020L559 328ZM1034 1186Q988 1228 929 1250T799 1272Q710 1272 638 1237T516 1135T438 973T410 758Q410 604 453 496L1034 1186Z"/><glyph unicode="Ù" horiz-adv-x="1485" d="M743 -25Q585 -25 470 17T279 138T168 329T131 580V1516H465V588Q465 506 481 442T531 335T619 269T748 246Q895 246 960 334T1026 588V1516H1354V582Q1354 442 1318 330T1207 139T1017 18T743 -25ZM389 1958H718L909 1603H692L389 1958Z"/><glyph unicode="Ú" horiz-adv-x="1485" d="M744 1958H1075L770 1603H553L744 1958ZM743 -25Q585 -25 470 17T279 138T168 329T131 580V1516H465V588Q465 506 481 442T531 335T619 269T748 246Q895 246 960 334T1026 588V1516H1354V582Q1354 442 1318 330T1207 139T1017 18T743 -25Z"/><glyph unicode="Û" horiz-adv-x="1485" d="M631 1958H850L1114 1607H928L737 1759L553 1607H367L631 1958ZM743 -25Q585 -25 470 17T279 138T168 329T131 580V1516H465V588Q465 506 481 442T531 335T619 269T748 246Q895 246 960 334T1026 588V1516H1354V582Q1354 442 1318 330T1207 139T1017 18T743 -25Z"/><glyph unicode="Ü" horiz-adv-x="1485" d="M381 1894H660V1591H381V1894ZM815 1894H1094V1591H815V1894ZM743 -25Q585 -25 470 17T279 138T168 329T131 580V1516H465V588Q465 506 481 442T531 335T619 269T748 246Q895 246 960 334T1026 588V1516H1354V582Q1354 442 1318 330T1207 139T1017 18T743 -25Z"/><glyph unicode="Ý" horiz-adv-x="1415" d="M541 0V643L18 1516H362L709 926L1057 1516H1397L872 643V0H541ZM703 1964H1034L729 1609H512L703 1964Z"/><glyph unicode="Þ" horiz-adv-x="1389" d="M156 0V1516H489V1286H700Q781 1286 859 1277T1006 1247T1134 1189T1235 1098T1301 968T1325 793Q1325 691 1300 615T1230 484T1125 392T994 334T848 304T696 295H489V0H156ZM489 559H702Q780 559 834 574T922 618T971 688T987 784Q987 837 972 879T923 949T835 993T702 1008H489V559Z"/><glyph unicode="ß" horiz-adv-x="1399" d="M907 -23Q829 -23 767 -10T656 23T575 69T520 117L664 291Q704 257 757 235T877 213Q917 213 949 227T1003 267T1037 328T1049 406Q1049 484 1015 533T920 610T779 651T606 666V885Q692 886 748 902T836 947T882 1015T895 1100Q895 1134 882 1165T843 1220T778 1258T688 1272Q573 1272 512 1211T451 1008V0H125V999Q125 1135 165 1233T278 1394T453 1486T680 1516Q799 1516 895 1490T1059 1415T1163 1293T1200 1128Q1200 1063 1179 1011T1122 920T1039 854T940 811Q1015 802 1088 775T1220 701T1315 584T1352 420Q1352 312 1320 229T1230 90T1089 6T907 -23Z"/><glyph unicode="à" horiz-adv-x="1182" d="M365 -16Q302 -16 246 4T146 61T78 154T53 279Q53 373 94 446T219 573T434 660T745 709V735Q745 795 712 830T598 866Q493 866 404 828T240 731L100 920Q141 957 193 992T311 1054T460 1097T645 1114Q757 1114 837 1087T968 1005T1043 871T1067 686V266Q1067 167 1074 105T1098 0H770Q759 34 752 73T745 160Q670 75 578 30T365 -16ZM496 231Q582 231 642 257T745 326V528Q550 508 463 460T375 336Q375 283 408 257T496 231ZM246 1563H575L766 1208H549L246 1563Z"/><glyph unicode="á" horiz-adv-x="1182" d="M365 -16Q302 -16 246 4T146 61T78 154T53 279Q53 373 94 446T219 573T434 660T745 709V735Q745 795 712 830T598 866Q493 866 404 828T240 731L100 920Q141 957 193 992T311 1054T460 1097T645 1114Q757 1114 837 1087T968 1005T1043 871T1067 686V266Q1067 167 1074 105T1098 0H770Q759 34 752 73T745 160Q670 75 578 30T365 -16ZM496 231Q582 231 642 257T745 326V528Q550 508 463 460T375 336Q375 283 408 257T496 231ZM617 1563H948L643 1208H426L617 1563Z"/><glyph unicode="â" horiz-adv-x="1182" d="M365 -16Q302 -16 246 4T146 61T78 154T53 279Q53 373 94 446T219 573T434 660T745 709V735Q745 795 712 830T598 866Q493 866 404 828T240 731L100 920Q141 957 193 992T311 1054T460 1097T645 1114Q757 1114 837 1087T968 1005T1043 871T1067 686V266Q1067 167 1074 105T1098 0H770Q759 34 752 73T745 160Q670 75 578 30T365 -16ZM496 231Q582 231 642 257T745 326V528Q550 508 463 460T375 336Q375 283 408 257T496 231ZM484 1563H703L967 1212H781L590 1364L406 1212H220L484 1563Z"/><glyph unicode="ã" horiz-adv-x="1182" d="M365 -16Q302 -16 246 4T146 61T78 154T53 279Q53 373 94 446T219 573T434 660T745 709V735Q745 795 712 830T598 866Q493 866 404 828T240 731L100 920Q141 957 193 992T311 1054T460 1097T645 1114Q757 1114 837 1087T968 1005T1043 871T1067 686V266Q1067 167 1074 105T1098 0H770Q759 34 752 73T745 160Q670 75 578 30T365 -16ZM496 231Q582 231 642 257T745 326V528Q550 508 463 460T375 336Q375 283 408 257T496 231ZM749 1188Q693 1188 653 1206T579 1245T517 1285T454 1303Q414 1303 392 1278T370 1192H192Q192 1279 209 1340T258 1441T335 1499T436 1518Q492 1518 532 1500T606 1461T668 1421T731 1403Q771 1403 793 1428T815 1513H991Q991 1426 974 1365T926 1264T849 1207T749 1188Z"/><glyph unicode="ä" horiz-adv-x="1182" d="M365 -16Q302 -16 246 4T146 61T78 154T53 279Q53 373 94 446T219 573T434 660T745 709V735Q745 795 712 830T598 866Q493 866 404 828T240 731L100 920Q141 957 193 992T311 1054T460 1097T645 1114Q757 1114 837 1087T968 1005T1043 871T1067 686V266Q1067 167 1074 105T1098 0H770Q759 34 752 73T745 160Q670 75 578 30T365 -16ZM496 231Q582 231 642 257T745 326V528Q550 508 463 460T375 336Q375 283 408 257T496 231ZM235 1499H514V1196H235V1499ZM669 1499H948V1196H669V1499Z"/><glyph unicode="å" horiz-adv-x="1182" d="M365 -16Q302 -16 246 4T146 61T78 154T53 279Q53 373 94 446T219 573T434 660T745 709V735Q745 795 712 830T598 866Q493 866 404 828T240 731L100 920Q141 957 193 992T311 1054T460 1097T645 1114Q757 1114 837 1087T968 1005T1043 871T1067 686V266Q1067 167 1074 105T1098 0H770Q759 34 752 73T745 160Q670 75 578 30T365 -16ZM496 231Q582 231 642 257T745 326V528Q550 508 463 460T375 336Q375 283 408 257T496 231ZM598 1190Q550 1190 509 1207T438 1254T392 1325T375 1415Q375 1462 391 1502T438 1572T509 1619T598 1636Q646 1636 687 1619T759 1573T806 1503T823 1415Q823 1367 806 1326T759 1254T688 1207T598 1190ZM598 1315Q640 1315 666 1342T692 1415Q692 1457 666 1484T598 1511Q556 1511 530 1484T504 1415Q504 1370 530 1343T598 1315Z"/><glyph unicode="æ" horiz-adv-x="1835" d="M362 -23Q300 -23 244 -5T146 50T78 139T53 262Q53 356 94 432T219 565T434 658T745 709V735Q745 795 712 830T596 866Q491 866 403 828T240 731L100 920Q141 957 192 992T310 1054T459 1097T645 1114Q766 1114 842 1076T954 977Q982 1008 1018 1033T1096 1077T1182 1104T1268 1114Q1327 1114 1387 1104T1502 1067T1606 996T1691 884T1748 723T1769 506V457H1049Q1054 389 1075 342T1129 266T1206 223T1303 209Q1351 209 1396 219T1483 248T1560 289T1624 338L1751 141Q1657 60 1539 19T1278 -23Q1207 -23 1141 -11T1017 28T910 97T825 201Q722 81 606 29T362 -23ZM496 225Q574 225 639 253T768 344Q760 370 755 401T748 467Q746 484 745 501T745 535Q639 524 568 505T454 459T393 400T375 330Q375 277 408 251T496 225ZM1475 651Q1464 767 1412 822T1266 877Q1227 877 1193 864T1130 824T1082 754T1053 651H1475Z"/><glyph unicode="ç" horiz-adv-x="1151" d="M608 -414Q515 -414 437 -394T305 -338L365 -240Q411 -271 469 -286T580 -301Q629 -301 655 -284T682 -231Q682 -202 663 -189T616 -176Q592 -176 572 -185T530 -211L449 -170L498 -10Q414 3 336 40T198 143T102 308T66 545Q66 654 90 738T155 886T250 993T366 1063T491 1102T616 1114Q727 1114 806 1087T941 1013T1032 907T1092 780L815 690Q800 741 780 776T735 833T680 864T612 874Q512 874 454 791T395 543Q395 470 407 409T445 303T511 234T608 209Q642 209 673 218T731 250T782 310T823 403L1096 309Q1070 247 1032 191T939 90T808 17T633 -16L612 -94Q634 -80 667 -72T745 -63Q774 -63 801 -72T848 -100T881 -145T893 -207Q893 -255 871 -293T810 -359T719 -400T608 -414Z"/><glyph unicode="è" horiz-adv-x="1182" d="M623 -23Q516 -23 416 6T238 103T113 278T66 545Q66 651 91 734T158 881T255 988T372 1061T495 1101T614 1114Q670 1114 729 1104T844 1067T949 996T1036 884T1094 723T1116 506V457H393Q399 389 420 342T475 264T552 221T647 207Q695 207 741 218T829 247T907 288T971 338L1098 141Q1002 60 884 19T623 -23ZM821 651Q809 767 757 823T612 879Q574 879 539 866T476 825T427 754T397 651H821ZM236 1563H565L756 1208H539L236 1563Z"/><glyph unicode="é" horiz-adv-x="1182" d="M617 1563H948L643 1208H426L617 1563ZM623 -23Q516 -23 416 6T238 103T113 278T66 545Q66 651 91 734T158 881T255 988T372 1061T495 1101T614 1114Q670 1114 729 1104T844 1067T949 996T1036 884T1094 723T1116 506V457H393Q399 389 420 342T475 264T552 221T647 207Q695 207 741 218T829 247T907 288T971 338L1098 141Q1002 60 884 19T623 -23ZM821 651Q809 767 757 823T612 879Q574 879 539 866T476 825T427 754T397 651H821Z"/><glyph unicode="ê" horiz-adv-x="1182" d="M484 1563H703L967 1212H781L590 1364L406 1212H220L484 1563ZM623 -23Q516 -23 416 6T238 103T113 278T66 545Q66 651 91 734T158 881T255 988T372 1061T495 1101T614 1114Q670 1114 729 1104T844 1067T949 996T1036 884T1094 723T1116 506V457H393Q399 389 420 342T475 264T552 221T647 207Q695 207 741 218T829 247T907 288T971 338L1098 141Q1002 60 884 19T623 -23ZM821 651Q809 767 757 823T612 879Q574 879 539 866T476 825T427 754T397 651H821Z"/><glyph unicode="ë" horiz-adv-x="1182" d="M231 1499H510V1196H231V1499ZM665 1499H944V1196H665V1499ZM623 -23Q516 -23 416 6T238 103T113 278T66 545Q66 651 91 734T158 881T255 988T372 1061T495 1101T614 1114Q670 1114 729 1104T844 1067T949 996T1036 884T1094 723T1116 506V457H393Q399 389 420 342T475 264T552 221T647 207Q695 207 741 218T829 247T907 288T971 338L1098 141Q1002 60 884 19T623 -23ZM821 651Q809 767 757 823T612 879Q574 879 539 866T476 825T427 754T397 651H821Z"/><glyph unicode="ì" horiz-adv-x="602" d="M137 0V1092H465V0H137ZM-95 1563H234L425 1208H208L-95 1563Z"/><glyph unicode="í" horiz-adv-x="602" d="M630 1563H961L656 1208H439L630 1563ZM137 0V1092H465V0H137Z"/><glyph unicode="î" horiz-adv-x="602" d="M194 1563H413L677 1212H491L300 1364L116 1212H-70L194 1563ZM137 0V1092H465V0H137Z"/><glyph unicode="ï" horiz-adv-x="602" d="M-59 1499H220V1196H-59V1499ZM375 1499H654V1196H375V1499ZM137 0V1092H465V0H137Z"/><glyph unicode="ð" horiz-adv-x="1245" d="M623 -23Q502 -23 401 11T226 112T111 273T70 489Q70 616 108 712T211 871T362 967T543 999Q576 999 616 992T697 970T777 930T846 870Q830 942 803 1008T733 1135L578 1059L483 1229L612 1290Q583 1319 554 1346T489 1399L645 1575Q699 1540 748 1502T842 1419L1008 1503L1100 1333L967 1264Q1072 1112 1124 931T1176 539Q1176 405 1135 301T1020 124T845 15T623 -23ZM623 209Q726 209 787 282T848 496Q848 563 832 615T787 704T716 759T623 778Q519 778 458 706T397 494Q397 357 457 283T623 209Z"/><glyph unicode="ñ" horiz-adv-x="1266" d="M170 0V1092H500V920Q524 952 559 986T641 1049T746 1096T877 1114Q946 1114 1004 1096T1104 1040T1170 942T1194 797V0H866V692Q866 767 836 804T737 842Q671 842 613 812T500 733V0H170ZM792 1188Q736 1188 696 1206T622 1245T560 1285T497 1303Q457 1303 435 1278T413 1192H235Q235 1279 252 1340T301 1441T378 1499T479 1518Q535 1518 575 1500T649 1461T711 1421T774 1403Q814 1403 836 1428T858 1513H1034Q1034 1426 1017 1365T969 1264T892 1207T792 1188Z"/><glyph unicode="ò" horiz-adv-x="1247" d="M625 -23Q559 -23 492 -11T362 30T246 102T152 209T89 355T66 545Q66 652 89 736T151 883T245 990T361 1061T491 1101T625 1114Q691 1114 758 1102T887 1062T1002 990T1096 883T1159 736T1182 545Q1182 439 1159 356T1096 209T1003 102T887 30T758 -10T625 -23ZM625 209Q683 209 726 233T797 301T838 406T852 543Q852 611 840 671T800 775T729 846T625 872Q566 872 523 848T451 781T409 677T395 543Q395 474 407 414T447 308T518 236T625 209ZM269 1563H598L789 1208H572L269 1563Z"/><glyph unicode="ó" horiz-adv-x="1247" d="M648 1563H979L674 1208H457L648 1563ZM625 -23Q559 -23 492 -11T362 30T246 102T152 209T89 355T66 545Q66 652 89 736T151 883T245 990T361 1061T491 1101T625 1114Q691 1114 758 1102T887 1062T1002 990T1096 883T1159 736T1182 545Q1182 439 1159 356T1096 209T1003 102T887 30T758 -10T625 -23ZM625 209Q683 209 726 233T797 301T838 406T852 543Q852 611 840 671T800 775T729 846T625 872Q566 872 523 848T451 781T409 677T395 543Q395 474 407 414T447 308T518 236T625 209Z"/><glyph unicode="ô" horiz-adv-x="1247" d="M514 1563H733L997 1212H811L620 1364L436 1212H250L514 1563ZM625 -23Q559 -23 492 -11T362 30T246 102T152 209T89 355T66 545Q66 652 89 736T151 883T245 990T361 1061T491 1101T625 1114Q691 1114 758 1102T887 1062T1002 990T1096 883T1159 736T1182 545Q1182 439 1159 356T1096 209T1003 102T887 30T758 -10T625 -23ZM625 209Q683 209 726 233T797 301T838 406T852 543Q852 611 840 671T800 775T729 846T625 872Q566 872 523 848T451 781T409 677T395 543Q395 474 407 414T447 308T518 236T625 209Z"/><glyph unicode="õ" horiz-adv-x="1247" d="M625 -23Q559 -23 492 -11T362 30T246 102T152 209T89 355T66 545Q66 652 89 736T151 883T245 990T361 1061T491 1101T625 1114Q691 1114 758 1102T887 1062T1002 990T1096 883T1159 736T1182 545Q1182 439 1159 356T1096 209T1003 102T887 30T758 -10T625 -23ZM625 209Q683 209 726 233T797 301T838 406T852 543Q852 611 840 671T800 775T729 846T625 872Q566 872 523 848T451 781T409 677T395 543Q395 474 407 414T447 308T518 236T625 209ZM780 1188Q724 1188 684 1206T610 1245T548 1285T485 1303Q445 1303 423 1278T401 1192H223Q223 1279 240 1340T289 1441T366 1499T467 1518Q523 1518 563 1500T637 1461T699 1421T762 1403Q802 1403 824 1428T846 1513H1022Q1022 1426 1005 1365T957 1264T880 1207T780 1188Z"/><glyph unicode="ö" horiz-adv-x="1247" d="M262 1499H541V1196H262V1499ZM696 1499H975V1196H696V1499ZM625 -23Q559 -23 492 -11T362 30T246 102T152 209T89 355T66 545Q66 652 89 736T151 883T245 990T361 1061T491 1101T625 1114Q691 1114 758 1102T887 1062T1002 990T1096 883T1159 736T1182 545Q1182 439 1159 356T1096 209T1003 102T887 30T758 -10T625 -23ZM625 209Q683 209 726 233T797 301T838 406T852 543Q852 611 840 671T800 775T729 846T625 872Q566 872 523 848T451 781T409 677T395 543Q395 474 407 414T447 308T518 236T625 209Z"/><glyph unicode="÷" horiz-adv-x="1323" d="M137 588V848H1186V588H137ZM522 196V440H799V196H522ZM522 991V1235H799V991H522Z"/><glyph unicode="ø" horiz-adv-x="1247" d="M1079 907Q1127 842 1154 753T1182 545Q1182 439 1159 356T1096 209T1003 102T887 30T758 -10T625 -23Q544 -23 464 -5T311 55L180 -86L51 39L176 174Q125 240 96 331T66 545Q66 652 89 736T151 883T245 990T361 1061T491 1101T625 1114Q708 1114 791 1095T948 1028L1067 1159L1196 1036L1079 907ZM768 825Q714 879 625 879Q564 879 520 855T446 786T402 679T387 543Q387 508 390 475T401 410L768 825ZM483 254Q511 231 545 218T625 205Q685 205 729 229T802 298T845 405T860 543Q860 575 858 605T850 664L483 254Z"/><glyph unicode="ù" horiz-adv-x="1266" d="M434 -23Q364 -23 306 -5T205 51T139 150T115 295V1092H444V391Q444 317 474 279T573 240Q640 240 697 271T811 350V1092H1141V0H811V170Q786 138 751 104T670 42T565 -4T434 -23ZM279 1563H608L799 1208H582L279 1563Z"/><glyph unicode="ú" horiz-adv-x="1266" d="M639 1563H970L665 1208H448L639 1563ZM434 -23Q364 -23 306 -5T205 51T139 150T115 295V1092H444V391Q444 317 474 279T573 240Q640 240 697 271T811 350V1092H1141V0H811V170Q786 138 751 104T670 42T565 -4T434 -23Z"/><glyph unicode="û" horiz-adv-x="1266" d="M516 1563H735L999 1212H813L622 1364L438 1212H252L516 1563ZM434 -23Q364 -23 306 -5T205 51T139 150T115 295V1092H444V391Q444 317 474 279T573 240Q640 240 697 271T811 350V1092H1141V0H811V170Q786 138 751 104T670 42T565 -4T434 -23Z"/><glyph unicode="ü" horiz-adv-x="1266" d="M266 1499H545V1196H266V1499ZM700 1499H979V1196H700V1499ZM434 -23Q364 -23 306 -5T205 51T139 150T115 295V1092H444V391Q444 317 474 279T573 240Q640 240 697 271T811 350V1092H1141V0H811V170Q786 138 751 104T670 42T565 -4T434 -23Z"/><glyph unicode="ý" horiz-adv-x="1147" d="M297 -418Q236 -418 188 -414T102 -405T36 -392T-14 -379L55 -125Q67 -128 87 -133T133 -142T192 -150T262 -154Q316 -154 348 -132T401 -59L422 -6L4 1092H344L584 383H588L829 1092H1149L690 -115Q662 -186 628 -242T548 -337T441 -397T297 -418ZM570 1563H901L596 1208H379L570 1563Z"/><glyph unicode="þ" horiz-adv-x="1278" d="M125 -410V1516H455V926Q482 963 515 997T589 1057T680 1098T791 1114Q884 1114 961 1079T1093 972T1179 795T1210 547Q1210 406 1179 300T1092 124T958 19T786 -16Q675 -16 596 22T455 129V-410H125ZM674 231Q777 231 829 313T881 545Q881 613 869 668T831 761T765 821T670 842Q638 842 609 833T552 810T500 776T455 735V332Q508 281 558 256T674 231Z"/><glyph unicode="ÿ" horiz-adv-x="1147" d="M297 -418Q236 -418 188 -414T102 -405T36 -392T-14 -379L55 -125Q67 -128 87 -133T133 -142T192 -150T262 -154Q316 -154 348 -132T401 -59L422 -6L4 1092H344L584 383H588L829 1092H1149L690 -115Q662 -186 628 -242T548 -337T441 -397T297 -418ZM225 1499H504V1196H225V1499ZM659 1499H938V1196H659V1499Z"/><glyph unicode="Ā" horiz-adv-x="1460" d="M35 0L571 1522H889L1425 0H1087L975 338H459L342 0H35ZM541 580H897L723 1096H719L541 580ZM389 1825H1069V1591H389V1825Z"/><glyph unicode="ā" horiz-adv-x="1182" d="M365 -16Q302 -16 246 4T146 61T78 154T53 279Q53 373 94 446T219 573T434 660T745 709V735Q745 795 712 830T598 866Q493 866 404 828T240 731L100 920Q141 957 193 992T311 1054T460 1097T645 1114Q757 1114 837 1087T968 1005T1043 871T1067 686V266Q1067 167 1074 105T1098 0H770Q759 34 752 73T745 160Q670 75 578 30T365 -16ZM496 231Q582 231 642 257T745 326V528Q550 508 463 460T375 336Q375 283 408 257T496 231ZM250 1430H930V1196H250V1430Z"/><glyph unicode="Ă" horiz-adv-x="1460" d="M35 0L571 1522H889L1425 0H1087L975 338H459L342 0H35ZM541 580H897L723 1096H719L541 580ZM729 1581Q642 1581 576 1610T465 1691T396 1812T367 1960H543Q550 1904 569 1871T613 1819T669 1794T729 1788Q759 1788 789 1794T845 1818T889 1870T915 1960H1091Q1087 1881 1063 1812T994 1692T883 1611T729 1581Z"/><glyph unicode="ă" horiz-adv-x="1182" d="M365 -16Q302 -16 246 4T146 61T78 154T53 279Q53 373 94 446T219 573T434 660T745 709V735Q745 795 712 830T598 866Q493 866 404 828T240 731L100 920Q141 957 193 992T311 1054T460 1097T645 1114Q757 1114 837 1087T968 1005T1043 871T1067 686V266Q1067 167 1074 105T1098 0H770Q759 34 752 73T745 160Q670 75 578 30T365 -16ZM496 231Q582 231 642 257T745 326V528Q550 508 463 460T375 336Q375 283 408 257T496 231ZM590 1186Q503 1186 437 1215T326 1296T257 1417T228 1565H404Q411 1509 430 1476T474 1424T530 1399T590 1393Q620 1393 650 1399T706 1423T750 1475T776 1565H952Q948 1486 924 1417T855 1297T744 1216T590 1186Z"/><glyph unicode="Ą" horiz-adv-x="1460" d="M1149 -383Q1036 -383 978 -342T919 -225Q919 -192 933 -159T972 -96T1032 -37Q1057 -16 1086 1L975 338H459L342 0H35L571 1522H889L1425 0H1258Q1196 -43 1170 -83Q1139 -130 1139 -172Q1139 -187 1143 -201T1157 -227T1186 -245T1233 -252Q1263 -252 1287 -247T1332 -235T1369 -218T1403 -201L1466 -301Q1403 -338 1326 -360T1149 -383ZM541 580H897L723 1096H719L541 580Z"/><glyph unicode="ą" horiz-adv-x="1182" d="M830 -383Q717 -383 659 -342T600 -225Q600 -192 614 -159T653 -96T713 -37Q739 -16 769 2Q758 35 752 73Q745 113 745 160Q670 75 578 30T365 -16Q302 -16 246 4T146 61T78 154T53 279Q53 373 94 446T219 573T434 660T745 709V735Q745 795 712 830T598 866Q493 866 404 828T240 731L100 920Q141 957 193 992T311 1054T460 1097T645 1114Q757 1114 837 1087T968 1005T1043 871T1067 686V266Q1067 167 1074 105T1098 0H939Q877 -43 851 -83Q820 -130 820 -172Q820 -187 824 -201T838 -227T867 -245T914 -252Q944 -252 968 -247T1013 -235T1050 -218T1084 -201L1147 -301Q1084 -338 1007 -360T830 -383ZM496 231Q582 231 642 257T745 326V528Q550 508 463 460T375 336Q375 283 408 257T496 231Z"/><glyph unicode="Ć" horiz-adv-x="1493" d="M779 1958H1110L805 1603H588L779 1958ZM772 -29Q624 -29 498 19T280 165T136 411T84 760Q84 957 137 1104T284 1349T502 1495T772 1544Q916 1544 1020 1508T1198 1408T1316 1257T1386 1067L1071 975Q1053 1040 1029 1094T969 1186T886 1246T770 1268Q684 1268 619 1233T509 1131T441 971T418 760Q418 640 441 544T510 380T621 276T774 240Q841 240 891 260T980 321T1046 421T1094 559L1407 489Q1379 375 1330 280T1205 116T1022 9T772 -29Z"/><glyph unicode="ć" horiz-adv-x="1137" d="M623 1563H954L649 1208H432L623 1563ZM602 -23Q538 -23 474 -11T350 30T238 102T148 209T88 355T66 545Q66 654 90 738T155 886T250 993T366 1063T491 1102T616 1114Q727 1114 806 1087T941 1013T1032 907T1092 780L815 688Q799 740 779 775T734 832T679 863T612 872Q512 872 454 790T395 543Q395 470 407 409T445 303T511 234T608 209Q641 209 672 218T731 250T782 310T823 403L1096 309Q1070 245 1030 186T931 80T791 5T602 -23Z"/><glyph unicode="Ĉ" horiz-adv-x="0"/><glyph unicode="ĉ" horiz-adv-x="0"/><glyph unicode="Ċ" horiz-adv-x="0"/><glyph unicode="ċ" horiz-adv-x="0"/><glyph unicode="Č" horiz-adv-x="1493" d="M371 1960H557L743 1808L932 1960H1118L854 1609H635L371 1960ZM772 -29Q624 -29 498 19T280 165T136 411T84 760Q84 957 137 1104T284 1349T502 1495T772 1544Q916 1544 1020 1508T1198 1408T1316 1257T1386 1067L1071 975Q1053 1040 1029 1094T969 1186T886 1246T770 1268Q684 1268 619 1233T509 1131T441 971T418 760Q418 640 441 544T510 380T621 276T774 240Q841 240 891 260T980 321T1046 421T1094 559L1407 489Q1379 375 1330 280T1205 116T1022 9T772 -29Z"/><glyph unicode="č" horiz-adv-x="1137" d="M195 1565H381L567 1413L756 1565H942L678 1214H459L195 1565ZM602 -23Q538 -23 474 -11T350 30T238 102T148 209T88 355T66 545Q66 654 90 738T155 886T250 993T366 1063T491 1102T616 1114Q727 1114 806 1087T941 1013T1032 907T1092 780L815 688Q799 740 779 775T734 832T679 863T612 872Q512 872 454 790T395 543Q395 470 407 409T445 303T511 234T608 209Q641 209 672 218T731 250T782 310T823 403L1096 309Q1070 245 1030 186T931 80T791 5T602 -23Z"/><glyph unicode="Ď" horiz-adv-x="1516" d="M383 1960H569L755 1808L944 1960H1130L866 1609H647L383 1960ZM156 0V1516H621Q794 1516 942 1477T1199 1349T1370 1117T1432 766Q1432 553 1370 407T1198 170T940 40T621 0H156ZM487 270H643Q767 270 853 298T994 387T1073 540T1098 762Q1098 883 1073 972T993 1120T851 1208T639 1237H487V270Z"/><glyph unicode="ď" horiz-adv-x="1278" d="M1352 1423H1235V1702H1532V1464L1409 1208H1278L1352 1423ZM485 -16Q392 -16 315 17T183 119T97 291T66 537Q66 678 97 786T184 966T318 1076T489 1114Q601 1114 681 1075T821 954V1516H1151V266Q1151 167 1158 105T1184 0H846Q840 10 836 29T828 71T823 119T821 164Q794 127 761 95T687 38T596 -1T485 -16ZM608 231Q639 231 669 240T726 264T777 298T821 338V741Q768 792 718 817T604 842Q501 842 448 765T395 539Q395 470 407 414T446 317T513 254T608 231Z"/><glyph unicode="Đ" horiz-adv-x="1516" d="M156 0V649H20V899H156V1516H621Q736 1516 841 1499T1036 1445T1200 1348T1324 1204T1404 1009T1432 758Q1432 550 1370 406T1198 171T940 41T621 0H156ZM487 270H643Q767 270 853 298T994 387T1073 540T1098 762Q1098 883 1073 972T993 1120T851 1208T639 1237H487V899H795V649H487V270Z"/><glyph unicode="đ" horiz-adv-x="1278" d="M647 1382H823V1516H1151V1382H1282V1174H1151V266Q1151 167 1158 105T1184 0H848Q842 10 837 29T829 71T825 119T823 164Q796 127 763 95T688 38T598 -1T487 -16Q394 -16 317 17T185 119T99 291T68 537Q68 678 99 786T186 966T320 1076T492 1114Q603 1114 683 1075T823 954V1174H647V1382ZM608 231Q639 231 669 240T726 264T778 298T823 338V743Q770 794 720 819T604 844Q501 844 448 766T395 539Q395 470 407 414T446 317T513 254T608 231Z"/><glyph unicode="Ē" horiz-adv-x="1296" d="M156 0V1516H1188V1237H489V911H995V647H489V270H1225V0H156ZM348 1825H1028V1591H348V1825Z"/><glyph unicode="ē" horiz-adv-x="1182" d="M623 -23Q516 -23 416 6T238 103T113 278T66 545Q66 651 91 734T158 881T255 988T372 1061T495 1101T614 1114Q670 1114 729 1104T844 1067T949 996T1036 884T1094 723T1116 506V457H393Q399 389 420 342T475 264T552 221T647 207Q695 207 741 218T829 247T907 288T971 338L1098 141Q1002 60 884 19T623 -23ZM821 651Q809 767 757 823T612 879Q574 879 539 866T476 825T427 754T397 651H821ZM248 1430H928V1196H248V1430Z"/><glyph unicode="Ĕ" horiz-adv-x="0"/><glyph unicode="ĕ" horiz-adv-x="0"/><glyph unicode="Ė" horiz-adv-x="1296" d="M156 0V1516H1188V1237H489V911H995V647H489V270H1225V0H156ZM520 1896H858V1628H520V1896Z"/><glyph unicode="ė" horiz-adv-x="1182" d="M623 -23Q516 -23 416 6T238 103T113 278T66 545Q66 651 91 734T158 881T255 988T372 1061T495 1101T614 1114Q670 1114 729 1104T844 1067T949 996T1036 884T1094 723T1116 506V457H393Q399 389 420 342T475 264T552 221T647 207Q695 207 741 218T829 247T907 288T971 338L1098 141Q1002 60 884 19T623 -23ZM821 651Q809 767 757 823T612 879Q574 879 539 866T476 825T427 754T397 651H821ZM420 1501H758V1233H420V1501Z"/><glyph unicode="Ę" horiz-adv-x="1296" d="M156 0V1516H1188V1237H489V911H995V647H489V270H1225V0H1068Q1006 -43 980 -83Q949 -130 949 -172Q949 -187 953 -201T967 -227T996 -245T1043 -252Q1073 -252 1097 -247T1142 -235T1179 -218T1213 -201L1276 -301Q1213 -338 1136 -360T959 -383Q846 -383 788 -342T729 -225Q729 -192 743 -159T782 -96T842 -37Q866 -17 894 0H156Z"/><glyph unicode="ę" horiz-adv-x="1182" d="M662 -383Q549 -383 491 -342T432 -225Q432 -192 446 -159T485 -96T545 -37Q555 -29 566 -21Q489 -15 415 6Q315 36 238 103T113 278T66 545Q66 651 91 734T158 881T255 988T372 1061T495 1101T614 1114Q670 1114 729 1104T844 1067T949 996T1036 884T1094 723T1116 506V457H393Q399 389 420 342T475 264T552 221T647 207Q695 207 741 218T829 247T907 288T971 338L1098 141Q1002 60 884 18Q822 -3 753 -13Q705 -50 683 -83Q652 -130 652 -172Q652 -187 656 -201T670 -227T699 -245T746 -252Q776 -252 800 -247T845 -235T882 -218T916 -201L979 -301Q916 -338 839 -360T662 -383ZM821 651Q809 767 757 823T612 879Q574 879 539 866T476 825T427 754T397 651H821Z"/><glyph unicode="Ě" horiz-adv-x="1296" d="M314 1960H500L686 1808L875 1960H1061L797 1609H578L314 1960ZM156 0V1516H1188V1237H489V911H995V647H489V270H1225V0H156Z"/><glyph unicode="ě" horiz-adv-x="1182" d="M216 1565H402L588 1413L777 1565H963L699 1214H480L216 1565ZM623 -23Q516 -23 416 6T238 103T113 278T66 545Q66 651 91 734T158 881T255 988T372 1061T495 1101T614 1114Q670 1114 729 1104T844 1067T949 996T1036 884T1094 723T1116 506V457H393Q399 389 420 342T475 264T552 221T647 207Q695 207 741 218T829 247T907 288T971 338L1098 141Q1002 60 884 19T623 -23ZM821 651Q809 767 757 823T612 879Q574 879 539 866T476 825T427 754T397 651H821Z"/><glyph unicode="Ĝ" horiz-adv-x="0"/><glyph unicode="ĝ" horiz-adv-x="0"/><glyph unicode="Ğ" horiz-adv-x="1559" d="M748 -29Q576 -29 451 30T244 196T123 447T84 764Q84 942 132 1086T269 1332T486 1489T774 1544Q882 1544 977 1521T1151 1441T1290 1291T1386 1059L1081 975Q1057 1054 1027 1109T959 1200T875 1252T772 1268Q741 1268 703 1261T626 1234T550 1179T484 1089T438 955T420 770Q420 664 436 584T479 444T542 346T619 284T703 250T786 240Q848 240 900 259T993 313T1059 398T1098 512H834V760H1415V0H1147V209H1143Q1131 175 1100 134T1019 56T902 -4T748 -29ZM778 1581Q691 1581 625 1610T514 1691T445 1812T416 1960H592Q599 1904 618 1871T662 1819T718 1794T778 1788Q808 1788 838 1794T894 1818T938 1870T964 1960H1140Q1136 1881 1112 1812T1043 1692T932 1611T778 1581Z"/><glyph unicode="ğ" horiz-adv-x="1260" d="M555 -410Q395 -410 287 -393T113 -345T19 -267T-10 -164Q-10 -124 5 -91T46 -30T106 18T178 55Q143 78 124 110T104 186Q104 220 116 251T150 310T201 364T262 410Q172 462 127 543T82 723Q82 805 114 876T209 1000T363 1083T573 1114Q695 1114 786 1083T940 995Q968 1019 1002 1039T1074 1073T1149 1097T1221 1108V856Q1192 856 1144 852T1036 831Q1046 810 1051 783T1057 723Q1057 640 1026 569T933 446T781 364T573 334Q527 334 485 339T406 352Q389 338 379 325T369 297Q369 266 400 257T492 244L655 233Q796 228 895 208T1059 151T1152 57T1182 -76Q1182 -160 1135 -223T1005 -327T806 -389T555 -410ZM578 516Q623 516 657 531T716 572T752 633T764 711Q764 752 752 787T717 849T659 890T578 905Q533 905 498 890T439 849T403 788T391 711Q391 669 403 634T440 572T498 531T578 516ZM608 -244Q671 -244 723 -237T813 -215T872 -179T893 -131Q893 -106 884 -87T845 -55T757 -34T602 -20L430 -12L358 -6Q327 -26 312 -51T297 -104Q297 -140 314 -166T368 -209T465 -235T608 -244ZM586 1186Q499 1186 433 1215T322 1296T253 1417T224 1565H400Q407 1509 426 1476T470 1424T526 1399T586 1393Q616 1393 646 1399T702 1423T746 1475T772 1565H948Q944 1486 920 1417T851 1297T740 1216T586 1186Z"/><glyph unicode="Ġ" horiz-adv-x="0"/><glyph unicode="ġ" horiz-adv-x="0"/><glyph unicode="Ģ" horiz-adv-x="1559" d="M748 -377H625V-88H934V-336L807 -602H670L748 -377ZM748 -29Q576 -29 451 30T244 196T123 447T84 764Q84 942 132 1086T269 1332T486 1489T774 1544Q882 1544 977 1521T1151 1441T1290 1291T1386 1059L1081 975Q1057 1054 1027 1109T959 1200T875 1252T772 1268Q741 1268 703 1261T626 1234T550 1179T484 1089T438 955T420 770Q420 664 436 584T479 444T542 346T619 284T703 250T786 240Q848 240 900 259T993 313T1059 398T1098 512H834V760H1415V0H1147V209H1143Q1131 175 1100 134T1019 56T902 -4T748 -29Z"/><glyph unicode="ģ" horiz-adv-x="1260" d="M555 -410Q395 -410 287 -393T113 -345T19 -267T-10 -164Q-10 -124 5 -91T46 -30T106 18T178 55Q143 78 124 110T104 186Q104 220 116 251T150 310T201 364T262 410Q172 462 127 543T82 723Q82 805 114 876T209 1000T363 1083T573 1114Q695 1114 786 1083T940 995Q968 1019 1002 1039T1074 1073T1149 1097T1221 1108V856Q1192 856 1144 852T1036 831Q1046 810 1051 783T1057 723Q1057 640 1026 569T933 446T781 364T573 334Q527 334 485 339T406 352Q389 338 379 325T369 297Q369 266 400 257T492 244L655 233Q796 228 895 208T1059 151T1152 57T1182 -76Q1182 -160 1135 -223T1005 -327T806 -389T555 -410ZM578 516Q623 516 657 531T716 572T752 633T764 711Q764 752 752 787T717 849T659 890T578 905Q533 905 498 890T439 849T403 788T391 711Q391 669 403 634T440 572T498 531T578 516ZM608 -244Q671 -244 723 -237T813 -215T872 -179T893 -131Q893 -106 884 -87T845 -55T757 -34T602 -20L430 -12L358 -6Q327 -26 312 -51T297 -104Q297 -140 314 -166T368 -209T465 -235T608 -244ZM616 1487H739V1198H430V1446L557 1712H694L616 1487Z"/><glyph unicode="Ĥ" horiz-adv-x="0"/><glyph unicode="ĥ" horiz-adv-x="0"/><glyph unicode="Ħ" horiz-adv-x="0"/><glyph unicode="ħ" horiz-adv-x="1266" d="M-4 1382H127V1516H455V1382H631V1174H455V920Q479 952 514 986T596 1049T701 1096T831 1114Q901 1114 960 1096T1061 1040T1127 942T1151 797V0H821V692Q821 767 792 805T694 844Q626 844 568 813T455 733V0H127V1174H-4V1382Z"/><glyph unicode="Ĩ" horiz-adv-x="0"/><glyph unicode="ĩ" horiz-adv-x="0"/><glyph unicode="Ī" horiz-adv-x="676" d="M172 0V1516H504V0H172ZM-1 1825H679V1591H-1V1825Z"/><glyph unicode="ī" horiz-adv-x="602" d="M137 0V1092H465V0H137ZM-38 1430H642V1196H-38V1430Z"/><glyph unicode="Ĭ" horiz-adv-x="0"/><glyph unicode="ĭ" horiz-adv-x="0"/><glyph unicode="Į" horiz-adv-x="676" d="M232 -383Q119 -383 61 -342T2 -225Q2 -192 16 -159T55 -96T115 -37Q142 -15 172 3V1516H504V0H341Q279 -43 253 -83Q222 -130 222 -172Q222 -187 226 -201T240 -227T269 -245T316 -252Q346 -252 370 -247T415 -235T452 -218T486 -201L549 -301Q486 -338 409 -360T232 -383Z"/><glyph unicode="į" horiz-adv-x="602" d="M135 1241V1505H467V1241H135ZM197 -383Q84 -383 26 -342T-33 -225Q-33 -192 -19 -159T20 -96T80 -37Q107 -15 137 3V1092H465V0H306Q244 -43 218 -83Q187 -130 187 -172Q187 -187 191 -201T205 -227T234 -245T281 -252Q311 -252 335 -247T380 -235T417 -218T451 -201L514 -301Q451 -338 374 -360T197 -383Z"/><glyph unicode="İ" horiz-adv-x="676" d="M172 0V1516H504V0H172ZM171 1896H509V1628H171V1896Z"/><glyph unicode="ı" horiz-adv-x="602" d="M137 0V1092H465V0H137Z"/><glyph unicode="Ĳ" horiz-adv-x="0"/><glyph unicode="ĳ" horiz-adv-x="0"/><glyph unicode="Ĵ" horiz-adv-x="0"/><glyph unicode="ĵ" horiz-adv-x="0"/><glyph unicode="Ķ" horiz-adv-x="1470" d="M702 -377H579V-88H888V-336L761 -602H624L702 -377ZM156 0V1516H489V889L997 1516H1386L872 924L1440 0H1063L655 672L489 485V0H156Z"/><glyph unicode="ķ" horiz-adv-x="1198" d="M567 -377H444V-88H753V-336L626 -602H489L567 -377ZM125 0V1516H455V684L795 1092H1149L793 684L1169 0H829L588 444L455 295V0H125Z"/><glyph unicode="ĸ" horiz-adv-x="1198" d="M127 1092H455V684L795 1092H1149L793 686L1169 0H829L588 444L455 295V0H127V1092Z"/><glyph unicode="Ĺ" horiz-adv-x="1200" d="M409 1958H740L435 1603H218L409 1958ZM156 0V1516H489V270H1157V0H156Z"/><glyph unicode="ĺ" horiz-adv-x="602" d="M376 1958H707L402 1603H185L376 1958ZM137 0V1516H465V0H137Z"/><glyph unicode="Ļ" horiz-adv-x="1200" d="M567 -377H444V-88H753V-336L626 -602H489L567 -377ZM156 0V1516H489V270H1157V0H156Z"/><glyph unicode="ļ" horiz-adv-x="602" d="M268 -377H145V-88H454V-336L327 -602H190L268 -377ZM137 0V1516H465V0H137Z"/><glyph unicode="Ľ" horiz-adv-x="1200" d="M778 1225H655V1514H964V1266L837 1000H700L778 1225ZM156 0V1516H489V270H1157V0H156Z"/><glyph unicode="ľ" horiz-adv-x="602" d="M659 1423H543V1702H840V1464L717 1208H586L659 1423ZM137 0V1516H465V0H137Z"/><glyph unicode="Ŀ" horiz-adv-x="1278" d="M803 979H1110V711H803V979ZM156 0V1516H489V270H1157V0H156Z"/><glyph unicode="ŀ" horiz-adv-x="899" d="M598 827H905V557H598V827ZM137 0V1516H465V0H137Z"/><glyph unicode="Ł" horiz-adv-x="1200" d="M158 0V657L-8 614V862L158 907V1516H489V995L780 1073V823L489 748V270H1157V0H158Z"/><glyph unicode="ł" horiz-adv-x="692" d="M184 805L45 766V1006L184 1044V1516H512V1133L647 1169V930L512 893V0H184V805Z"/><glyph unicode="Ń" horiz-adv-x="1591" d="M811 1958H1142L837 1603H620L811 1958ZM156 0V1516H489L1124 549H1128V1516H1436V0H1128L467 975H463V0H156Z"/><glyph unicode="ń" horiz-adv-x="1266" d="M617 1563H948L643 1208H426L617 1563ZM127 0V1092H457V920Q481 952 516 986T598 1049T703 1096T834 1114Q903 1114 961 1096T1061 1040T1127 942T1151 797V0H823V692Q823 767 793 804T694 842Q628 842 570 812T457 733V0H127Z"/><glyph unicode="Ņ" horiz-adv-x="1591" d="M762 -377H639V-88H948V-336L821 -602H684L762 -377ZM156 0V1516H489L1124 549H1128V1516H1436V0H1128L467 975H463V0H156Z"/><glyph unicode="ņ" horiz-adv-x="1266" d="M604 -377H481V-88H790V-336L663 -602H526L604 -377ZM127 0V1092H457V920Q481 952 516 986T598 1049T703 1096T834 1114Q903 1114 961 1096T1061 1040T1127 942T1151 797V0H823V692Q823 767 793 804T694 842Q628 842 570 812T457 733V0H127Z"/><glyph unicode="Ň" horiz-adv-x="1591" d="M420 1960H606L792 1808L981 1960H1167L903 1609H684L420 1960ZM156 0V1516H489L1124 549H1128V1516H1436V0H1128L467 975H463V0H156Z"/><glyph unicode="ň" horiz-adv-x="1266" d="M265 1565H451L637 1413L826 1565H1012L748 1214H529L265 1565ZM127 0V1092H457V920Q481 952 516 986T598 1049T703 1096T834 1114Q903 1114 961 1096T1061 1040T1127 942T1151 797V0H823V692Q823 767 793 804T694 842Q628 842 570 812T457 733V0H127Z"/><glyph unicode="ŉ" horiz-adv-x="0"/><glyph unicode="Ŋ" horiz-adv-x="0"/><glyph unicode="ŋ" horiz-adv-x="0"/><glyph unicode="Ō" horiz-adv-x="1597" d="M457 1825H1137V1591H457V1825ZM799 -29Q661 -29 533 19T304 164T144 410T84 758Q84 957 144 1105T304 1350T532 1496T799 1544Q890 1544 978 1523T1145 1458T1291 1351T1407 1199T1483 1001T1511 758Q1511 625 1484 515T1408 318T1292 165T1145 57T978 -7T799 -29ZM799 240Q886 240 956 276T1076 379T1153 543T1180 758Q1180 877 1153 971T1077 1132T957 1233T799 1268Q710 1268 640 1233T520 1132T445 972T418 758Q418 639 444 543T520 380T639 276T799 240Z"/><glyph unicode="ō" horiz-adv-x="1247" d="M283 1430H963V1196H283V1430ZM625 -23Q559 -23 492 -11T362 30T246 102T152 209T89 355T66 545Q66 652 89 736T151 883T245 990T361 1061T491 1101T625 1114Q691 1114 758 1102T887 1062T1002 990T1096 883T1159 736T1182 545Q1182 439 1159 356T1096 209T1003 102T887 30T758 -10T625 -23ZM625 209Q683 209 726 233T797 301T838 406T852 543Q852 611 840 671T800 775T729 846T625 872Q566 872 523 848T451 781T409 677T395 543Q395 474 407 414T447 308T518 236T625 209Z"/><glyph unicode="Ŏ" horiz-adv-x="0"/><glyph unicode="ŏ" horiz-adv-x="0"/><glyph unicode="Ő" horiz-adv-x="1597" d="M639 1958H971L643 1603H426L639 1958ZM1047 1958H1379L1037 1603H818L1047 1958ZM799 -29Q661 -29 533 19T304 164T144 410T84 758Q84 957 144 1105T304 1350T532 1496T799 1544Q890 1544 978 1523T1145 1458T1291 1351T1407 1199T1483 1001T1511 758Q1511 625 1484 515T1408 318T1292 165T1145 57T978 -7T799 -29ZM799 240Q886 240 956 276T1076 379T1153 543T1180 758Q1180 877 1153 971T1077 1132T957 1233T799 1268Q710 1268 640 1233T520 1132T445 972T418 758Q418 639 444 543T520 380T639 276T799 240Z"/><glyph unicode="ő" horiz-adv-x="1247" d="M483 1563H815L487 1208H270L483 1563ZM891 1563H1223L881 1208H662L891 1563ZM625 -23Q559 -23 492 -11T362 30T246 102T152 209T89 355T66 545Q66 652 89 736T151 883T245 990T361 1061T491 1101T625 1114Q691 1114 758 1102T887 1062T1002 990T1096 883T1159 736T1182 545Q1182 439 1159 356T1096 209T1003 102T887 30T758 -10T625 -23ZM625 209Q683 209 726 233T797 301T838 406T852 543Q852 611 840 671T800 775T729 846T625 872Q566 872 523 848T451 781T409 677T395 543Q395 474 407 414T447 308T518 236T625 209Z"/><glyph unicode="Œ" horiz-adv-x="2314" d="M778 -29Q688 -29 601 -8T437 57T294 165T182 317T109 515T82 758Q82 957 142 1105T302 1350T530 1496T797 1544Q917 1544 1022 1503T1208 1386V1516H2206V1237H1507V911H2013V647H1507V270H2243V0H1208V131Q1127 56 1020 14T778 -29ZM797 240Q884 240 954 276T1074 379T1149 543T1176 758Q1176 877 1150 971T1074 1132T955 1233T797 1268Q708 1268 638 1233T517 1132T441 972T414 758Q414 639 440 543T517 380T637 276T797 240Z"/><glyph unicode="œ" horiz-adv-x="1952" d="M623 -23Q557 -23 490 -11T361 30T245 102T152 209T89 355T66 545Q66 652 88 736T151 883T244 990T360 1061T489 1101T623 1114Q737 1114 836 1065T1008 909Q1045 962 1089 1001T1182 1065T1282 1102T1384 1114Q1443 1114 1503 1104T1620 1067T1724 996T1809 884T1867 723T1888 506V457H1167Q1173 389 1193 342T1247 266T1324 223T1419 209Q1467 209 1513 219T1600 248T1677 289T1741 338L1870 141Q1774 60 1656 19T1395 -23Q1277 -23 1175 24T1001 170Q933 70 834 24T623 -23ZM623 217Q682 217 725 240T795 305T836 408T850 543Q850 611 838 670T798 772T728 841T623 866Q564 866 521 843T450 778T409 676T395 543Q395 474 407 415T446 311T516 242T623 217ZM1593 651Q1581 767 1529 822T1382 877Q1344 877 1310 864T1248 824T1200 754T1169 651H1593Z"/><glyph unicode="Ŕ" horiz-adv-x="1444" d="M748 1958H1079L774 1603H557L748 1958ZM156 0V1516H725Q865 1516 975 1490T1163 1408T1280 1262T1321 1047Q1321 957 1300 887T1239 764T1141 674T1006 614L1343 0H991L676 571H483V0H156ZM483 829H711Q783 829 836 840T925 876T977 941T995 1038Q995 1150 925 1196T711 1243H483V829Z"/><glyph unicode="ŕ" horiz-adv-x="866" d="M718 1563H1049L744 1208H527L718 1563ZM125 0V1092H455V909H457Q479 943 510 979T586 1046T689 1095T825 1114H836L831 821Q826 822 815 823T791 825T766 826T745 827Q696 827 653 815T574 783T508 735T455 678V0H125Z"/><glyph unicode="Ŗ" horiz-adv-x="1444" d="M688 -377H565V-88H874V-336L747 -602H610L688 -377ZM156 0V1516H725Q865 1516 975 1490T1163 1408T1280 1262T1321 1047Q1321 957 1300 887T1239 764T1141 674T1006 614L1343 0H991L676 571H483V0H156ZM483 829H711Q783 829 836 840T925 876T977 941T995 1038Q995 1150 925 1196T711 1243H483V829Z"/><glyph unicode="ŗ" horiz-adv-x="866" d="M256 -377H133V-88H442V-336L315 -602H178L256 -377ZM125 0V1092H455V909H457Q479 943 510 979T586 1046T689 1095T825 1114H836L831 821Q826 822 815 823T791 825T766 826T745 827Q696 827 653 815T574 783T508 735T455 678V0H125Z"/><glyph unicode="Ř" horiz-adv-x="1444" d="M347 1960H533L719 1808L908 1960H1094L830 1609H611L347 1960ZM156 0V1516H725Q865 1516 975 1490T1163 1408T1280 1262T1321 1047Q1321 957 1300 887T1239 764T1141 674T1006 614L1343 0H991L676 571H483V0H156ZM483 829H711Q783 829 836 840T925 876T977 941T995 1038Q995 1150 925 1196T711 1243H483V829Z"/><glyph unicode="ř" horiz-adv-x="866" d="M61 1565H247L433 1413L622 1565H808L544 1214H325L61 1565ZM125 0V1092H455V909H457Q479 943 510 979T586 1046T689 1095T825 1114H836L831 821Q826 822 815 823T791 825T766 826T745 827Q696 827 653 815T574 783T508 735T455 678V0H125Z"/><glyph unicode="Ś" horiz-adv-x="1417" d="M734 1958H1065L760 1603H543L734 1958ZM719 -29Q596 -29 496 -1T316 76T176 194T74 344L326 494Q357 432 400 384T496 303T609 253T735 236Q793 236 841 246T925 279T979 333T999 410Q999 453 979 484T920 541T824 587T692 629Q624 648 557 667T429 712T314 769T222 847T161 952T139 1092Q139 1198 178 1281T290 1423T463 1513T686 1544Q803 1544 896 1518T1064 1449T1193 1350T1288 1233L1057 1057Q1027 1105 986 1145T896 1213T793 1256T684 1272Q578 1272 522 1230T465 1120Q465 1075 485 1043T546 986T644 942T776 901Q842 883 909 863T1037 817T1150 757T1242 677T1303 571T1325 432Q1325 340 1290 257T1180 110T992 9T719 -29Z"/><glyph unicode="ś" horiz-adv-x="1094" d="M574 1563H905L600 1208H383L574 1563ZM555 -23Q465 -23 390 -10T252 25T138 79T45 145L176 330Q213 298 258 272T352 227T453 198T555 188Q593 188 625 194T680 214T716 248T729 295Q729 323 718 343T682 379T618 405T522 426Q470 435 419 446T319 474T230 515T159 574T112 656T94 768Q94 850 126 914T214 1023T348 1090T518 1114Q602 1114 670 1104T796 1074T903 1026T997 961L868 774Q785 831 705 862T547 893Q476 893 438 868T399 797Q399 772 410 755T446 724T506 700T594 680Q648 671 701 660T804 633T895 593T969 535T1018 455T1036 346Q1036 247 997 177T890 63T736 -2T555 -23Z"/><glyph unicode="Ŝ" horiz-adv-x="0"/><glyph unicode="ŝ" horiz-adv-x="0"/><glyph unicode="Ş" horiz-adv-x="1417" d="M734 -414Q641 -414 563 -394T431 -338L490 -240Q536 -271 595 -286T707 -301Q755 -301 782 -284T809 -231Q809 -202 791 -189T744 -176Q718 -176 698 -185T656 -211L574 -170L619 -24Q553 -17 495 -1Q395 27 316 76T176 194T74 344L326 494Q357 432 400 384T496 303T609 253T735 236Q793 236 841 246T925 279T979 333T999 410Q999 453 979 484T920 541T824 587T692 629Q624 648 557 667T429 712T314 769T222 847T161 952T139 1092Q139 1198 178 1281T290 1423T463 1513T686 1544Q803 1544 896 1518T1064 1449T1193 1350T1288 1233L1057 1057Q1027 1105 986 1145T896 1213T793 1256T684 1272Q578 1272 522 1230T465 1120Q465 1075 485 1043T546 986T644 942T776 901Q842 883 909 863T1037 817T1150 757T1242 677T1303 571T1325 432Q1325 340 1290 257T1180 110T991 8Q890 -24 755 -28L740 -94Q761 -80 793 -72T871 -63Q900 -63 927 -72T974 -100T1007 -145T1020 -207Q1020 -255 998 -293T937 -359T846 -400T734 -414Z"/><glyph unicode="ş" horiz-adv-x="1094" d="M572 -414Q479 -414 401 -394T269 -338L328 -240Q374 -271 433 -286T545 -301Q593 -301 620 -284T647 -231Q647 -202 629 -189T582 -176Q556 -176 536 -185T494 -211L412 -170L459 -19Q423 -16 389 -10Q314 3 252 25T138 79T45 145L176 330Q213 298 258 272T352 227T453 198T555 188Q593 188 625 194T680 214T716 248T729 295Q729 323 718 343T682 379T618 405T522 426Q470 435 419 446T319 474T230 515T159 574T112 656T94 768Q94 850 126 914T214 1023T348 1090T518 1114Q602 1114 670 1104T796 1074T903 1026T997 961L868 774Q785 831 705 862T547 893Q476 893 438 868T399 797Q399 772 410 755T446 724T506 700T594 680Q648 671 701 660T804 633T895 593T969 535T1018 455T1036 346Q1036 247 997 177T890 63T736 -2Q667 -18 595 -22L578 -94Q599 -80 631 -72T709 -63Q738 -63 765 -72T812 -100T845 -145T858 -207Q858 -255 836 -293T775 -359T684 -400T572 -414Z"/><glyph unicode="Š" horiz-adv-x="1417" d="M334 1966H520L706 1814L895 1966H1081L817 1615H598L334 1966ZM719 -29Q596 -29 496 -1T316 76T176 194T74 344L326 494Q357 432 400 384T496 303T609 253T735 236Q793 236 841 246T925 279T979 333T999 410Q999 453 979 484T920 541T824 587T692 629Q624 648 557 667T429 712T314 769T222 847T161 952T139 1092Q139 1198 178 1281T290 1423T463 1513T686 1544Q803 1544 896 1518T1064 1449T1193 1350T1288 1233L1057 1057Q1027 1105 986 1145T896 1213T793 1256T684 1272Q578 1272 522 1230T465 1120Q465 1075 485 1043T546 986T644 942T776 901Q842 883 909 863T1037 817T1150 757T1242 677T1303 571T1325 432Q1325 340 1290 257T1180 110T992 9T719 -29Z"/><glyph unicode="š" horiz-adv-x="1094" d="M432 1565H618L804 1413L993 1565H1179L915 1214H696L432 1565ZM555 -23Q465 -23 390 -10T252 25T138 79T45 145L176 330Q213 298 258 272T352 227T453 198T555 188Q593 188 625 194T680 214T716 248T729 295Q729 323 718 343T682 379T618 405T522 426Q470 435 419 446T319 474T230 515T159 574T112 656T94 768Q94 850 126 914T214 1023T348 1090T518 1114Q602 1114 670 1104T796 1074T903 1026T997 961L868 774Q785 831 705 862T547 893Q476 893 438 868T399 797Q399 772 410 755T446 724T506 700T594 680Q648 671 701 660T804 633T895 593T969 535T1018 455T1036 346Q1036 247 997 177T890 63T736 -2T555 -23Z"/><glyph unicode="Ţ" horiz-adv-x="1327" d="M631 -377H508V-88H817V-336L690 -602H553L631 -377ZM496 0V1237H45V1516H1282V1237H829V0H496Z"/><glyph unicode="ţ" horiz-adv-x="874" d="M375 -377H252V-88H561V-336L434 -602H297L375 -377ZM584 -14Q462 -14 389 7T277 70T226 170T213 307V852H31V1092H213V1466H541V1092H821V852H541V379Q541 335 548 306T572 258T618 233T692 225Q706 225 721 226T752 228T779 232T801 238V2Q792 0 767 -3T710 -8T645 -12T584 -14Z"/><glyph unicode="Ť" horiz-adv-x="1327" d="M289 1960H475L661 1808L850 1960H1036L772 1609H553L289 1960ZM496 0V1237H45V1516H1282V1237H829V0H496Z"/><glyph unicode="ť" horiz-adv-x="874" d="M756 1448H639V1726H936V1489L813 1233H682L756 1448ZM584 -14Q462 -14 389 7T277 70T226 170T213 307V852H31V1092H213V1466H541V1092H821V852H541V379Q541 335 548 306T572 258T618 233T692 225Q706 225 721 226T752 228T779 232T801 238V2Q792 0 767 -3T710 -8T645 -12T584 -14Z"/><glyph unicode="Ŧ" horiz-adv-x="0"/><glyph unicode="ŧ" horiz-adv-x="0"/><glyph unicode="Ũ" horiz-adv-x="0"/><glyph unicode="ũ" horiz-adv-x="0"/><glyph unicode="Ū" horiz-adv-x="1485" d="M743 -25Q585 -25 470 17T279 138T168 329T131 580V1516H465V588Q465 506 481 442T531 335T619 269T748 246Q895 246 960 334T1026 588V1516H1354V582Q1354 442 1318 330T1207 139T1017 18T743 -25ZM401 1825H1081V1591H401V1825Z"/><glyph unicode="ū" horiz-adv-x="1266" d="M434 -23Q364 -23 306 -5T205 51T139 150T115 295V1092H444V391Q444 317 474 279T573 240Q640 240 697 271T811 350V1092H1141V0H811V170Q786 138 751 104T670 42T565 -4T434 -23ZM291 1430H971V1196H291V1430Z"/><glyph unicode="Ŭ" horiz-adv-x="0"/><glyph unicode="ŭ" horiz-adv-x="0"/><glyph unicode="Ů" horiz-adv-x="1485" d="M741 1585Q693 1585 652 1602T581 1649T535 1720T518 1810Q518 1857 534 1897T581 1967T652 2014T741 2031Q789 2031 830 2014T902 1968T949 1898T966 1810Q966 1762 949 1721T902 1649T831 1602T741 1585ZM741 1710Q783 1710 809 1737T835 1810Q835 1852 809 1879T741 1906Q699 1906 673 1879T647 1810Q647 1765 673 1738T741 1710ZM743 -25Q585 -25 470 17T279 138T168 329T131 580V1516H465V588Q465 506 481 442T531 335T619 269T748 246Q895 246 960 334T1026 588V1516H1354V582Q1354 442 1318 330T1207 139T1017 18T743 -25Z"/><glyph unicode="ů" horiz-adv-x="1266" d="M631 1190Q583 1190 542 1207T471 1254T425 1325T408 1415Q408 1462 424 1502T471 1572T542 1619T631 1636Q679 1636 720 1619T792 1573T839 1503T856 1415Q856 1367 839 1326T792 1254T721 1207T631 1190ZM631 1315Q673 1315 699 1342T725 1415Q725 1457 699 1484T631 1511Q589 1511 563 1484T537 1415Q537 1370 563 1343T631 1315ZM434 -23Q364 -23 306 -5T205 51T139 150T115 295V1092H444V391Q444 317 474 279T573 240Q640 240 697 271T811 350V1092H1141V0H811V170Q786 138 751 104T670 42T565 -4T434 -23Z"/><glyph unicode="Ű" horiz-adv-x="1485" d="M743 -25Q585 -25 470 17T279 138T168 329T131 580V1516H465V588Q465 506 481 442T531 335T619 269T748 246Q895 246 960 334T1026 588V1516H1354V582Q1354 442 1318 330T1207 139T1017 18T743 -25ZM598 1958H930L602 1603H385L598 1958ZM1006 1958H1338L996 1603H777L1006 1958Z"/><glyph unicode="ű" horiz-adv-x="1266" d="M434 -23Q364 -23 306 -5T205 51T139 150T115 295V1092H444V391Q444 317 474 279T573 240Q640 240 697 271T811 350V1092H1141V0H811V170Q786 138 751 104T670 42T565 -4T434 -23ZM506 1563H838L510 1208H293L506 1563ZM914 1563H1246L904 1208H685L914 1563Z"/><glyph unicode="Ų" horiz-adv-x="1485" d="M782 -383Q669 -383 611 -342T552 -225Q552 -192 566 -159T605 -96T665 -37Q674 -30 682 -23Q562 -16 469 17Q354 60 279 138T168 329T131 580V1516H465V588Q465 506 481 442T531 335T619 269T748 246Q895 246 960 334T1026 588V1516H1354V582Q1354 442 1318 330T1207 139T1016 17Q949 -7 867 -17Q824 -51 803 -83Q772 -130 772 -172Q772 -187 776 -201T790 -227T819 -245T866 -252Q896 -252 920 -247T965 -235T1002 -218T1036 -201L1099 -301Q1036 -338 959 -360T782 -383Z"/><glyph unicode="ų" horiz-adv-x="1266" d="M434 -23Q364 -23 306 -5T205 51T139 150T115 295V1092H444V391Q444 317 474 279T573 240Q640 240 697 271T811 350V1092H1141V0H977Q915 -43 889 -83Q858 -130 858 -172Q858 -187 862 -201T876 -227T905 -245T952 -252Q982 -252 1006 -247T1051 -235T1088 -218T1122 -201L1185 -301Q1122 -338 1045 -360T868 -383Q755 -383 697 -342T638 -225Q638 -192 652 -159T691 -96T751 -37Q779 -14 811 5V170Q786 138 751 104T670 42T565 -4T434 -23Z"/><glyph unicode="Ŵ" horiz-adv-x="0"/><glyph unicode="ŵ" horiz-adv-x="0"/><glyph unicode="Ŷ" horiz-adv-x="0"/><glyph unicode="ŷ" horiz-adv-x="0"/><glyph unicode="Ÿ" horiz-adv-x="1415" d="M541 0V643L18 1516H362L709 926L1057 1516H1397L872 643V0H541ZM350 1894H629V1591H350V1894ZM784 1894H1063V1591H784V1894Z"/><glyph unicode="Ź" horiz-adv-x="1352" d="M670 1958H1001L696 1603H479L670 1958ZM61 0V229L852 1239H113V1516H1272V1278L498 270H1272V0H61Z"/><glyph unicode="ź" horiz-adv-x="1085" d="M570 1563H901L596 1208H379L570 1563ZM59 0V170L588 852H98V1092H995V918L465 233H1036V0H59Z"/><glyph unicode="Ż" horiz-adv-x="1352" d="M61 0V229L852 1239H113V1516H1272V1278L498 270H1272V0H61ZM506 1896H844V1628H506V1896Z"/><glyph unicode="ż" horiz-adv-x="1085" d="M59 0V170L588 852H98V1092H995V918L465 233H1036V0H59ZM375 1501H713V1233H375V1501Z"/><glyph unicode="Ž" horiz-adv-x="1352" d="M316 1966H502L688 1814L877 1966H1063L799 1615H580L316 1966ZM61 0V229L852 1239H113V1516H1272V1278L498 270H1272V0H61Z"/><glyph unicode="ž" horiz-adv-x="1085" d="M436 1565H622L808 1413L997 1565H1183L919 1214H700L436 1565ZM59 0V170L588 852H98V1092H995V918L465 233H1036V0H59Z"/><glyph unicode="ſ" horiz-adv-x="0"/><glyph unicode="ƒ" horiz-adv-x="860" d="M-156 -180Q-143 -183 -115 -185T-61 -188Q15 -188 58 -151T113 -27L217 786H29L57 1016H246L264 1167Q272 1237 294 1301T363 1415T489 1494T690 1524Q715 1524 746 1522T806 1518T858 1513T889 1509L858 1280Q846 1283 818 1285T764 1288Q734 1288 705 1284T653 1267T613 1227T592 1157L575 1016H813L784 786H547L434 -92Q426 -153 406 -211T339 -314T214 -388T12 -416Q-12 -416 -43 -415T-103 -411T-154 -406T-184 -401L-156 -180Z"/><glyph unicode="Ǻ" horiz-adv-x="0"/><glyph unicode="ǻ" horiz-adv-x="0"/><glyph unicode="Ǽ" horiz-adv-x="0"/><glyph unicode="ǽ" horiz-adv-x="0"/><glyph unicode="Ǿ" horiz-adv-x="0"/><glyph unicode="ǿ" horiz-adv-x="0"/><glyph unicode="Ș" horiz-adv-x="0"/><glyph unicode="ș" horiz-adv-x="0"/><glyph unicode="Ț" horiz-adv-x="1327" d="M631 -377H508V-88H817V-336L690 -602H553L631 -377ZM496 0V1237H45V1516H1282V1237H829V0H496Z"/><glyph unicode="ț" horiz-adv-x="874" d="M375 -377H252V-88H561V-336L434 -602H297L375 -377ZM584 -14Q462 -14 389 7T277 70T226 170T213 307V852H31V1092H213V1466H541V1092H821V852H541V379Q541 335 548 306T572 258T618 233T692 225Q706 225 721 226T752 228T779 232T801 238V2Q792 0 767 -3T710 -8T645 -12T584 -14Z"/><glyph unicode="ə" horiz-adv-x="0"/><glyph unicode="ˆ" horiz-adv-x="1133" d="M457 1563H676L940 1212H754L563 1364L379 1212H193L457 1563Z"/><glyph unicode="ˇ" horiz-adv-x="1133" d="M193 1565H379L565 1413L754 1565H940L676 1214H457L193 1565Z"/><glyph unicode="˘" horiz-adv-x="1024" d="M512 1186Q425 1186 359 1215T248 1296T179 1417T150 1565H326Q333 1509 352 1476T396 1424T452 1399T512 1393Q542 1393 572 1399T628 1423T672 1475T698 1565H874Q870 1486 846 1417T777 1297T666 1216T512 1186Z"/><glyph unicode="˙" horiz-adv-x="1024" d="M344 1501H682V1233H344V1501Z"/><glyph unicode="˚" horiz-adv-x="1106" d="M553 1190Q505 1190 464 1207T393 1254T347 1325T330 1415Q330 1462 346 1502T393 1572T464 1619T553 1636Q601 1636 642 1619T714 1573T761 1503T778 1415Q778 1367 761 1326T714 1254T643 1207T553 1190ZM553 1315Q595 1315 621 1342T647 1415Q647 1457 621 1484T553 1511Q511 1511 485 1484T459 1415Q459 1370 485 1343T553 1315Z"/><glyph unicode="˛" horiz-adv-x="1024" d="M549 -383Q436 -383 378 -342T319 -225Q319 -192 333 -159T372 -96T432 -37T508 14H680Q601 -37 570 -83T539 -172Q539 -187 543 -201T557 -227T586 -245T633 -252Q663 -252 687 -247T732 -235T769 -218T803 -201L866 -301Q803 -338 726 -360T549 -383Z"/><glyph unicode="˜" horiz-adv-x="1071" d="M692 1188Q636 1188 596 1206T522 1245T460 1285T397 1303Q357 1303 335 1278T313 1192H135Q135 1279 152 1340T201 1441T278 1499T379 1518Q435 1518 475 1500T549 1461T611 1421T674 1403Q714 1403 736 1428T758 1513H934Q934 1426 917 1365T869 1264T792 1207T692 1188Z"/><glyph unicode="˝" horiz-adv-x="1077" d="M313 1563H645L317 1208H100L313 1563ZM721 1563H1053L711 1208H492L721 1563Z"/><glyph unicode="̦" horiz-adv-x="578" d="M256 -377H133V-88H442V-336L315 -602H178L256 -377Z"/><glyph unicode="΄" horiz-adv-x="1024" d="M440 1559H770L526 1196H309L440 1559Z"/><glyph unicode="΅" horiz-adv-x="1090" d="M23 1501H295V1196H23V1501ZM795 1501H1067V1196H795V1501ZM459 1559H786L545 1196H328L459 1559Z"/><glyph unicode="Ά" horiz-adv-x="1501" d="M74 0L610 1522H928L1464 0H1126L1014 338H498L381 0H74ZM580 580H936L762 1096H758L580 580ZM91 1519H421L177 1156H-40L91 1519Z"/><glyph unicode="Έ" horiz-adv-x="1634" d="M70 1519H400L156 1156H-61L70 1519ZM494 0V1516H1526V1237H827V911H1333V647H827V270H1563V0H494Z"/><glyph unicode="Ή" horiz-adv-x="1913" d="M70 1519H400L156 1156H-61L70 1519ZM494 0V1516H827V928H1423V1516H1757V0H1423V647H827V0H494Z"/><glyph unicode="Ί" horiz-adv-x="1014" d="M510 0V1516H842V0H510ZM70 1519H400L156 1156H-61L70 1519Z"/><glyph unicode="Ό" horiz-adv-x="1862" d="M70 1519H400L156 1156H-61L70 1519ZM1059 -29Q921 -29 793 19T564 164T404 410T344 758Q344 957 404 1105T564 1350T792 1496T1059 1544Q1150 1544 1238 1523T1405 1458T1551 1351T1667 1199T1743 1001T1771 758Q1771 625 1744 515T1668 318T1552 165T1405 57T1238 -7T1059 -29ZM1059 240Q1146 240 1216 276T1336 379T1413 543T1440 758Q1440 877 1413 971T1337 1132T1217 1233T1059 1268Q970 1268 900 1233T780 1132T705 972T678 758Q678 639 704 543T780 380T899 276T1059 240Z"/><glyph unicode="Ύ" horiz-adv-x="1864" d="M987 0V643L464 1516H808L1155 926L1503 1516H1843L1318 643V0H987ZM70 1519H400L156 1156H-61L70 1519Z"/><glyph unicode="Ώ" horiz-adv-x="1843" d="M1047 1544Q1159 1544 1253 1516T1424 1438T1559 1320T1657 1172T1717 1003T1737 823Q1737 746 1720 670T1669 523T1583 388T1464 270H1722V0H1184V270Q1241 333 1282 394T1351 520T1390 659T1403 821Q1403 909 1380 990T1312 1133T1200 1231T1043 1268Q957 1268 891 1233T781 1137T713 996T690 825Q690 737 702 663T742 523T810 395T909 270V0H371V270H629Q561 322 511 387T426 525T375 673T358 823Q358 961 403 1090T535 1321T751 1483T1047 1544ZM70 1519H400L156 1156H-61L70 1519Z"/><glyph unicode="ΐ" horiz-adv-x="602" d="M-218 1501H54V1196H-218V1501ZM554 1501H826V1196H554V1501ZM218 1559H545L304 1196H87L218 1559ZM137 0V1092H465V0H137Z"/><glyph unicode="Α" horiz-adv-x="1460" d="M35 0L571 1522H889L1425 0H1087L975 338H459L342 0H35ZM541 580H897L723 1096H719L541 580Z"/><glyph unicode="Β" horiz-adv-x="1460" d="M156 0V1516H762Q831 1516 898 1510T1026 1487T1137 1444T1224 1375T1282 1276T1303 1141Q1303 1060 1280 1000T1216 898T1124 830T1014 793V788Q1083 776 1143 751T1247 682T1317 573T1343 418Q1343 304 1297 224T1174 95T998 23T793 0H156ZM483 254H752Q890 254 954 307T1018 457Q1018 557 948 606T737 655H483V254ZM483 891H729Q860 891 921 938T983 1073Q983 1162 925 1209T733 1257H483V891Z"/><glyph unicode="Γ" horiz-adv-x="1200" d="M489 0H158V1516H1157V1237H489V0Z"/><glyph unicode="Δ" horiz-adv-x="1460" d="M573 1522H889L1425 0H37L573 1522ZM1004 270L723 1098H719L432 270H1004Z"/><glyph unicode="Ε" horiz-adv-x="1296" d="M156 0V1516H1188V1237H489V911H995V647H489V270H1225V0H156Z"/><glyph unicode="Ζ" horiz-adv-x="1352" d="M61 0V229L852 1239H113V1516H1272V1278L498 270H1272V0H61Z"/><glyph unicode="Η" horiz-adv-x="1575" d="M156 0V1516H489V928H1085V1516H1419V0H1085V647H489V0H156Z"/><glyph unicode="Θ" horiz-adv-x="1597" d="M530 655V877H1069V655H530ZM799 -29Q661 -29 533 19T304 164T144 410T84 758Q84 957 144 1105T304 1350T532 1496T799 1544Q890 1544 978 1523T1145 1458T1291 1351T1407 1199T1483 1001T1511 758Q1511 625 1484 515T1408 318T1292 165T1145 57T978 -7T799 -29ZM799 240Q886 240 956 276T1076 379T1153 543T1180 758Q1180 877 1153 971T1077 1132T957 1233T799 1268Q710 1268 640 1233T520 1132T445 972T418 758Q418 639 444 543T520 380T639 276T799 240Z"/><glyph unicode="Ι" horiz-adv-x="676" d="M172 0V1516H504V0H172Z"/><glyph unicode="Κ" horiz-adv-x="1470" d="M156 0V1516H489V889L997 1516H1386L872 924L1440 0H1063L655 672L489 485V0H156Z"/><glyph unicode="Λ" horiz-adv-x="1430" d="M873 1522L1395 0H1057L711 1084H707L349 0H35L558 1522H873Z"/><glyph unicode="Μ" horiz-adv-x="1860" d="M156 0V1516H596L934 401H938L1253 1516H1704V0H1382V1034H1378Q1370 985 1361 942T1341 858T1318 778T1294 696L1067 0H772L547 696Q534 739 523 775T502 851T482 938T459 1051H455V0H156Z"/><glyph unicode="Ν" horiz-adv-x="1591" d="M156 0V1516H489L1124 549H1128V1516H1436V0H1128L467 975H463V0H156Z"/><glyph unicode="Ξ" horiz-adv-x="1333" d="M96 0V270H504V647H231V911H504V1237H109V1516H1225V1237H829V911H1102V647H829V270H1237V0H96Z"/><glyph unicode="Ο" horiz-adv-x="1597" d="M799 -29Q661 -29 533 19T304 164T144 410T84 758Q84 957 144 1105T304 1350T532 1496T799 1544Q890 1544 978 1523T1145 1458T1291 1351T1407 1199T1483 1001T1511 758Q1511 625 1484 515T1408 318T1292 165T1145 57T978 -7T799 -29ZM799 240Q886 240 956 276T1076 379T1153 543T1180 758Q1180 877 1153 971T1077 1132T957 1233T799 1268Q710 1268 640 1233T520 1132T445 972T418 758Q418 639 444 543T520 380T639 276T799 240Z"/><glyph unicode="Π" horiz-adv-x="1542" d="M158 1516H1384V0H1053V1237H489V0H158V1516Z"/><glyph unicode="Ρ" horiz-adv-x="1384" d="M156 0V1516H707Q788 1516 865 1508T1010 1479T1137 1423T1236 1334T1301 1205T1325 1030Q1325 928 1300 852T1231 722T1128 632T999 576T854 547T702 539H487V0H156ZM487 797H715Q793 797 847 812T934 855T983 926T999 1022Q999 1075 984 1116T936 1185T848 1228T715 1243H487V797Z"/><glyph unicode="Σ" horiz-adv-x="1255" d="M483 270H1178V0H88V231L496 786L109 1243V1516H1147V1237H500L870 801L483 270Z"/><glyph unicode="Τ" horiz-adv-x="1327" d="M496 0V1237H45V1516H1282V1237H829V0H496Z"/><glyph unicode="Υ" horiz-adv-x="1415" d="M541 0V643L18 1516H362L709 926L1057 1516H1397L872 643V0H541Z"/><glyph unicode="Φ" horiz-adv-x="1761" d="M1038 1378Q1173 1370 1288 1327T1489 1208T1622 1023T1671 778Q1671 641 1623 534T1490 351T1289 229T1038 172V0H723V172Q588 184 472 228T271 348T138 530T90 774Q90 912 139 1020T273 1205T474 1325T723 1378V1516H1038V1378ZM1038 432Q1096 436 1152 460T1252 527T1323 633T1350 774Q1350 855 1325 917T1256 1023T1156 1090T1038 1118V432ZM723 1120Q664 1117 609 1093T509 1025T439 919T412 778Q412 699 437 637T505 531T604 463T723 434V1120Z"/><glyph unicode="Χ" horiz-adv-x="1485" d="M66 0L551 801L109 1516H489L760 1061L1016 1516H1360L928 799L1419 0H1049L727 530L416 0H66Z"/><glyph unicode="Ψ" horiz-adv-x="1642" d="M1546 934Q1546 774 1500 664T1375 483T1195 380T979 340V0H662V340Q548 345 446 378T265 482T142 662T96 934V1516H414V924Q414 778 477 703T662 614V1516H979V614Q1040 620 1086 638T1164 693T1212 786T1229 924V1516H1546V934Z"/><glyph unicode="Ω" horiz-adv-x="1589" d="M795 1544Q907 1544 1001 1516T1172 1438T1307 1320T1405 1172T1465 1003T1485 823Q1485 746 1468 670T1417 523T1331 388T1212 270H1470V0H932V270Q989 333 1030 394T1099 520T1138 659T1151 821Q1151 909 1128 990T1060 1133T948 1231T791 1268Q705 1268 639 1233T529 1137T461 996T438 825Q438 737 450 663T490 523T558 395T657 270V0H119V270H377Q309 322 259 387T174 525T123 673T106 823Q106 961 151 1090T283 1321T499 1483T795 1544Z"/><glyph unicode="Ϊ" horiz-adv-x="676" d="M172 0V1516H504V0H172ZM-22 1894H257V1591H-22V1894ZM412 1894H691V1591H412V1894Z"/><glyph unicode="Ϋ" horiz-adv-x="1415" d="M541 0V643L18 1516H362L709 926L1057 1516H1397L872 643V0H541ZM350 1894H629V1591H350V1894ZM784 1894H1063V1591H784V1894Z"/><glyph unicode="ά" horiz-adv-x="1278" d="M653 1559H983L739 1196H522L653 1559ZM487 -16Q394 -16 317 17T185 119T99 291T68 537Q68 678 99 786T186 966T320 1076T492 1114Q602 1114 681 1075T823 956V1092H1151V0H823V156Q796 122 763 91T688 36T598 -2T487 -16ZM608 231Q639 231 669 240T726 264T778 298T823 338V743Q770 794 720 819T604 844Q501 844 448 766T395 539Q395 470 407 414T446 317T513 254T608 231Z"/><glyph unicode="έ" horiz-adv-x="1092" d="M565 1559H895L651 1196H434L565 1559ZM1032 119Q987 89 935 63T823 18T693 -12T541 -23Q409 -23 320 2T175 69T96 167T72 287Q72 345 89 393T139 477T216 539T315 578Q272 588 237 608T176 658T136 727T121 815Q121 885 150 940T233 1034T365 1093T541 1114Q622 1114 686 1107T804 1087T903 1055T993 1010L889 803Q811 846 733 863T582 881Q538 881 508 872T458 848T429 811T420 764Q420 711 458 688T561 664H778V471H555Q468 471 426 436T383 340Q383 278 426 248T575 217Q621 217 663 223T748 243T832 276T922 326L1032 119Z"/><glyph unicode="ή" horiz-adv-x="1270" d="M690 1559H1020L776 1196H559L690 1559ZM127 1094H457V920Q477 947 510 981T591 1044T700 1094T838 1114Q908 1114 966 1097T1066 1041T1131 941T1155 793V-412H827V686Q827 763 796 802T694 842Q626 842 567 811T457 735V0H127V1094Z"/><glyph unicode="ί" horiz-adv-x="602" d="M576 1559H906L662 1196H445L576 1559ZM137 0V1092H465V0H137Z"/><glyph unicode="ΰ" horiz-adv-x="1264" d="M109 1501H381V1196H109V1501ZM881 1501H1153V1196H881V1501ZM545 1559H872L631 1196H414L545 1559ZM633 242Q675 242 709 253T767 290T804 360T817 467V1092H1145V467Q1145 350 1118 259T1030 106T872 10T635 -23Q493 -23 395 10T236 107T148 261T121 467V1092H451V467Q451 405 463 362T498 293T555 254T633 242Z"/><glyph unicode="α" horiz-adv-x="1278" d="M487 -16Q394 -16 317 17T185 119T99 291T68 537Q68 678 99 786T186 966T320 1076T492 1114Q602 1114 681 1075T823 956V1092H1151V0H823V156Q796 122 763 91T688 36T598 -2T487 -16ZM608 231Q639 231 669 240T726 264T778 298T823 338V743Q770 794 720 819T604 844Q501 844 448 766T395 539Q395 470 407 414T446 317T513 254T608 231Z"/><glyph unicode="β" horiz-adv-x="1399" d="M907 -23Q829 -23 767 -10T656 23T575 69T520 117L664 291Q704 257 757 235T877 213Q917 213 949 227T1003 267T1037 329T1049 408Q1049 485 1015 534T920 611T779 651T606 666V887Q692 887 748 903T836 947T882 1015T895 1102Q895 1136 882 1167T843 1222T778 1260T688 1274Q573 1274 512 1212T451 1008V-412H127V999Q127 1135 166 1233T279 1394T453 1486T680 1516Q799 1516 895 1490T1059 1415T1163 1293T1200 1128Q1200 1063 1179 1011T1122 920T1039 854T940 811Q1015 802 1088 775T1220 701T1315 584T1352 420Q1352 312 1320 229T1230 90T1089 6T907 -23Z"/><glyph unicode="γ" horiz-adv-x="1106" d="M389 -8L-4 1092H336L565 365H569L799 1092H1108L717 -4V-412H389V-8Z"/><glyph unicode="δ" horiz-adv-x="1249" d="M1182 545Q1182 439 1159 356T1096 209T1002 102T886 30T757 -10T625 -23Q559 -23 492 -11T362 30T246 102T152 209T89 355T66 545Q66 648 89 735T163 888T291 998T477 1055Q482 1055 491 1054T506 1049Q498 1056 476 1076T423 1122T358 1177T293 1234T239 1281T207 1309V1516H1100V1276H662L963 1016Q1023 965 1064 914T1132 805T1170 684T1182 545ZM852 543Q852 612 843 661T814 747T768 809T707 860Q703 861 692 862T668 864T643 865T625 866Q518 866 457 787T395 543Q395 472 408 411T448 305T519 235T625 209Q683 209 726 233T797 300T838 406T852 543Z"/><glyph unicode="ε" horiz-adv-x="1092" d="M1032 119Q987 89 935 63T823 18T693 -12T541 -23Q409 -23 320 2T175 69T96 167T72 287Q72 345 89 393T139 477T216 539T315 578Q272 588 237 608T176 658T136 727T121 815Q121 885 150 940T233 1034T365 1093T541 1114Q622 1114 686 1107T804 1087T903 1055T993 1010L889 803Q811 846 733 863T582 881Q538 881 508 872T458 848T429 811T420 764Q420 711 458 688T561 664H778V471H555Q468 471 426 436T383 340Q383 278 426 248T575 217Q621 217 663 223T748 243T832 276T922 326L1032 119Z"/><glyph unicode="ζ" horiz-adv-x="1022" d="M995 1341Q834 1201 721 1090T536 883T432 695T399 502Q399 437 410 386T450 298T526 237T647 207Q718 200 781 184T893 135T969 45T997 -100Q997 -168 976 -226T910 -326T800 -392T643 -416Q549 -416 469 -395T334 -338L393 -193Q440 -225 501 -240T616 -256Q688 -256 730 -228T772 -137Q772 -106 762 -86T731 -52T675 -32T592 -20Q462 -12 366 27T207 131T112 280T80 467Q80 584 112 689T208 892T366 1085T584 1276H98V1516H995V1341Z"/><glyph unicode="η" horiz-adv-x="1270" d="M127 1094H457V920Q477 947 510 981T591 1044T700 1094T838 1114Q908 1114 966 1097T1066 1041T1131 941T1155 793V-412H827V686Q827 763 796 802T694 842Q626 842 567 811T457 735V0H127V1094Z"/><glyph unicode="θ" horiz-adv-x="1206" d="M80 756Q80 942 112 1085T210 1327T373 1477T602 1528Q734 1528 832 1477T996 1327T1093 1085T1126 758Q1126 573 1094 428T997 182T832 30T600 -23Q467 -23 370 28T208 179T112 423T80 756ZM600 1305Q536 1305 496 1274T432 1187T399 1050T389 872H817Q815 971 804 1051T768 1187T702 1274T600 1305ZM602 201Q667 201 709 233T775 324T808 467T817 657H389Q390 551 399 467T432 323T497 233T602 201Z"/><glyph unicode="ι" horiz-adv-x="602" d="M137 0V1092H465V0H137Z"/><glyph unicode="κ" horiz-adv-x="1196" d="M382 1092H710V684L1050 1092H1404L1048 686L1424 0H1084L843 444L710 295V0H382V1092Z"/><glyph unicode="λ" horiz-adv-x="1147" d="M293 1524Q375 1524 436 1504T544 1444T623 1349T684 1221L1149 0H811L569 709H565L326 0H4L422 1098L397 1165Q377 1218 345 1239T258 1260Q221 1260 189 1257T130 1249T83 1239T51 1231L-18 1485Q3 1491 31 1498T98 1510T184 1520T293 1524Z"/><glyph unicode="μ" horiz-adv-x="1276" d="M125 -410V1092H455V389Q455 317 485 279T584 240Q650 240 708 270T821 350V1092H1151V0H821V170Q800 144 775 119T717 70T647 28T563 -2Q532 -7 505 -6T455 6V-410H125Z"/><glyph unicode="ν" horiz-adv-x="1106" d="M387 -2L-4 1092H336L565 365H569L799 1092H1108L719 -2H387Z"/><glyph unicode="ξ" horiz-adv-x="1008" d="M750 1274Q649 1268 595 1217T541 1087Q541 1046 554 1010T601 947T691 903T831 887V666Q736 663 655 651T515 611T423 537T389 422Q389 377 403 340T448 276T528 233T649 211Q721 206 784 190T894 138T968 46T995 -100Q995 -168 974 -226T908 -326T798 -392T641 -416Q547 -416 468 -395T334 -338L391 -193Q415 -209 443 -221T500 -240T559 -252T614 -256Q686 -256 729 -228T772 -137Q772 -106 762 -85T729 -50T673 -28T590 -16Q489 -9 412 10T279 59T186 125T126 206T94 298T84 399Q84 499 119 572T213 696T345 774T496 811Q440 824 393 848T312 907T258 990T238 1098Q238 1158 260 1203T319 1278H98V1516H1055V1274H750Z"/><glyph unicode="ο" horiz-adv-x="1247" d="M625 -23Q559 -23 492 -11T362 30T246 102T152 209T89 355T66 545Q66 652 89 736T151 883T245 990T361 1061T491 1101T625 1114Q691 1114 758 1102T887 1062T1002 990T1096 883T1159 736T1182 545Q1182 439 1159 356T1096 209T1003 102T887 30T758 -10T625 -23ZM625 209Q683 209 726 233T797 301T838 406T852 543Q852 611 840 671T800 775T729 846T625 872Q566 872 523 848T451 781T409 677T395 543Q395 474 407 414T447 308T518 236T625 209Z"/><glyph unicode="π" horiz-adv-x="1405" d="M14 1094H1391V856H1214V0H887V856H518V0H190V856H14V1094Z"/><glyph unicode="ρ" horiz-adv-x="1278" d="M1210 545Q1210 404 1179 298T1092 122T958 17T786 -18Q676 -18 596 20T455 127V-412H127V545Q127 653 149 737T211 884T304 991T419 1062T547 1102T680 1114Q793 1114 890 1083T1058 983T1169 807T1210 545ZM883 543Q883 613 870 668T832 762T767 821T676 842Q617 842 576 818T507 751T468 646T455 510V330Q508 279 558 254T674 229Q777 229 830 311T883 543Z"/><glyph unicode="ς" horiz-adv-x="1137" d="M395 543Q395 476 403 419T439 317T516 246T651 211Q723 205 786 189T896 138T970 46T997 -100Q997 -168 976 -226T910 -326T800 -392T643 -416Q549 -416 469 -395T334 -338L393 -193Q440 -225 501 -240T616 -256Q688 -256 730 -228T772 -137Q772 -106 762 -85T731 -50T675 -28T592 -16Q489 -9 394 22T226 119T110 288T66 545Q66 654 90 738T155 886T250 993T366 1063T491 1102T616 1114Q727 1114 806 1087T941 1013T1032 907T1092 780L815 690Q800 741 780 776T735 833T680 864T612 874Q512 874 454 791T395 543Z"/><glyph unicode="σ" horiz-adv-x="1296" d="M625 -23Q559 -23 492 -11T362 30T246 102T152 209T89 355T66 545Q66 652 90 734T157 878T257 980T378 1046T511 1081T647 1092H1264V852H1081Q1128 801 1155 725T1182 545Q1182 439 1159 356T1096 209T1002 102T886 30T757 -10T625 -23ZM625 209Q683 209 726 233T797 300T838 406T852 543Q852 640 826 714T741 852H643Q527 852 461 778T395 543Q395 472 408 411T448 305T519 235T625 209Z"/><glyph unicode="τ" horiz-adv-x="1010" d="M342 0V852H16V1092H995V852H670V0H342Z"/><glyph unicode="υ" horiz-adv-x="1264" d="M633 242Q675 242 709 253T767 290T804 360T817 467V1092H1145V467Q1145 350 1118 259T1030 106T872 10T635 -23Q493 -23 395 10T236 107T148 261T121 467V1092H451V467Q451 405 463 362T498 293T555 254T633 242Z"/><glyph unicode="φ" horiz-adv-x="1532" d="M621 1516H911V1112Q977 1109 1044 1096T1172 1054T1287 983T1379 877T1441 733T1464 545Q1464 441 1442 360T1380 216T1288 111T1174 39T1045 -4T911 -20V-412H621V-20Q554 -18 487 -5T358 37T243 109T150 215T89 359T66 545Q66 650 88 732T150 877T243 982T358 1054T487 1095T621 1112V1516ZM911 211Q1018 223 1077 308T1137 543Q1137 613 1122 671T1079 771T1008 838T911 870V211ZM621 870Q511 858 453 774T395 543Q395 474 409 416T451 315T522 245T621 211V870Z"/><glyph unicode="χ" horiz-adv-x="1122" d="M23 0L397 563L49 1092H395L584 791L762 1092H1094L741 563L1110 0H766L557 330L354 0H23Z"/><glyph unicode="ψ" horiz-adv-x="1653" d="M664 -20Q512 -20 407 14T237 112T143 268T113 475V1092H438V471Q438 410 454 367T499 295T570 253T664 238V1516H989V238Q1040 239 1081 253T1152 295T1198 366T1214 471V1092H1540V475Q1540 360 1511 268T1416 112T1246 14T989 -20V-412H664V-20Z"/><glyph unicode="ω" horiz-adv-x="1659" d="M975 743V408Q975 323 1010 282T1104 240Q1182 240 1223 306T1264 522Q1264 610 1245 693T1190 849T1102 985T985 1092H1337Q1393 1045 1440 982T1520 844T1572 681T1591 498Q1591 384 1565 288T1486 123T1350 16T1155 -23Q1087 -23 1033 -5T938 42T870 107T829 178Q814 143 788 107T723 42T629 -5T502 -23Q390 -23 308 15T172 123T92 288T66 498Q66 593 85 680T138 843T219 982T322 1092H674Q609 1047 557 985T469 850T414 693T395 522Q395 373 436 307T555 240Q614 240 649 281T684 408V743H975Z"/><glyph unicode="ϊ" horiz-adv-x="602" d="M-59 1499H220V1196H-59V1499ZM375 1499H654V1196H375V1499ZM137 0V1092H465V0H137Z"/><glyph unicode="ϋ" horiz-adv-x="1264" d="M272 1499H551V1196H272V1499ZM706 1499H985V1196H706V1499ZM633 242Q675 242 709 253T767 290T804 360T817 467V1092H1145V467Q1145 350 1118 259T1030 106T872 10T635 -23Q493 -23 395 10T236 107T148 261T121 467V1092H451V467Q451 405 463 362T498 293T555 254T633 242Z"/><glyph unicode="ό" horiz-adv-x="1247" d="M643 1559H973L729 1196H512L643 1559ZM625 -23Q559 -23 492 -11T362 30T246 102T152 209T89 355T66 545Q66 652 89 736T151 883T245 990T361 1061T491 1101T625 1114Q691 1114 758 1102T887 1062T1002 990T1096 883T1159 736T1182 545Q1182 439 1159 356T1096 209T1003 102T887 30T758 -10T625 -23ZM625 209Q683 209 726 233T797 301T838 406T852 543Q852 611 840 671T800 775T729 846T625 872Q566 872 523 848T451 781T409 677T395 543Q395 474 407 414T447 308T518 236T625 209Z"/><glyph unicode="ύ" horiz-adv-x="1264" d="M649 1559H979L735 1196H518L649 1559ZM633 242Q675 242 709 253T767 290T804 360T817 467V1092H1145V467Q1145 350 1118 259T1030 106T872 10T635 -23Q493 -23 395 10T236 107T148 261T121 467V1092H451V467Q451 405 463 362T498 293T555 254T633 242Z"/><glyph unicode="ώ" horiz-adv-x="1618" d="M811 1559H1141L897 1196H680L811 1559ZM975 743V408Q975 323 1010 282T1104 240Q1182 240 1223 306T1264 522Q1264 610 1245 693T1190 849T1102 985T985 1092H1337Q1393 1045 1440 982T1520 844T1572 681T1591 498Q1591 384 1565 288T1486 123T1350 16T1155 -23Q1087 -23 1033 -5T938 42T870 107T829 178Q814 143 788 107T723 42T629 -5T502 -23Q390 -23 308 15T172 123T92 288T66 498Q66 593 85 680T138 843T219 982T322 1092H674Q609 1047 557 985T469 850T414 693T395 522Q395 373 436 307T555 240Q614 240 649 281T684 408V743H975Z"/><glyph unicode="Ё" horiz-adv-x="1296" d="M317 1894H596V1591H317V1894ZM751 1894H1030V1591H751V1894ZM156 0V1516H1188V1237H489V911H995V647H489V270H1225V0H156Z"/><glyph unicode="Ђ" horiz-adv-x="1761" d="M829 0H500V1239H45V1516H1284V1239H829V848Q866 900 911 936T1007 996T1110 1029T1214 1040Q1316 1040 1404 1005T1557 903T1659 744T1696 535Q1696 410 1657 311T1542 143T1351 37T1087 0V229Q1170 229 1224 248T1311 302T1355 388T1368 502Q1368 559 1350 608T1297 693T1214 749T1104 770Q1023 770 956 746T829 666V0Z"/><glyph unicode="Ѓ" horiz-adv-x="1198" d="M678 1958H1009L704 1603H487L678 1958ZM744 0H413V1516H1412V1237H744V0Z"/><glyph unicode="Є" horiz-adv-x="1464" d="M774 -29Q627 -29 501 19T283 166T137 412T84 760Q84 959 138 1106T286 1351T505 1496T772 1544Q903 1544 1001 1514T1169 1430T1287 1304T1364 1147L1055 1034Q1038 1082 1014 1125T956 1200T877 1251T770 1270Q698 1270 640 1244T537 1170T465 1053T426 899H879V641H424Q433 549 461 475T534 348T640 267T776 238Q842 238 890 257T975 312T1036 395T1079 500L1382 399Q1352 313 1304 236T1183 99T1010 6T774 -29Z"/><glyph unicode="Ѕ" horiz-adv-x="1417" d="M719 -29Q596 -29 496 -1T316 76T176 194T74 344L326 494Q357 432 400 384T496 303T609 253T735 236Q793 236 841 246T925 279T979 333T999 410Q999 453 979 484T920 541T824 587T692 629Q624 648 557 667T429 712T314 769T222 847T161 952T139 1092Q139 1198 178 1281T290 1423T463 1513T686 1544Q803 1544 896 1518T1064 1449T1193 1350T1288 1233L1057 1057Q1027 1105 986 1145T896 1213T793 1256T684 1272Q578 1272 522 1230T465 1120Q465 1075 485 1043T546 986T644 942T776 901Q842 883 909 863T1037 817T1150 757T1242 677T1303 571T1325 432Q1325 340 1290 257T1180 110T992 9T719 -29Z"/><glyph unicode="І" horiz-adv-x="676" d="M172 0V1516H504V0H172Z"/><glyph unicode="Ї" horiz-adv-x="676" d="M172 0V1516H504V0H172ZM-22 1894H257V1591H-22V1894ZM412 1894H691V1591H412V1894Z"/><glyph unicode="Ј" horiz-adv-x="1096" d="M463 -29Q384 -29 319 -16T200 20T102 73T20 139L207 348Q231 327 258 307T315 272T378 247T446 238Q491 238 526 252T585 298T622 378T635 498V1516H969V446Q969 340 941 253T852 103T695 6T463 -29Z"/><glyph unicode="Љ" horiz-adv-x="2419" d="M584 440Q584 332 553 250T455 112T285 28T39 0V260Q150 260 202 302T254 438V1516H1487V977H1700Q1782 977 1860 969T2007 939T2134 882T2233 792T2298 662T2322 487Q2322 387 2297 313T2229 184T2126 94T1997 38T1852 9T1700 0H1155V1239H584V440ZM1712 254Q1793 254 1848 270T1937 316T1986 387T2001 479Q2001 529 1986 571T1937 643T1848 690T1712 707H1487V254H1712Z"/><glyph unicode="Њ" horiz-adv-x="2359" d="M1085 707H489V0H156V1516H489V987H1085V1516H1419V987H1632Q1755 987 1867 965T2066 887T2204 734T2255 487Q2255 387 2230 313T2161 184T2058 94T1929 38T1784 9T1632 0H1085V707ZM1645 254Q1726 254 1781 270T1869 316T1918 387T1933 479Q1933 529 1918 571T1870 643T1781 690T1645 707H1419V254H1645Z"/><glyph unicode="Ћ" horiz-adv-x="1642" d="M500 1239H45V1516H1284V1239H829V840Q849 867 883 901T965 964T1074 1014T1212 1034Q1281 1034 1339 1016T1440 959T1506 859T1530 711V0H1204V608Q1204 686 1173 726T1069 766Q1001 766 942 733T829 655V0H500V1239Z"/><glyph unicode="Ќ" horiz-adv-x="1470" d="M803 1958H1134L829 1603H612L803 1958ZM156 0V1516H489V889L997 1516H1386L872 924L1440 0H1063L655 672L489 485V0H156Z"/><glyph unicode="Ў" horiz-adv-x="1499" d="M221 315Q239 301 262 287T311 262T368 244T434 236Q471 236 499 246T549 274T589 317T623 375Q624 378 627 384T634 396T639 409T643 418L57 1516H397L719 877L788 727L854 877L1145 1516H1483Q1475 1499 1448 1442T1380 1302T1289 1119T1188 914T1087 709T997 526T929 386T893 313Q848 222 802 158T703 52T586 -8T442 -27Q371 -27 315 -18T212 8T129 45T57 90L221 315V315ZM784 1581Q697 1581 631 1610T520 1691T451 1812T422 1960H598Q605 1904 624 1871T668 1819T724 1794T784 1788Q814 1788 844 1794T900 1818T944 1870T970 1960H1146Q1142 1881 1118 1812T1049 1692T938 1611T784 1581Z"/><glyph unicode="Џ" horiz-adv-x="1567" d="M156 1516H485V276H1079V1516H1411V0H948V-391H623V0H156V1516Z"/><glyph unicode="А" horiz-adv-x="1460" d="M35 0L571 1522H889L1425 0H1087L975 338H459L342 0H35ZM541 580H897L723 1096H719L541 580Z"/><glyph unicode="Б" horiz-adv-x="1380" d="M158 1516H1161V1239H485V944H698Q780 944 858 936T1005 907T1132 852T1232 765T1297 640T1321 471Q1321 375 1296 303T1228 178T1125 91T996 37T850 8T698 0H158V1516ZM711 254Q792 254 847 269T935 312T984 378T999 463Q999 510 984 549T936 615T847 658T711 674H485V254H711Z"/><glyph unicode="В" horiz-adv-x="1460" d="M156 0V1516H762Q831 1516 898 1510T1026 1487T1137 1444T1224 1375T1282 1276T1303 1141Q1303 1060 1280 1000T1216 898T1124 830T1014 793V788Q1083 776 1143 751T1247 682T1317 573T1343 418Q1343 304 1297 224T1174 95T998 23T793 0H156ZM483 254H752Q890 254 954 307T1018 457Q1018 557 948 606T737 655H483V254ZM483 891H729Q860 891 921 938T983 1073Q983 1162 925 1209T733 1257H483V891Z"/><glyph unicode="Г" horiz-adv-x="1202" d="M158 1516H1157V1239H487V0H158V1516Z"/><glyph unicode="Д" horiz-adv-x="1788" d="M1757 276V-391H1430V0H395V-391H68V276H141Q183 276 214 287T266 324T299 391T317 492L420 1516H1548V276H1757ZM1219 1212H709L635 444Q629 386 617 342T573 276H1219V1212Z"/><glyph unicode="Е" horiz-adv-x="1296" d="M156 0V1516H1188V1237H489V911H995V647H489V270H1225V0H156Z"/><glyph unicode="Ж" horiz-adv-x="2281" d="M979 483L811 672L403 0H31L596 924L84 1516H467L979 885V1516H1300V885L1815 1516H2198L1683 924L2251 0H1878L1468 672L1300 483V0H979V483Z"/><glyph unicode="З" horiz-adv-x="1278" d="M614 -29Q512 -29 426 -12T267 39T134 121T23 229L223 414Q257 373 300 340T391 282T492 245T598 231Q725 231 793 287T862 446Q862 508 839 551T771 621T661 660T512 672H426V911H514Q611 911 672 926T769 968T817 1029T831 1102Q831 1142 819 1173T781 1227T712 1262T608 1274Q520 1274 432 1241T262 1130L86 1337Q134 1385 197 1423T334 1487T486 1528T647 1542Q769 1542 864 1518T1024 1444T1123 1323T1157 1153Q1157 1088 1137 1031T1079 929T983 852T852 805Q939 793 1005 759T1117 675T1185 562T1208 426Q1208 317 1165 232T1043 89T855 1T614 -29Z"/><glyph unicode="И" horiz-adv-x="1591" d="M1128 0V975H1124L463 0H155V1516H463V549H467L1102 1516H1435V0H1128Z"/><glyph unicode="Й" horiz-adv-x="1591" d="M1128 0V975H1124L463 0H155V1516H463V549H467L1102 1516H1435V0H1128ZM793 1581Q706 1581 640 1610T529 1691T460 1812T431 1960H607Q614 1904 633 1871T677 1819T733 1794T793 1788Q823 1788 853 1794T909 1818T953 1870T979 1960H1155Q1151 1881 1127 1812T1058 1692T947 1611T793 1581Z"/><glyph unicode="К" horiz-adv-x="1470" d="M156 0V1516H489V889L997 1516H1386L872 924L1440 0H1063L655 672L489 485V0H156Z"/><glyph unicode="Л" horiz-adv-x="1642" d="M584 440Q584 332 553 250T455 112T285 28T39 0V260Q150 260 202 302T254 438V1516H1487V0H1155V1239H584V440Z"/><glyph unicode="М" horiz-adv-x="1860" d="M156 0V1516H596L934 401H938L1253 1516H1704V0H1382V1034H1378Q1370 985 1361 942T1341 858T1318 778T1294 696L1067 0H772L547 696Q534 739 523 775T502 851T482 938T459 1051H455V0H156Z"/><glyph unicode="Н" horiz-adv-x="1575" d="M156 0V1516H489V928H1085V1516H1419V0H1085V647H489V0H156Z"/><glyph unicode="О" horiz-adv-x="1597" d="M799 -29Q661 -29 533 19T304 164T144 410T84 758Q84 957 144 1105T304 1350T532 1496T799 1544Q890 1544 978 1523T1145 1458T1291 1351T1407 1199T1483 1001T1511 758Q1511 625 1484 515T1408 318T1292 165T1145 57T978 -7T799 -29ZM799 240Q886 240 956 276T1076 379T1153 543T1180 758Q1180 877 1153 971T1077 1132T957 1233T799 1268Q710 1268 640 1233T520 1132T445 972T418 758Q418 639 444 543T520 380T639 276T799 240Z"/><glyph unicode="П" horiz-adv-x="1567" d="M156 1516H1411V0H1079V1239H485V0H156V1516Z"/><glyph unicode="Р" horiz-adv-x="1384" d="M156 0V1516H707Q788 1516 865 1508T1010 1479T1137 1423T1236 1334T1301 1205T1325 1030Q1325 928 1300 852T1231 722T1128 632T999 576T854 547T702 539H487V0H156ZM487 797H715Q793 797 847 812T934 855T983 926T999 1022Q999 1075 984 1116T936 1185T848 1228T715 1243H487V797Z"/><glyph unicode="С" horiz-adv-x="1493" d="M772 -29Q624 -29 498 19T280 165T136 411T84 760Q84 957 137 1104T284 1349T502 1495T772 1544Q916 1544 1020 1508T1198 1408T1316 1257T1386 1067L1071 975Q1053 1040 1029 1094T969 1186T886 1246T770 1268Q684 1268 619 1233T509 1131T441 971T418 760Q418 640 441 544T510 380T621 276T774 240Q841 240 891 260T980 321T1046 421T1094 559L1407 489Q1379 375 1330 280T1205 116T1022 9T772 -29Z"/><glyph unicode="Т" horiz-adv-x="1327" d="M496 0V1237H45V1516H1282V1237H829V0H496Z"/><glyph unicode="У" horiz-adv-x="1499" d="M221 315Q239 301 262 287T311 262T368 244T434 236Q471 236 499 246T549 274T589 317T623 375Q624 378 627 384T634 396T639 409T643 418L57 1516H397L719 877L788 727L854 877L1145 1516H1483Q1475 1499 1448 1442T1380 1302T1289 1119T1188 914T1087 709T997 526T929 386T893 313Q848 222 802 158T703 52T586 -8T442 -27Q371 -27 315 -18T212 8T129 45T57 90L221 315V315Z"/><glyph unicode="Ф" horiz-adv-x="1663" d="M680 174Q607 176 534 191T395 235T271 309T171 418T104 565T80 754Q80 861 104 945T170 1092T269 1201T393 1275T533 1318T680 1335V1516H981V1335Q1055 1333 1128 1319T1267 1276T1391 1202T1491 1093T1557 945T1581 754Q1581 648 1557 565T1491 419T1392 310T1268 235T1128 191T981 174V0H680V174ZM1255 754Q1255 824 1239 884T1190 991T1104 1065T981 1098V403Q1049 408 1100 435T1186 507T1238 615T1255 754ZM408 754Q408 683 423 622T472 514T556 438T680 403V1098Q611 1093 560 1067T475 995T425 889T408 754Z"/><glyph unicode="Х" horiz-adv-x="1485" d="M66 0L551 801L109 1516H489L760 1061L1016 1516H1360L928 799L1419 0H1049L727 530L416 0H66Z"/><glyph unicode="Ц" horiz-adv-x="1651" d="M158 0V1516H487V276H1081V1516H1413V276H1622V-391H1294V0H158Z"/><glyph unicode="Ч" horiz-adv-x="1481" d="M997 614Q970 599 933 585T847 560T742 542T618 535Q507 535 417 558T263 635T164 780T129 1004V1516H459V1036Q459 971 471 926T511 851T587 809T705 795Q786 795 860 814T997 868V1516H1327V0H997V614Z"/><glyph unicode="Ш" horiz-adv-x="2152" d="M1997 0H156V1516H485V276H911V1516H1241V276H1665V1516H1997V0Z"/><glyph unicode="Щ" horiz-adv-x="2236" d="M158 0V1516H487V276H913V1516H1243V276H1667V1516H1999V276H2208V-391H1880V0H158Z"/><glyph unicode="Ъ" horiz-adv-x="1712" d="M444 1239H29V1516H772V977H985Q1067 977 1145 969T1292 939T1419 882T1519 792T1584 662T1608 487Q1608 387 1583 313T1515 184T1412 94T1283 38T1138 9T985 0H444V1239ZM997 254Q1078 254 1133 270T1222 316T1271 387T1286 479Q1286 529 1271 571T1222 643T1133 690T997 707H772V254H997Z"/><glyph unicode="Ы" horiz-adv-x="1946" d="M1456 0V1516H1788V0H1456ZM158 1516H485V977H698Q780 977 858 969T1005 939T1132 882T1232 792T1297 662T1321 487Q1321 387 1296 313T1228 184T1125 94T996 38T850 9T698 0H158V1516ZM711 254Q792 254 847 270T935 316T984 387T999 479Q999 529 984 571T936 643T847 690T711 707H485V254H711Z"/><glyph unicode="Ь" horiz-adv-x="1380" d="M158 1516H485V977H698Q780 977 858 969T1005 939T1132 882T1232 792T1297 662T1321 487Q1321 387 1296 313T1228 184T1125 94T996 38T850 9T698 0H158V1516ZM711 254Q792 254 847 270T935 316T984 387T999 479Q999 529 984 571T936 643T847 690T711 707H485V254H711Z"/><glyph unicode="Э" horiz-adv-x="1464" d="M688 -29Q554 -29 454 5T281 99T160 235T82 399L385 500Q403 443 428 395T489 312T573 258T688 238Q763 238 824 266T929 348T1002 475T1040 641H584V899H1036Q1026 984 999 1052T928 1169T825 1244T694 1270Q633 1270 587 1252T507 1201T449 1125T408 1034L100 1147Q129 1231 176 1303T294 1429T463 1513T692 1544Q833 1544 958 1497T1176 1352T1324 1107T1378 760Q1378 560 1326 412T1181 166T962 20T688 -29Z"/><glyph unicode="Ю" horiz-adv-x="2251" d="M1450 -29Q1323 -29 1204 12T988 136T826 346T741 643H485V0H156V1516H485V918H748Q772 1076 838 1193T1000 1389T1212 1505T1450 1544Q1541 1544 1629 1523T1796 1459T1943 1351T2060 1199T2137 1002T2165 758Q2165 624 2137 514T2060 317T1944 164T1797 56T1629 -8T1450 -29ZM1450 238Q1539 238 1610 275T1732 381T1808 545T1835 758Q1835 875 1809 970T1732 1131T1611 1234T1450 1270Q1360 1270 1289 1234T1168 1132T1092 970T1065 758Q1065 641 1091 545T1167 381T1288 276T1450 238Z"/><glyph unicode="Я" horiz-adv-x="1444" d="M959 0V571H766L451 0H99L436 614Q360 637 302 674T203 764T142 887T121 1047Q121 1173 161 1262T279 1407T466 1490T717 1516H1286V0H959ZM959 1243H731Q587 1243 517 1197T447 1038Q447 981 464 941T517 876T605 840T731 829H959V1243Z"/><glyph unicode="а" horiz-adv-x="1182" d="M365 -16Q302 -16 246 4T146 61T78 154T53 279Q53 373 94 446T219 573T434 660T745 709V735Q745 795 712 830T598 866Q493 866 404 828T240 731L100 920Q141 957 193 992T311 1054T460 1097T645 1114Q757 1114 837 1087T968 1005T1043 871T1067 686V266Q1067 167 1074 105T1098 0H770Q759 34 752 73T745 160Q670 75 578 30T365 -16ZM496 231Q582 231 642 257T745 326V528Q550 508 463 460T375 336Q375 283 408 257T496 231Z"/><glyph unicode="б" horiz-adv-x="1245" d="M623 -23Q503 -23 402 15T227 129T112 315T70 571Q70 594 70 623T72 681T75 737T78 784Q91 938 131 1068T245 1294T434 1445T709 1505Q733 1506 765 1506T837 1510T920 1519T1010 1536V1243Q984 1235 953 1230T887 1222T812 1217T733 1212Q639 1210 575 1179T471 1097T412 982T389 850Q418 892 458 920T541 967T627 993T705 1001Q798 1001 883 968T1034 871T1137 711T1176 489Q1176 369 1135 274T1019 113T844 12T623 -23ZM623 207Q672 207 714 225T786 278T834 367T852 492Q852 563 835 617T788 708T715 763T623 782Q574 782 532 764T460 709T412 618T395 494Q395 423 412 370T459 280T531 226T623 207Z"/><glyph unicode="в" horiz-adv-x="1190" d="M127 1094H627Q676 1094 728 1091T829 1077T921 1049T998 1001T1050 929T1069 829Q1069 772 1050 728T999 651T923 599T831 571V569Q888 560 937 543T1022 496T1079 419T1100 303Q1100 216 1059 158T952 65T808 15T651 0H127V1094ZM606 215Q702 215 745 249T788 340Q788 461 600 461H430V215H606ZM596 645Q687 645 727 678T768 764Q768 813 728 843T600 874H430V645H596Z"/><glyph unicode="г" horiz-adv-x="1024" d="M965 856H453V0H127V1094H965V856Z"/><glyph unicode="д" horiz-adv-x="1358" d="M23 -412V238Q74 239 105 247T155 272T180 314T190 375L252 1094H1192V238H1323V-412H1018V0H330V-412H23ZM866 856H555L514 352Q511 298 493 267T446 219H866V856Z"/><glyph unicode="е" horiz-adv-x="1182" d="M623 -23Q516 -23 416 6T238 103T113 278T66 545Q66 651 91 734T158 881T255 988T372 1061T495 1101T614 1114Q670 1114 729 1104T844 1067T949 996T1036 884T1094 723T1116 506V457H393Q399 389 420 342T475 264T552 221T647 207Q695 207 741 218T829 247T907 288T971 338L1098 141Q1002 60 884 19T623 -23ZM821 651Q809 767 757 823T612 879Q574 879 539 866T476 825T427 754T397 651H821Z"/><glyph unicode="ж" horiz-adv-x="1817" d="M1065 676L1415 1094H1761L1405 682L1782 0H1448L1204 444Q1169 405 1141 373Q1116 345 1094 321T1065 289V0H750V289Q743 296 721 320T675 373Q647 405 612 444L369 0H33L410 682L53 1094H401L750 676V1094H1065V676Z"/><glyph unicode="з" horiz-adv-x="1055" d="M518 -23Q426 -23 350 -6T213 42T106 112T27 199L211 354Q264 286 338 249T512 211Q606 211 659 245T713 340Q713 371 698 394T650 432T563 455T434 463H377V643H442Q570 643 629 671T688 762Q688 812 644 846T508 881Q463 881 426 874T358 852T300 818T248 774L92 934Q123 967 165 999T262 1056T382 1098T526 1114Q638 1114 722 1091T861 1027T945 929T973 807Q973 704 919 640T760 559Q889 531 945 464T1001 303Q1001 235 971 176T881 72T730 3T518 -23Z"/><glyph unicode="и" horiz-adv-x="1358" d="M1231 0H922V649Q912 636 889 604T833 528T763 432T686 325T608 219T537 122T482 46T449 0H127V1094H434V440L893 1094H1231V0Z"/><glyph unicode="й" horiz-adv-x="1358" d="M1231 0H922V649Q912 636 889 604T833 528T763 432T686 325T608 219T537 122T482 46T449 0H127V1094H434V440L893 1094H1231V0ZM674 1186Q587 1186 521 1215T410 1296T341 1417T312 1565H488Q495 1509 514 1476T558 1424T614 1399T674 1393Q704 1393 734 1399T790 1423T834 1475T860 1565H1036Q1032 1486 1008 1417T939 1297T828 1216T674 1186Z"/><glyph unicode="к" horiz-adv-x="1198" d="M382 1092H710V684L1050 1092H1404L1048 686L1424 0H1084L843 444L710 295V0H382V1092Z"/><glyph unicode="л" horiz-adv-x="1325" d="M872 856H512V362Q512 276 495 216T445 117T368 54T268 20T150 7T18 4V225Q70 225 102 230T153 249T179 288T186 352V1094H1198V0H872V856Z"/><glyph unicode="м" horiz-adv-x="1536" d="M127 0V1094H528L768 334H772L1006 1094H1409V0H1126V725H1124Q1119 704 1112 677T1095 620T1077 562T1061 510L885 0H633L457 512Q451 536 442 565T423 623T405 679T393 725H391V0H127Z"/><glyph unicode="н" horiz-adv-x="1288" d="M127 1094H453V678H836V1094H1161V0H836V426H453V0H127V1094Z"/><glyph unicode="о" horiz-adv-x="1247" d="M625 -23Q559 -23 492 -11T362 30T246 102T152 209T89 355T66 545Q66 652 89 736T151 883T245 990T361 1061T491 1101T625 1114Q691 1114 758 1102T887 1062T1002 990T1096 883T1159 736T1182 545Q1182 439 1159 356T1096 209T1003 102T887 30T758 -10T625 -23ZM625 209Q683 209 726 233T797 301T838 406T852 543Q852 611 840 671T800 775T729 846T625 872Q566 872 523 848T451 781T409 677T395 543Q395 474 407 414T447 308T518 236T625 209Z"/><glyph unicode="п" horiz-adv-x="1280" d="M127 1094H1153V0H827V856H453V0H127V1094Z"/><glyph unicode="р" horiz-adv-x="1278" d="M125 -410V1092H455V926Q482 963 515 997T589 1057T680 1098T791 1114Q884 1114 961 1079T1093 972T1179 795T1210 547Q1210 406 1179 300T1092 124T958 19T786 -16Q675 -16 596 22T455 129V-410H125ZM674 231Q777 231 829 313T881 545Q881 613 869 668T831 761T765 821T670 842Q638 842 609 833T552 810T500 776T455 735V332Q508 281 558 256T674 231Z"/><glyph unicode="с" horiz-adv-x="1137" d="M602 -23Q538 -23 474 -11T350 30T238 102T148 209T88 355T66 545Q66 654 90 738T155 886T250 993T366 1063T491 1102T616 1114Q727 1114 806 1087T941 1013T1032 907T1092 780L815 688Q799 740 779 775T734 832T679 863T612 872Q512 872 454 790T395 543Q395 470 407 409T445 303T511 234T608 209Q641 209 672 218T731 250T782 310T823 403L1096 309Q1070 245 1030 186T931 80T791 5T602 -23Z"/><glyph unicode="т" horiz-adv-x="1126" d="M399 856H41V1094H1085V856H727V0H399V856Z"/><glyph unicode="у" horiz-adv-x="1147" d="M297 -418Q236 -418 188 -414T102 -405T36 -392T-14 -379L55 -125Q67 -128 87 -133T133 -142T192 -150T262 -154Q316 -154 348 -132T401 -59L422 -6L4 1092H344L584 383H588L829 1092H1149L690 -115Q662 -186 628 -242T548 -337T441 -397T297 -418Z"/><glyph unicode="ф" horiz-adv-x="1933" d="M803 168Q779 132 748 99T676 39T586 -2T475 -18Q383 -18 308 15T180 118T98 291T68 537Q68 678 97 786T180 966T309 1076T477 1114Q590 1114 668 1073T803 950V1516H1130V920Q1154 955 1185 989T1257 1051T1348 1095T1460 1112Q1551 1112 1626 1077T1755 970T1838 793T1868 545Q1868 404 1838 298T1754 122T1624 17T1456 -18Q1344 -18 1267 22T1130 131V-412H803V168ZM602 227Q633 227 663 237T720 264T767 300T803 336V743Q777 769 754 788T707 820T656 839T598 846Q495 846 444 767T393 539Q393 470 405 413T442 314T507 250T602 227ZM1337 225Q1439 225 1489 309T1540 543Q1540 612 1528 667T1491 762T1427 823T1333 844Q1301 844 1271 834T1214 807T1167 771T1130 735V328Q1181 275 1227 250T1337 225Z"/><glyph unicode="х" horiz-adv-x="1122" d="M23 0L397 563L49 1092H395L584 791L762 1092H1094L741 563L1110 0H766L557 330L354 0H23Z"/><glyph unicode="ц" horiz-adv-x="1319" d="M127 0V1094H453V238H827V1094H1153V238H1284V-412H977V0H127Z"/><glyph unicode="ч" horiz-adv-x="1262" d="M1135 0H809V483Q788 455 755 421T673 357T564 307T426 287Q357 287 299 305T199 362T133 462T109 610V1094H434V715Q434 637 465 597T569 557Q637 557 696 589T809 666V1094H1135V0Z"/><glyph unicode="ш" horiz-adv-x="1925" d="M1798 0H127V1094H453V238H799V1094H1126V238H1473V1094H1798V0Z"/><glyph unicode="щ" horiz-adv-x="1964" d="M127 0V1094H453V238H799V1094H1126V238H1473V1094H1798V238H1929V-412H1622V0H127Z"/><glyph unicode="ъ" horiz-adv-x="1372" d="M641 772H780Q848 772 913 767T1038 746T1148 704T1235 634T1292 530T1313 385Q1313 305 1291 245T1231 142T1142 72T1032 28T910 6T784 0H317V856H33V1094H641V772ZM641 549V221H791Q852 221 893 233T960 268T995 320T1006 385Q1006 423 995 453T959 505T893 537T791 549H641Z"/><glyph unicode="ы" horiz-adv-x="1692" d="M1239 0V1092H1567V0H1239ZM127 1094H451V772H592Q659 772 725 767T850 746T959 704T1046 634T1103 530T1124 385Q1124 305 1102 245T1042 142T953 72T843 28T720 6T594 0H127V1094ZM451 221H600Q661 221 702 233T769 268T804 320T815 385Q815 423 804 453T768 505T702 537T600 549H451V221Z"/><glyph unicode="ь" horiz-adv-x="1182" d="M127 1094H451V772H592Q659 772 725 767T850 746T959 704T1046 634T1103 530T1124 385Q1124 305 1102 245T1042 142T953 72T843 28T720 6T594 0H127V1094ZM451 221H600Q661 221 702 233T769 268T804 320T815 385Q815 423 804 453T768 505T702 537T600 549H451V221Z"/><glyph unicode="э" horiz-adv-x="1106" d="M504 -23Q410 -23 337 -2T207 57T109 144T39 250L293 365Q331 277 383 240T498 203Q548 203 586 222T652 274T695 354T715 453H416V643H711Q697 759 639 821T488 883Q418 883 374 847T299 727L37 834Q61 894 98 945T189 1034T317 1093T490 1114Q549 1114 613 1103T738 1065T854 995T950 888T1015 740T1040 545Q1040 388 993 280T870 105T698 7T504 -23Z"/><glyph unicode="ю" horiz-adv-x="1778" d="M1155 -23Q1067 -23 978 0T814 76T683 213T608 418H453V0H127V1094H453V670H608Q620 752 649 816T719 930T811 1014T918 1071T1035 1104T1155 1114Q1219 1114 1285 1102T1414 1062T1530 991T1625 884T1688 736T1712 545Q1712 439 1689 356T1625 209T1531 102T1414 30T1286 -10T1155 -23ZM1155 207Q1212 207 1255 231T1327 299T1371 406T1386 543Q1386 615 1372 676T1330 782T1258 852T1155 877Q1096 877 1053 853T981 785T938 680T924 543Q924 471 937 410T979 303T1050 233T1155 207Z"/><glyph unicode="я" horiz-adv-x="1202" d="M1077 0H754V338H629Q623 338 611 338T594 340L403 0H70L297 383Q246 401 206 429T138 497T95 592T80 717Q80 796 102 854T162 955T251 1024T361 1066T483 1088T608 1094H1077V0ZM754 563V872H608Q546 872 505 860T438 827T403 778T393 717Q393 681 403 653T439 604T505 574T608 563H754Z"/><glyph unicode="ё" horiz-adv-x="1182" d="M231 1499H510V1196H231V1499ZM665 1499H944V1196H665V1499ZM623 -23Q516 -23 416 6T238 103T113 278T66 545Q66 651 91 734T158 881T255 988T372 1061T495 1101T614 1114Q670 1114 729 1104T844 1067T949 996T1036 884T1094 723T1116 506V457H393Q399 389 420 342T475 264T552 221T647 207Q695 207 741 218T829 247T907 288T971 338L1098 141Q1002 60 884 19T623 -23ZM821 651Q809 767 757 823T612 879Q574 879 539 866T476 825T427 754T397 651H821Z"/><glyph unicode="ђ" horiz-adv-x="1266" d="M-2 1372H125V1516H453V1372H631V1167H453V920Q473 947 506 981T587 1044T696 1094T834 1114Q904 1114 962 1096T1062 1039T1127 939T1151 791V-111Q1151 -168 1140 -222T1092 -320T986 -389T803 -416Q777 -416 745 -415T682 -411T628 -406T598 -401V-182Q604 -184 615 -186T639 -191T667 -194T692 -195Q755 -195 788 -164T825 -57V688Q825 766 794 806T690 846Q622 846 563 813T453 735V0H125V1167H-2V1372Z"/><glyph unicode="ѓ" horiz-adv-x="1024" d="M557 1563H888L583 1208H366L557 1563ZM965 856H453V0H127V1094H965V856Z"/><glyph unicode="є" horiz-adv-x="1106" d="M602 -23Q504 -23 409 7T237 104T113 280T66 545Q66 655 90 740T156 888T252 994T368 1064T493 1102T616 1114Q715 1114 789 1093T917 1035T1008 946T1069 834L807 727Q776 810 732 846T618 883Q526 883 468 821T395 643H690V453H391Q395 400 411 354T454 275T519 222T608 203Q671 203 723 240T813 365L1067 250Q1038 194 997 144T900 57T770 -1T602 -23Z"/><glyph unicode="ѕ" horiz-adv-x="1094" d="M555 -23Q465 -23 390 -10T252 25T138 79T45 145L176 330Q213 298 258 272T352 227T453 198T555 188Q593 188 625 194T680 214T716 248T729 295Q729 323 718 343T682 379T618 405T522 426Q470 435 419 446T319 474T230 515T159 574T112 656T94 768Q94 850 126 914T214 1023T348 1090T518 1114Q602 1114 670 1104T796 1074T903 1026T997 961L868 774Q785 831 705 862T547 893Q476 893 438 868T399 797Q399 772 410 755T446 724T506 700T594 680Q648 671 701 660T804 633T895 593T969 535T1018 455T1036 346Q1036 247 997 177T890 63T736 -2T555 -23Z"/><glyph unicode="і" horiz-adv-x="602" d="M137 0V1092H465V0H137ZM135 1241V1505H467V1241H135Z"/><glyph unicode="ї" horiz-adv-x="602" d="M-59 1499H220V1196H-59V1499ZM375 1499H654V1196H375V1499ZM137 0V1092H465V0H137Z"/><glyph unicode="ј" horiz-adv-x="602" d="M111 -416Q87 -416 55 -415T-7 -411T-60 -406T-90 -401V-178Q-83 -180 -72 -182T-48 -186T-22 -189T4 -190Q72 -190 104 -156T137 -41V1092H465V-104Q465 -142 461 -180T443 -252T406 -317T342 -369T246 -403T111 -416ZM135 1241V1505H467V1241H135Z"/><glyph unicode="љ" horiz-adv-x="1974" d="M872 856H512V362Q512 276 495 216T445 117T368 54T268 20T150 7T18 4V225Q70 225 102 230T153 249T179 288T186 352V1094H1198V772H1339Q1407 772 1472 767T1597 746T1707 704T1794 634T1851 530T1872 385Q1872 305 1850 245T1790 142T1701 72T1590 28T1467 6T1341 0H872V856ZM1198 221H1348Q1409 221 1450 233T1517 268T1552 320T1563 385Q1563 423 1552 453T1516 505T1450 537T1348 549H1198V221Z"/><glyph unicode="њ" horiz-adv-x="1929" d="M836 426H453V0H127V1094H453V678H836V1094H1161V772H1303Q1370 772 1436 767T1561 746T1670 704T1757 634T1814 530T1835 385Q1835 305 1813 245T1753 142T1664 72T1553 28T1431 6T1305 0H836V426ZM1161 221H1311Q1372 221 1413 233T1480 268T1515 320T1526 385Q1526 423 1515 453T1479 505T1413 537T1311 549H1161V221Z"/><glyph unicode="ћ" horiz-adv-x="1266" d="M-4 1382H127V1516H455V1382H631V1174H455V920Q479 952 514 986T596 1049T701 1096T831 1114Q901 1114 960 1096T1061 1040T1127 942T1151 797V0H821V692Q821 767 792 805T694 844Q626 844 568 813T455 733V0H127V1174H-4V1382Z"/><glyph unicode="ќ" horiz-adv-x="1198" d="M666 1563H997L692 1208H475L666 1563ZM382 1092H710V684L1050 1092H1404L1048 686L1424 0H1084L843 444L710 295V0H382V1092Z"/><glyph unicode="ў" horiz-adv-x="1147" d="M297 -418Q236 -418 188 -414T102 -405T36 -392T-14 -379L55 -125Q67 -128 87 -133T133 -142T192 -150T262 -154Q316 -154 348 -132T401 -59L422 -6L4 1092H344L584 383H588L829 1092H1149L690 -115Q662 -186 628 -242T548 -337T441 -397T297 -418ZM582 1186Q495 1186 429 1215T318 1296T249 1417T220 1565H396Q403 1509 422 1476T466 1424T522 1399T582 1393Q612 1393 642 1399T698 1423T742 1475T768 1565H944Q940 1486 916 1417T847 1297T736 1216T582 1186Z"/><glyph unicode="џ" horiz-adv-x="1280" d="M127 1094H453V238H827V1094H1153V0H805V-412H477V0H127V1094Z"/><glyph unicode="Ґ" horiz-adv-x="1202" d="M831 1772H1157V1239H487V0H158V1516H831V1772Z"/><glyph unicode="ґ" horiz-adv-x="1024" d="M965 1423V856H453V0H127V1094H637V1423H965Z"/><glyph unicode="Ẁ" horiz-adv-x="0"/><glyph unicode="ẁ" horiz-adv-x="0"/><glyph unicode="Ẃ" horiz-adv-x="0"/><glyph unicode="ẃ" horiz-adv-x="0"/><glyph unicode="Ẅ" horiz-adv-x="0"/><glyph unicode="ẅ" horiz-adv-x="0"/><glyph unicode="Ỳ" horiz-adv-x="0"/><glyph unicode="ỳ" horiz-adv-x="0"/><glyph unicode=" " horiz-adv-x="0"/><glyph unicode=" " horiz-adv-x="0"/><glyph unicode=" " horiz-adv-x="0"/><glyph unicode=" " horiz-adv-x="0"/><glyph unicode=" " horiz-adv-x="0"/><glyph unicode="‒" horiz-adv-x="1331" d="M84 776H1247V500H84V776Z"/><glyph unicode="–" horiz-adv-x="1389" d="M113 500V776H1276V500H113Z"/><glyph unicode="—" horiz-adv-x="1931" d="M113 498V776H1819V498H113Z"/><glyph unicode="―" horiz-adv-x="2048" d="M0 776H2048V498H0V776Z"/><glyph unicode="‘" horiz-adv-x="578" d="M119 952V1243L276 1516H430L342 1270H457V952H119Z"/><glyph unicode="’" horiz-adv-x="578" d="M147 952L233 1198H119V1516H457V1225L301 952H147Z"/><glyph unicode="‚" horiz-adv-x="578" d="M147 -246L233 0H119V317H457V29L301 -246H147Z"/><glyph unicode="“" horiz-adv-x="1065" d="M119 952V1243L276 1516H430L342 1270H457V952H119ZM608 952V1243L766 1516H918L831 1270H946V952H608Z"/><glyph unicode="”" horiz-adv-x="1065" d="M147 952L233 1198H119V1516H457V1225L301 952H147ZM637 952L723 1198H608V1516H946V1225L788 952H637Z"/><glyph unicode="„" horiz-adv-x="1065" d="M147 -246L233 0H119V317H457V29L301 -246H147ZM637 -246L723 0H608V317H946V29L788 -246H637Z"/><glyph unicode="†" horiz-adv-x="1251" d="M453 -410L504 754L61 721V1022L504 985L453 1516H797L745 985L1188 1022V721L745 754L797 -410H453Z"/><glyph unicode="‡" horiz-adv-x="1251" d="M453 -410L504 10L102 -27V260L504 225L461 553L504 879L102 846V1130L504 1096L453 1516H797L745 1096L1147 1130V846L745 879L788 553L745 225L1147 260V-27L745 10L797 -410H453Z"/><glyph unicode="•" horiz-adv-x="948" d="M473 438Q413 438 362 459T274 517T216 606T195 717Q195 778 216 829T274 917T362 976T473 997Q534 997 585 976T674 918T733 829T754 717Q754 657 733 606T675 518T586 459T473 438Z"/><glyph unicode="…" horiz-adv-x="1731" d="M1266 0V317H1618V0H1266ZM113 0V317H465V0H113ZM688 0V317H1040V0H688Z"/><glyph unicode="‰" horiz-adv-x="3185" d="M1772 -20Q1676 -20 1600 15T1471 116T1390 272T1362 475Q1362 588 1390 680T1472 837T1602 937T1774 973Q1868 973 1943 938T2071 837T2152 681T2181 477Q2181 366 2153 274T2073 117T1944 16T1772 -20ZM500 549Q403 549 327 584T197 684T116 840T88 1044Q88 1157 116 1249T198 1405T328 1505T500 1540Q594 1540 669 1505T798 1406T879 1250T907 1047Q907 935 879 843T799 686T671 585T500 549ZM2687 -20Q2591 -20 2515 15T2386 116T2305 272T2277 475Q2277 588 2305 680T2387 837T2516 937T2687 973Q2782 973 2858 938T2986 837T3067 681T3095 477Q3095 366 3067 274T2987 117T2858 16T2687 -20ZM541 0L1446 1516H1729L823 0H541ZM500 756Q537 756 563 776T605 833T629 924T637 1044Q637 1181 605 1255T500 1329Q423 1329 391 1254T358 1047Q358 910 391 833T500 756ZM1774 188Q1811 188 1837 208T1879 265T1903 356T1911 477Q1911 613 1879 686T1772 760Q1734 760 1708 741T1664 685T1640 596T1632 477Q1632 340 1665 264T1774 188ZM2687 188Q2724 188 2750 208T2793 265T2816 356T2824 477Q2824 612 2792 686T2687 760Q2612 760 2579 685T2546 477Q2546 340 2579 264T2687 188Z"/><glyph unicode="′" horiz-adv-x="0"/><glyph unicode="″" horiz-adv-x="0"/><glyph unicode="‹" horiz-adv-x="764" d="M389 0L49 547L389 1092H702L377 547L702 0H389Z"/><glyph unicode="›" horiz-adv-x="764" d="M61 0L387 547L61 1092H375L715 547L375 0H61Z"/><glyph unicode="⁄" horiz-adv-x="1114" d="M-35 0L866 1516H1149L250 0H-35Z"/><glyph unicode="⁰" horiz-adv-x="1090" d="M545 520Q440 520 360 556T225 658T142 817T113 1026Q113 1140 141 1234T224 1394T359 1497T545 1534Q649 1534 729 1498T865 1395T948 1234T977 1026Q977 911 949 818T865 658T730 556T545 520ZM545 725Q636 725 673 803T711 1026Q711 1167 673 1245T545 1323Q498 1323 466 1303T414 1245T386 1152T377 1026Q377 882 416 804T545 725Z"/><glyph unicode="⁴" horiz-adv-x="1016" d="M532 739H92V905L524 1516H793V942H946V739H793V539H532V739ZM547 926V1237L336 926H547Z"/><glyph unicode="⁵" horiz-adv-x="961" d="M457 520Q388 520 334 529T234 555T150 596T78 651L193 821Q217 799 247 780T311 748T381 727T451 719Q532 719 573 759T614 872Q614 945 575 981T467 1018Q421 1018 383 997T307 930L131 985L172 1516H801L786 1315H367L352 1135Q380 1161 427 1176T545 1192Q617 1192 677 1173T779 1114T846 1013T870 868Q870 779 840 714T754 605T623 541T457 520Z"/><glyph unicode="⁶" horiz-adv-x="1018" d="M537 520Q328 520 221 643T113 1012Q113 1160 149 1260T248 1421T392 1508T567 1534Q681 1534 761 1507T887 1446L780 1264Q689 1325 567 1325Q518 1325 483 1313T424 1273T389 1200T373 1087Q398 1106 423 1122T476 1148T539 1165T618 1171Q684 1171 741 1154T841 1099T909 1002T934 860Q934 783 909 721T833 614T709 545T537 520ZM539 713Q614 713 650 750T686 846Q686 915 652 950T543 985Q483 985 445 967T373 918Q379 820 420 767T539 713Z"/><glyph unicode="⁷" horiz-adv-x="866" d="M518 1303H74V1516H795V1321L434 539H162L518 1303Z"/><glyph unicode="⁸" horiz-adv-x="997" d="M498 520Q295 520 192 592T88 793Q88 838 104 876T149 947T215 1004T295 1049Q257 1069 227 1091T175 1140T143 1203T131 1284Q131 1331 153 1376T220 1456T335 1512T498 1534Q595 1534 664 1513T777 1456T843 1376T864 1284Q864 1207 820 1148T700 1055Q745 1034 782 1011T848 957T891 887T907 793Q907 665 803 593T498 520ZM494 688Q575 688 614 718T653 803Q653 857 609 896T471 971Q406 940 371 897T336 803Q336 750 374 719T494 688ZM522 1122Q573 1150 599 1180T625 1255Q625 1274 618 1292T597 1325T559 1349T504 1358Q439 1358 409 1329T379 1260Q379 1234 387 1215T412 1180T456 1151T522 1122Z"/><glyph unicode="⁹" horiz-adv-x="1018" d="M449 520Q336 520 256 547T131 608L238 784Q326 723 451 723Q500 723 535 735T594 775T629 848T645 961Q620 941 595 926T541 900T477 883T397 877Q332 877 275 895T176 952T109 1051T84 1194Q84 1270 109 1332T185 1440T308 1509T479 1534Q690 1534 797 1410T905 1042Q905 894 865 794T761 633T615 546T449 520ZM475 1063Q535 1063 573 1080T645 1130Q639 1226 597 1280T477 1335Q403 1335 368 1297T332 1200Q332 1132 366 1098T475 1063Z"/><glyph unicode="₀" horiz-adv-x="1090" d="M545 -425Q440 -425 360 -389T225 -287T142 -128T113 81Q113 195 141 289T224 449T359 552T545 589Q649 589 729 553T865 450T948 289T977 81Q977 -34 949 -127T865 -287T730 -389T545 -425ZM545 -220Q636 -220 673 -142T711 81Q711 222 673 300T545 378Q498 378 466 358T414 300T386 207T377 81Q377 -63 416 -141T545 -220Z"/><glyph unicode="₁" horiz-adv-x="774" d="M120 -202H296V364Q259 347 213 335T124 323V509Q183 511 227 525T302 571H560V-202H714V-408H120V-202Z"/><glyph unicode="₂" horiz-adv-x="979" d="M115 -351Q115 -298 123 -245T160 -136T246 -25T401 91Q457 125 494 148T554 192T585 233T594 286Q594 328 569 350T498 372Q451 372 395 338T291 224L113 353Q187 471 280 531T504 591Q591 591 655 570T761 510T825 416T846 292Q846 250 836 209T799 127T723 46T600 -36Q553 -62 521 -84T469 -125T437 -161T420 -193H852V-404H115V-351Z"/><glyph unicode="₃" horiz-adv-x="979" d="M481 -421Q356 -421 253 -370T84 -220L244 -81Q271 -118 298 -142T354 -181T408 -202T459 -208Q499 -208 527 -200T572 -178T596 -144T604 -101Q604 -38 559 -11T412 16H334V198H416Q465 198 498 204T550 223T578 254T586 294Q586 331 559 352T481 374Q435 374 378 355T258 276L119 437Q202 518 301 554T502 591Q670 591 757 521T844 325Q844 292 836 261T811 202T765 154T698 118Q746 103 779 81T834 29T864 -34T874 -107Q874 -184 846 -242T767 -341T643 -401T481 -421Z"/><glyph unicode="₄" horiz-adv-x="1016" d="M532 -206H92V-40L524 571H793V-3H946V-206H793V-406H532V-206ZM547 -19V292L336 -19H547Z"/><glyph unicode="₅" horiz-adv-x="961" d="M457 -425Q388 -425 334 -416T234 -390T150 -349T78 -294L193 -124Q217 -146 247 -165T311 -197T381 -218T451 -226Q532 -226 573 -186T614 -73Q614 0 575 36T467 73Q421 73 383 52T307 -15L131 40L172 571H801L786 370H367L352 190Q380 216 427 231T545 247Q617 247 677 228T779 169T846 68T870 -77Q870 -166 840 -231T754 -340T623 -404T457 -425Z"/><glyph unicode="₆" horiz-adv-x="1018" d="M537 -425Q328 -425 221 -302T113 67Q113 215 149 315T248 476T392 563T567 589Q681 589 761 562T887 501L780 319Q689 380 567 380Q518 380 483 368T424 328T389 255T373 142Q398 161 423 177T476 203T539 220T618 226Q684 226 741 209T841 154T909 57T934 -85Q934 -162 909 -224T833 -331T709 -400T537 -425ZM539 -232Q614 -232 650 -195T686 -99Q686 -30 652 5T543 40Q483 40 445 22T373 -27Q379 -125 420 -178T539 -232Z"/><glyph unicode="₇" horiz-adv-x="866" d="M518 358H74V571H795V376L434 -406H162L518 358Z"/><glyph unicode="₈" horiz-adv-x="997" d="M498 -425Q295 -425 192 -353T88 -152Q88 -107 104 -69T149 2T215 59T295 104Q257 124 227 146T175 195T143 258T131 339Q131 386 153 431T220 511T335 567T498 589Q595 589 664 568T777 511T843 431T864 339Q864 262 820 203T700 110Q745 89 782 66T848 12T891 -58T907 -152Q907 -280 803 -352T498 -425ZM494 -257Q575 -257 614 -227T653 -142Q653 -88 609 -49T471 26Q406 -5 371 -48T336 -142Q336 -195 374 -226T494 -257ZM522 177Q573 205 599 235T625 310Q625 329 618 347T597 380T559 404T504 413Q439 413 409 384T379 315Q379 289 387 270T412 235T456 206T522 177Z"/><glyph unicode="₉" horiz-adv-x="1018" d="M449 -425Q336 -425 256 -398T131 -337L238 -161Q326 -222 451 -222Q500 -222 535 -210T594 -170T629 -97T645 16Q620 -4 595 -19T541 -45T477 -62T397 -68Q332 -68 275 -50T176 7T109 106T84 249Q84 325 109 387T185 495T308 564T479 589Q690 589 797 465T905 97Q905 -51 865 -151T761 -312T615 -399T449 -425ZM475 118Q535 118 573 135T645 185Q639 281 597 335T477 390Q403 390 368 352T332 255Q332 187 366 153T475 118Z"/><glyph unicode="€" horiz-adv-x="1509" d="M254 813H43V989H272Q297 1131 353 1235T489 1408T667 1510T874 1544Q994 1544 1083 1515T1238 1432T1348 1303T1423 1135L1141 1030Q1122 1090 1100 1137T1049 1217T979 1267T881 1284Q765 1284 695 1209T596 989H922V813H575V762Q575 739 575 717T578 674H922V496H598Q612 432 635 382T693 297T775 244T885 225Q983 225 1045 292T1149 502L1436 412Q1404 307 1354 225T1235 87T1078 1T883 -29Q772 -29 674 1T498 96T363 260T279 496H43V674H256Q254 695 254 716T254 760V813Z"/><glyph unicode="ℓ" horiz-adv-x="0"/><glyph unicode="№" horiz-adv-x="2474" d="M1647 633H2349V418H1647V633ZM1997 735Q1929 735 1859 755T1733 821T1640 944T1604 1133Q1604 1247 1640 1323T1732 1445T1859 1510T1997 1530Q2066 1530 2136 1511T2262 1445T2354 1323T2390 1133Q2390 1021 2355 945T2263 822T2136 755T1997 735ZM1997 897Q2037 897 2067 914T2117 961T2147 1035T2157 1130Q2157 1181 2148 1223T2119 1297T2069 1345T1997 1362Q1957 1362 1927 1346T1877 1299T1847 1226T1837 1130Q1837 1081 1846 1039T1874 965T1924 915T1997 897ZM156 0V1516H489L1124 549H1128V1516H1436V0H1128L467 975H463V0H156Z"/><glyph unicode="℗" horiz-adv-x="0"/><glyph unicode="™" horiz-adv-x="1894" d="M877 649V1516H1182L1339 940L1499 1516H1800V649H1583V1214L1421 649H1237L1075 1210V649H877ZM295 649V1331H57V1516H756V1331H518V649H295Z"/><glyph unicode="Ω" horiz-adv-x="0"/><glyph unicode="℮" horiz-adv-x="0"/><glyph unicode="∂" horiz-adv-x="0"/><glyph unicode="∆" horiz-adv-x="0"/><glyph unicode="∏" horiz-adv-x="0"/><glyph unicode="∑" horiz-adv-x="0"/><glyph unicode="−" horiz-adv-x="0"/><glyph unicode="√" horiz-adv-x="0"/><glyph unicode="∞" horiz-adv-x="0"/><glyph unicode="∫" horiz-adv-x="0"/><glyph unicode="≈" horiz-adv-x="0"/><glyph unicode="≠" horiz-adv-x="0"/><glyph unicode="≤" horiz-adv-x="0"/><glyph unicode="≥" horiz-adv-x="0"/><glyph unicode="◊" horiz-adv-x="0"/><glyph unicode="✓" horiz-adv-x="0"/><glyph unicode="" horiz-adv-x="1556" d="M606 0L657 301L522 289L526 233H287L291 268L256 266V506L309 502L322 635L20 584V928L322 877L309 1014L256 1010V1249L289 1247L287 1278H526L520 1225L657 1212L606 1516H950L899 1212L1034 1225L1030 1278H1270L1268 1245L1300 1249V1010L1245 1014L1233 877L1536 928V584L1233 635L1245 502L1300 506V266L1266 268L1270 233H1030L1034 289L899 301L950 0H606ZM492 877H657V1042L506 1030L492 877ZM899 877H1063L1051 1030L899 1042V877ZM657 471V635H492L504 485L657 471ZM899 471L1051 483L1063 635H899V471Z"/><glyph unicode="ﬀ" horiz-adv-x="1501" d="M223 0V852H41V1092H223V1167Q223 1236 238 1300T291 1414T395 1494T563 1524Q590 1524 619 1522T675 1518T721 1513T748 1509V1282Q734 1287 710 1287T668 1288Q606 1288 579 1255T551 1157V1092H881V1167Q881 1236 894 1300T948 1414T1063 1494T1260 1524Q1284 1524 1315 1522T1375 1518T1428 1513T1458 1509V1280Q1451 1281 1440 1282T1415 1285T1388 1287T1362 1288Q1332 1288 1304 1284T1255 1267T1221 1227T1208 1157V1092H1446V852H1208V0H881V852H551V0H223Z"/><glyph unicode="ﬁ" horiz-adv-x="1358" d="M223 0V852H41V1092H223V1167Q223 1236 238 1300T291 1414T395 1494T563 1524Q588 1524 617 1522T673 1518T720 1513T748 1509V1282Q734 1287 710 1287T668 1288Q606 1288 579 1255T551 1157V1092H752V852H551V0H223ZM881 0V1092H1208V0H881ZM879 1223V1505H1210V1223H879Z"/><glyph unicode="ﬂ" horiz-adv-x="1350" d="M223 0V852H41V1092H223V1167Q223 1236 238 1300T291 1414T395 1494T563 1524Q588 1524 617 1522T673 1518T720 1513T748 1509V1282Q734 1287 710 1287T668 1288Q606 1288 579 1255T551 1157V1092H752V852H551V0H223ZM881 0V1516H1208V0H881Z"/><glyph unicode="ﬃ" horiz-adv-x="2003" d="M223 0V852H41V1092H223V1167Q223 1236 238 1300T291 1414T395 1494T563 1524Q590 1524 619 1522T675 1518T721 1513T748 1509V1282Q734 1287 710 1287T668 1288Q606 1288 579 1255T551 1157V1092H881V1167Q881 1236 895 1300T948 1414T1053 1494T1221 1524Q1245 1524 1273 1522T1328 1518T1376 1513T1405 1509V1282Q1391 1287 1367 1287T1323 1288Q1263 1288 1236 1255T1208 1157V1092H1407V852H1208V0H881V852H551V0H223ZM1536 0V1092H1866V0H1536ZM1536 1223V1505H1866V1223H1536Z"/><glyph unicode="ﬄ" horiz-adv-x="2003" d="M223 0V852H41V1092H223V1167Q223 1236 238 1300T291 1414T395 1494T563 1524Q590 1524 619 1522T675 1518T721 1513T748 1509V1282Q734 1287 710 1287T668 1288Q606 1288 579 1255T551 1157V1092H881V1167Q881 1236 895 1300T948 1414T1053 1494T1221 1524Q1245 1524 1273 1522T1328 1518T1376 1513T1405 1509V1282Q1391 1287 1367 1287T1323 1288Q1263 1288 1236 1255T1208 1157V1092H1407V852H1208V0H881V852H551V0H223ZM1536 0V1516H1866V0H1536Z"/></font>
</defs>
</svg>
